<svg width="750" height="750" viewBox="0 0 750 750" fill="none" xmlns="http://www.w3.org/2000/svg">
<path d="M251.136 198.15C286.096 174.786 327.193 162.325 369.23 162.342C425.57 162.365 479.595 184.779 519.429 224.656C525.672 230.906 531.487 237.504 536.854 244.406C536.118 249.257 535.256 254.062 534.393 258.866C533.779 262.288 533.164 265.709 532.596 269.146C532.086 270.311 531.418 271.401 530.611 272.385C530.38 271.541 530.264 270.669 530.266 269.794C530.474 266.019 530.729 262.229 530.984 258.441C531.152 255.946 531.32 253.451 531.474 250.964C531.821 248.532 531.994 246.078 531.992 243.622C532.033 242.593 531.778 241.574 531.259 240.685C530.559 239.518 529.426 238.676 528.108 238.344C526.789 238.012 525.393 238.217 524.225 238.914C523.251 239.383 522.326 239.947 521.464 240.599C519.981 241.798 518.491 242.987 517.003 244.177C512.86 247.487 508.721 250.795 504.721 254.289C503.303 255.58 502.182 257.164 501.437 258.931C500.692 260.699 500.34 262.607 500.406 264.525C500.379 267.119 500.298 269.712 500.202 272.307C479.079 244.976 449.921 224.809 416.697 214.747C379.811 203.576 340.195 205.554 304.602 220.341C269.009 235.129 239.641 261.813 221.503 295.845C203.364 329.877 197.577 369.152 205.129 406.976C212.681 444.8 233.103 478.832 262.917 503.274C292.73 527.715 330.088 541.053 368.626 541.015C412.773 540.97 455.096 523.386 486.296 492.126C513.532 464.837 530.471 428.94 534.226 390.552C536.834 363.887 532.97 337.167 523.184 312.59C527.63 313.659 532.077 314.704 536.523 315.703C539.744 316.397 543.109 315.792 545.887 314.018C553.243 309.277 560.599 304.467 567.802 299.496C576.872 323.389 581.653 348.948 581.658 375C581.666 417.074 569.208 458.205 545.858 493.191C522.508 528.177 489.316 555.446 450.479 571.549C411.643 587.652 368.908 591.866 327.679 583.656C286.45 575.447 248.58 555.184 218.858 525.43C189.137 495.677 168.899 457.769 160.706 416.502C152.512 375.235 156.73 332.463 172.827 293.596C188.924 254.729 216.176 221.513 251.136 198.15Z" fill="#6B9C66"/>
<path d="M563.402 288.793C562.578 286.933 561.727 285.085 560.849 283.248C560.429 283.147 560.009 283.045 559.589 282.944C553.75 281.533 547.903 280.121 542.089 278.345C540.693 277.769 539.139 277.699 537.697 278.149C536.255 278.598 535.015 279.539 534.193 280.807L540.708 282.793L563.402 288.793Z" fill="#6B9C66"/>
<path d="M363.096 293.958C359.692 288.513 354.626 284.31 348.648 281.973C348 288.278 349.338 300.846 367.547 312.205C368.061 305.802 366.501 299.403 363.096 293.958Z" fill="#6B9C66"/>
<path fill-rule="evenodd" clip-rule="evenodd" d="M499.716 288.553C493.842 279.588 487.029 271.196 479.349 263.531C449.959 234.198 410.132 217.747 368.626 217.795C332.406 217.838 297.322 230.449 269.351 253.48C241.38 276.512 222.254 308.538 215.231 344.102C208.209 379.666 213.724 416.567 230.838 448.517C247.953 480.466 275.606 505.488 309.087 519.318C342.568 533.148 379.804 534.93 414.45 524.361C449.097 513.792 479.009 491.525 499.092 461.356C519.174 431.186 528.182 394.981 524.582 358.908C522.872 341.769 518.365 325.164 511.355 309.709C510.684 309.544 510.012 309.379 509.341 309.214C507.83 308.843 506.319 308.472 504.808 308.102C503.564 307.67 502.365 307.12 501.226 306.46L433.533 360.471C441.411 372.767 445.692 387.159 445.692 401.993C445.683 417.199 441.169 432.061 432.72 444.699C424.272 457.337 412.268 467.184 398.227 472.993C384.187 478.802 368.74 480.313 353.842 477.335C338.943 474.357 325.262 467.024 314.528 456.262C303.794 445.501 296.49 431.795 293.539 416.878C290.589 401.961 292.125 386.504 297.953 372.461C303.781 358.418 313.639 346.42 326.28 337.985C338.921 329.55 353.778 325.058 368.971 325.075C389.33 325.109 408.844 333.228 423.228 347.649C425.089 349.515 426.844 351.466 428.49 353.494C436.428 347.252 444.334 340.99 452.208 334.705L491.69 302.962L492.424 302.401C498.292 299.723 499.586 294.713 499.716 288.926C499.716 288.802 499.716 288.677 499.716 288.553ZM391.403 277.635C398.594 273.529 406.733 271.377 415.012 271.392C415.624 271.409 416.227 271.546 416.786 271.796C417.345 272.046 417.85 272.404 418.27 272.849C418.691 273.294 419.02 273.818 419.238 274.391C419.457 274.963 419.56 275.573 419.543 276.186C419.549 276.794 419.433 277.398 419.203 277.961C418.973 278.524 418.634 279.036 418.204 279.466C417.774 279.896 417.263 280.237 416.7 280.467C416.137 280.697 415.534 280.813 414.926 280.807C405.589 280.765 396.556 284.125 389.513 290.261C382.471 296.396 377.899 304.887 376.652 314.148C376.485 315.148 376.384 316.158 376.35 317.171V317.689C376.254 318.357 376.003 318.993 375.616 319.547C375.577 320.154 375.4 320.745 375.099 321.274C374.774 321.999 374.256 322.621 373.601 323.071C372.947 323.52 372.181 323.78 371.388 323.822H370.956C370.233 323.826 369.521 323.648 368.885 323.304C357.666 317.689 343.47 307.583 340.018 291.777C338.705 285.939 339.125 279.844 341.226 274.242C341.671 273.238 342.456 272.422 343.443 271.94C344.429 271.458 345.554 271.341 346.62 271.608C352.766 272.858 358.498 275.638 363.287 279.692C368.076 283.745 371.767 288.941 374.02 294.8C378.22 287.659 384.212 281.741 391.403 277.635Z" fill="#6B9C66"/>
<path fill-rule="evenodd" clip-rule="evenodd" d="M420.614 359.823C413.588 351.142 404.477 344.336 394.094 340.066C381.871 335.04 368.432 333.756 355.48 336.377C342.527 338.997 330.641 345.403 321.327 354.786C312.013 364.169 305.689 376.106 303.155 389.086C300.621 402.067 301.991 415.509 307.091 427.71C312.192 439.912 320.794 450.325 331.808 457.632C342.823 464.939 355.756 468.813 368.971 468.761C386.668 468.681 403.611 461.58 416.084 449.015C428.557 436.45 435.543 419.446 435.508 401.733C435.476 389.385 432.029 377.305 425.572 366.823L411.697 377.894C411.505 378.348 411.223 378.759 410.87 379.103C410.517 379.464 410.09 379.743 409.619 379.923C409.368 380.029 409.109 380.111 408.844 380.17L399.018 388.01C399.407 388.192 399.755 388.453 400.039 388.777C400.412 389.125 400.707 389.546 400.908 390.015C401.109 390.483 401.209 390.988 401.204 391.498V391.584C401.208 392.1 401.106 392.611 400.906 393.086C400.705 393.561 400.411 393.991 400.039 394.348C399.7 394.735 399.27 395.032 398.788 395.212C398.318 395.383 397.821 395.471 397.321 395.471C396.806 395.476 396.294 395.388 395.81 395.212C395.328 395.032 394.898 394.735 394.559 394.348C394.2 393.985 393.907 393.561 393.696 393.096C393.602 392.881 393.528 392.659 393.475 392.433L372.725 408.989L372.812 398.365L387.483 386.617C401.267 375.603 409.178 369.189 420.614 359.823ZM414.15 362.13C414.154 362.663 414.051 363.192 413.847 363.685C413.656 364.138 413.377 364.548 413.028 364.894C412.68 365.292 412.233 365.59 411.733 365.758C411.267 365.949 410.77 366.051 410.266 366.06C409.763 366.046 409.267 365.943 408.799 365.758C408.299 365.59 407.852 365.292 407.504 364.894C407.155 364.548 406.876 364.138 406.684 363.685C406.481 363.192 406.378 362.663 406.382 362.13C406.375 361.624 406.478 361.123 406.684 360.661C406.873 360.183 407.158 359.748 407.522 359.384C407.886 359.02 408.32 358.734 408.799 358.545C409.267 358.36 409.763 358.257 410.266 358.243C410.77 358.252 411.267 358.354 411.733 358.545C412.212 358.734 412.646 359.02 413.01 359.384C413.374 359.748 413.659 360.183 413.847 360.661C414.054 361.123 414.157 361.624 414.15 362.13ZM423.34 380.269C423.547 379.807 423.65 379.306 423.642 378.8C423.646 378.285 423.544 377.774 423.344 377.298C423.143 376.823 422.849 376.394 422.477 376.036C422.135 375.662 421.705 375.38 421.226 375.216C420.765 375.009 420.264 374.906 419.759 374.913C419.239 374.905 418.724 375.008 418.248 375.216C417.777 375.396 417.35 375.676 416.997 376.036C416.638 376.399 416.345 376.823 416.134 377.289C415.748 378.245 415.748 379.313 416.134 380.269C416.314 380.751 416.61 381.182 416.997 381.521C417.346 381.908 417.772 382.217 418.248 382.428C418.732 382.604 419.244 382.692 419.759 382.687C420.259 382.687 420.755 382.599 421.226 382.428C421.702 382.217 422.128 381.908 422.477 381.521C422.864 381.182 423.161 380.751 423.34 380.269ZM415.659 394.78C415.887 394.326 415.991 393.819 415.961 393.312C415.995 392.804 415.891 392.296 415.659 391.843C415.491 391.342 415.193 390.895 414.796 390.548C414.254 389.975 413.546 389.587 412.771 389.44C411.997 389.293 411.195 389.393 410.481 389.727C410.01 389.907 409.583 390.187 409.23 390.548C408.845 390.898 408.562 391.345 408.41 391.843C408.199 392.303 408.096 392.806 408.108 393.312C408.142 394.337 408.54 395.317 409.23 396.076C409.583 396.436 410.01 396.716 410.481 396.896C411.2 397.205 411.995 397.293 412.764 397.146C413.533 397 414.24 396.627 414.796 396.076C415.175 395.712 415.47 395.27 415.659 394.78ZM431.107 398.926C431.315 398.45 431.418 397.934 431.409 397.415C431.418 396.895 431.315 396.379 431.107 395.903C430.927 395.431 430.648 395.004 430.287 394.651C429.901 394.3 429.465 394.008 428.993 393.787C428.524 393.61 428.027 393.522 427.526 393.528C427.025 393.528 426.529 393.616 426.059 393.787C425.587 394.008 425.15 394.3 424.764 394.651C424.404 395.004 424.124 395.431 423.944 395.903C423.556 396.873 423.556 397.956 423.944 398.926C424.124 399.398 424.404 399.825 424.764 400.179C425.143 400.527 425.582 400.805 426.059 400.999C426.52 401.206 427.021 401.309 427.526 401.301C428.037 401.306 428.545 401.208 429.019 401.016C429.492 400.823 429.924 400.539 430.287 400.179C430.648 399.825 430.927 399.398 431.107 398.926ZM410.266 408.125C410.282 408.643 410.187 409.158 409.986 409.635C409.785 410.112 409.483 410.54 409.101 410.889C408.775 411.262 408.359 411.544 407.892 411.71C407.173 412.019 406.378 412.106 405.61 411.96C404.841 411.814 404.133 411.441 403.577 410.889C403.036 410.327 402.67 409.619 402.525 408.852C402.379 408.085 402.46 407.292 402.758 406.57C402.937 406.099 403.217 405.671 403.577 405.318C403.956 404.977 404.376 404.687 404.829 404.454C405.798 404.065 406.88 404.065 407.849 404.454C408.304 404.662 408.714 404.955 409.058 405.318C409.444 405.667 409.753 406.094 409.964 406.57C410.159 407.066 410.262 407.593 410.266 408.125ZM406.083 430.832C406.284 430.357 406.385 429.846 406.382 429.33C406.39 428.825 406.287 428.324 406.08 427.862C405.873 427.381 405.581 426.942 405.217 426.566C404.864 426.206 404.437 425.926 403.965 425.746C403.504 425.539 403.004 425.436 402.498 425.443C401.977 425.414 401.458 425.518 400.988 425.746C400.517 425.926 400.09 426.206 399.737 426.566C399.386 426.953 399.095 427.389 398.874 427.862C398.487 428.818 398.487 429.886 398.874 430.842C399.085 431.307 399.377 431.731 399.737 432.094C400.079 432.469 400.509 432.751 400.988 432.915C401.454 433.156 401.974 433.275 402.498 433.261C403.007 433.254 403.507 433.136 403.965 432.915C404.445 432.751 404.875 432.469 405.217 432.094C405.588 431.737 405.883 431.308 406.083 430.832ZM425.541 414.258C425.56 414.765 425.469 415.271 425.276 415.74C425.082 416.21 424.79 416.632 424.419 416.979C424.08 417.366 423.65 417.663 423.167 417.842C422.684 418.026 422.174 418.128 421.657 418.145C421.154 418.13 420.658 418.028 420.19 417.842C419.701 417.653 419.259 417.358 418.896 416.979C418.453 416.52 418.129 415.96 417.951 415.347C417.772 414.735 417.746 414.088 417.873 413.463C418.001 412.838 418.278 412.254 418.682 411.76C419.086 411.267 419.603 410.879 420.19 410.63C420.658 410.444 421.154 410.342 421.657 410.328C422.174 410.345 422.684 410.447 423.167 410.63C424.116 411.04 424.872 411.797 425.282 412.746C425.457 413.231 425.545 413.743 425.541 414.258ZM421.355 430.842C421.546 430.36 421.648 429.848 421.657 429.33C421.645 428.292 421.227 427.3 420.492 426.566C420.139 426.206 419.712 425.926 419.241 425.746C418.78 425.539 418.279 425.436 417.774 425.443C417.253 425.414 416.733 425.518 416.264 425.746C415.792 425.926 415.365 426.206 415.012 426.566C414.662 426.953 414.371 427.389 414.149 427.862C413.763 428.818 413.763 429.886 414.149 430.842C414.361 431.307 414.653 431.731 415.012 432.094C415.354 432.469 415.784 432.751 416.264 432.915C416.73 433.156 417.249 433.275 417.774 433.261C418.282 433.254 418.783 433.136 419.241 432.915C419.72 432.751 420.151 432.469 420.492 432.094C420.865 431.743 421.159 431.316 421.355 430.842ZM402.24 448.42C402.248 448.925 402.145 449.427 401.938 449.888C401.545 450.858 400.785 451.635 399.824 452.047C399.353 452.218 398.857 452.306 398.356 452.306C397.842 452.311 397.33 452.223 396.846 452.047C396.381 451.836 395.958 451.543 395.595 451.184C395.211 450.824 394.916 450.381 394.732 449.888C394.389 448.939 394.389 447.9 394.732 446.951C394.927 446.464 395.221 446.023 395.595 445.656C395.948 445.295 396.375 445.015 396.846 444.835C397.322 444.627 397.837 444.524 398.356 444.533C398.862 444.525 399.362 444.628 399.824 444.835C400.78 445.234 401.54 445.994 401.938 446.951C402.145 447.413 402.248 447.914 402.24 448.42Z" fill="#6B9C66"/>
<path fill-rule="evenodd" clip-rule="evenodd" d="M233.543 171.752C273.706 144.892 320.926 130.556 369.23 130.556C434.003 130.556 496.124 156.31 541.926 202.152C587.728 247.994 613.459 310.169 613.459 375C613.459 423.347 599.135 470.607 572.299 510.806C545.463 551.005 507.319 582.336 462.692 600.837C418.065 619.339 368.959 624.179 321.583 614.747C274.207 605.316 230.689 582.035 196.533 547.848C162.377 513.662 139.117 470.106 129.693 422.689C120.269 375.271 125.106 326.122 143.591 281.455C162.076 236.789 193.38 198.612 233.543 171.752ZM244.162 562.328C281.173 587.116 324.697 600.364 369.23 600.398C398.818 600.421 428.121 594.608 455.463 583.291C482.805 571.973 507.652 555.374 528.582 534.442C549.512 513.51 566.115 488.654 577.444 461.296C588.772 433.938 594.602 404.614 594.602 375C594.602 330.428 581.399 286.856 556.661 249.793C531.924 212.731 496.762 183.841 455.622 166.776C414.482 149.711 369.211 145.237 325.531 153.92C281.851 162.603 241.724 184.053 210.223 215.558C178.721 247.064 157.259 287.21 148.55 330.921C139.841 374.633 144.276 419.947 161.295 461.137C178.313 502.326 207.151 537.54 244.162 562.328Z" fill="#6B9C66"/>
<path d="M616.868 240.642C618.751 241.289 620.536 242.19 622.176 243.32C625.671 245.565 625.93 247.811 622.909 250.575C620.517 252.657 618.01 254.604 615.401 256.406C607.893 262.841 600.083 268.93 592.057 274.674C582.116 252.439 568.894 231.824 552.833 213.52L572.596 196.979C574.239 195.589 575.868 194.18 577.502 192.766C580.032 190.576 582.574 188.377 585.196 186.225C586.609 184.983 588.141 183.883 589.77 182.943C590.859 182.355 592.135 182.221 593.322 182.568C594.509 182.916 595.512 183.718 596.113 184.8C596.489 185.488 596.682 186.261 596.674 187.046C596.73 188.496 596.6 189.947 596.286 191.364C595.929 193.59 595.575 195.821 595.22 198.057C593.941 206.103 592.655 214.2 591.237 222.244C590.917 224.284 590.754 226.345 590.575 228.597C590.489 229.682 590.4 230.811 590.288 232.004C592.878 232.967 595.37 233.761 597.812 234.539C599.64 235.121 601.44 235.694 603.233 236.323C605.441 237.098 607.914 237.849 610.392 238.601C612.609 239.274 614.83 239.948 616.868 240.642Z" fill="#6B9C66"/>
</svg>
