<svg width="90" height="36" viewBox="0 0 90 36" fill="none" xmlns="http://www.w3.org/2000/svg">
<path d="M9.87899 4.97737C12.4533 3.25697 15.4796 2.33937 18.575 2.34063C22.7237 2.34231 26.7019 3.99278 29.6352 6.9292C30.0949 7.38942 30.523 7.87532 30.9182 8.38353C30.8641 8.74075 30.8006 9.09457 30.737 9.44828C30.6918 9.70027 30.6466 9.95221 30.6047 10.2053C30.5671 10.2911 30.518 10.3714 30.4586 10.4438C30.4415 10.3816 30.433 10.3174 30.4331 10.253C30.4485 9.97503 30.4673 9.69592 30.486 9.41705C30.4984 9.23327 30.5108 9.04959 30.5221 8.86641C30.5476 8.68733 30.5604 8.50667 30.5602 8.32578C30.5632 8.25001 30.5445 8.17498 30.5062 8.10952C30.4547 8.02359 30.3713 7.96161 30.2742 7.93716C30.1771 7.91272 30.0743 7.92781 29.9883 7.97913C29.9166 8.01361 29.8485 8.05516 29.785 8.10316C29.6757 8.19145 29.5661 8.27907 29.4565 8.36666C29.1514 8.61039 28.8466 8.85396 28.5521 9.11129C28.4477 9.20631 28.3651 9.32295 28.3103 9.4531C28.2554 9.58326 28.2295 9.72382 28.2344 9.865C28.2323 10.056 28.2264 10.247 28.2193 10.4381C26.6639 8.42553 24.5168 6.94047 22.0703 6.19956C19.3541 5.37699 16.437 5.52257 13.8161 6.6115C11.1951 7.70043 9.03258 9.66532 7.69692 12.1713C6.36126 14.6773 5.93516 17.5694 6.49124 20.3546C7.04732 23.1398 8.55116 25.6458 10.7465 27.4456C12.9418 29.2454 15.6928 30.2275 18.5306 30.2247C21.7814 30.2214 24.8979 28.9266 27.1954 26.6247C29.2009 24.6153 30.4482 21.9719 30.7247 19.1452C30.9168 17.1817 30.6322 15.2141 29.9116 13.4044C30.239 13.483 30.5665 13.56 30.8939 13.6336C31.1311 13.6847 31.3788 13.6401 31.5834 13.5095C32.1251 13.1604 32.6667 12.8062 33.1971 12.4401C33.865 14.1995 34.2171 16.0816 34.2174 18C34.2181 21.0982 33.3007 24.1269 31.5813 26.7032C29.8619 29.2794 27.4177 31.2874 24.5579 32.4732C21.6982 33.6589 18.5513 33.9692 15.5154 33.3647C12.4794 32.7602 9.69079 31.2681 7.50221 29.0771C5.31362 26.8862 3.82341 24.0948 3.22006 21.056C2.61671 18.0173 2.92733 14.8677 4.11263 12.0057C5.29793 9.14367 7.30466 6.69777 9.87899 4.97737Z" fill="white"/>
<path d="M32.8732 11.652C32.8125 11.5151 32.7498 11.3789 32.6851 11.2437C32.6542 11.2362 32.6233 11.2288 32.5924 11.2213C32.1624 11.1174 31.7318 11.0134 31.3038 10.8827C31.2009 10.8402 31.0865 10.8351 30.9803 10.8682C30.8741 10.9013 30.7829 10.9706 30.7223 11.0639L31.2021 11.2102L32.8732 11.652Z" fill="white"/>
<path d="M18.1234 12.0324C17.8727 11.6314 17.4996 11.3219 17.0594 11.1498C17.0118 11.6141 17.1103 12.5396 18.4511 13.376C18.489 12.9045 18.374 12.4333 18.1234 12.0324Z" fill="white"/>
<path fill-rule="evenodd" clip-rule="evenodd" d="M28.1836 11.6343C27.751 10.9742 27.2493 10.3563 26.6838 9.79185C24.5196 7.63183 21.5869 6.42044 18.5306 6.42401C15.8635 6.42713 13.28 7.35578 11.2203 9.05174C9.16061 10.7477 7.75222 13.106 7.23511 15.7248C6.71799 18.3436 7.12415 21.0608 8.38438 23.4135C9.6446 25.7661 11.6809 27.6087 14.1463 28.627C16.6117 29.6454 19.3536 29.7766 21.9049 28.9984C24.4561 28.2201 26.6588 26.5805 28.1376 24.3589C29.6163 22.1374 30.2797 19.4713 30.0146 16.8151C29.8887 15.553 29.5568 14.3303 29.0406 13.1922C28.9912 13.1801 28.9417 13.1679 28.8923 13.1558C28.781 13.1284 28.6697 13.1011 28.5585 13.0738C28.4669 13.042 28.3786 13.0016 28.2947 12.953L23.3101 16.9302C23.8902 17.8356 24.2054 18.8954 24.2054 19.9876C24.2048 21.1074 23.8723 22.2017 23.2502 23.1324C22.6281 24.063 21.7442 24.7881 20.7103 25.2158C19.6764 25.6436 18.539 25.7549 17.4419 25.5356C16.3448 25.3163 15.3374 24.7763 14.547 23.9838C13.7565 23.1914 13.2187 22.1821 13.0014 21.0837C12.7842 19.9853 12.8973 18.8471 13.3264 17.813C13.7556 16.7789 14.4815 15.8955 15.4123 15.2744C16.3432 14.6533 17.4372 14.3224 18.5559 14.3237C20.0551 14.3262 21.4921 14.924 22.5513 15.986C22.6883 16.1233 22.8175 16.267 22.9387 16.4163C23.5233 15.9568 24.1054 15.4956 24.6852 15.0328L27.5925 12.6954L27.6466 12.654C28.0787 12.4569 28.174 12.088 28.1835 11.6618C28.1835 11.6527 28.1835 11.6435 28.1836 11.6343ZM20.2078 10.8304C20.7373 10.528 21.3366 10.3695 21.9463 10.3707C21.9913 10.3719 22.0357 10.382 22.0769 10.4004C22.1181 10.4188 22.1552 10.4452 22.1862 10.478C22.2172 10.5108 22.2414 10.5493 22.2575 10.5915C22.2736 10.6336 22.2812 10.6786 22.2799 10.7237C22.2803 10.7685 22.2718 10.8129 22.2549 10.8544C22.238 10.8959 22.2129 10.9335 22.1813 10.9652C22.1496 10.9969 22.112 11.022 22.0705 11.0389C22.0291 11.0559 21.9847 11.0644 21.9399 11.064C21.2524 11.0609 20.5872 11.3083 20.0686 11.7601C19.55 12.2119 19.2134 12.8371 19.1216 13.5191C19.1093 13.5927 19.1018 13.6671 19.0993 13.7417V13.7799C19.0922 13.829 19.0737 13.8759 19.0453 13.9166C19.0424 13.9613 19.0294 14.0048 19.0072 14.0438C18.9833 14.0972 18.9451 14.143 18.8969 14.1761C18.8487 14.2092 18.7923 14.2284 18.7339 14.2314H18.7021C18.6489 14.2317 18.5965 14.2186 18.5496 14.1933C17.7235 13.7799 16.6781 13.0357 16.4239 11.8717C16.3273 11.4419 16.3582 10.9931 16.5129 10.5806C16.5457 10.5066 16.6035 10.4465 16.6761 10.4111C16.7488 10.3756 16.8316 10.3669 16.9101 10.3866C17.3627 10.4786 17.7848 10.6834 18.1374 10.9818C18.4901 11.2803 18.7619 11.6629 18.9277 12.0943C19.237 11.5685 19.6783 11.1328 20.2078 10.8304Z" fill="white"/>
<path fill-rule="evenodd" clip-rule="evenodd" d="M22.3588 16.8824C21.8414 16.2432 21.1705 15.742 20.4059 15.4276C19.5058 15.0575 18.5163 14.963 17.5625 15.1559C16.6087 15.3488 15.7335 15.8206 15.0477 16.5115C14.3618 17.2024 13.8961 18.0814 13.7095 19.0373C13.5229 19.9931 13.6238 20.9829 13.9994 21.8814C14.3749 22.7799 15.0083 23.5466 15.8194 24.0847C16.6305 24.6228 17.5829 24.908 18.5559 24.9042C19.8591 24.8983 21.1067 24.3754 22.0252 23.4502C22.9437 22.5249 23.458 21.2728 23.4555 19.9685C23.4532 19.0593 23.1993 18.1698 22.7239 17.3979L21.7022 18.2131C21.688 18.2465 21.6673 18.2768 21.6412 18.3021C21.6152 18.3287 21.5838 18.3493 21.5491 18.3625C21.5306 18.3703 21.5115 18.3764 21.4921 18.3807L20.7685 18.958C20.7972 18.9714 20.8228 18.9906 20.8437 19.0145C20.8711 19.0401 20.8929 19.0711 20.9077 19.1056C20.9224 19.1401 20.9299 19.1773 20.9295 19.2148V19.2212C20.9297 19.2592 20.9223 19.2968 20.9075 19.3318C20.8928 19.3668 20.8711 19.3984 20.8437 19.4247C20.8187 19.4532 20.7871 19.4751 20.7516 19.4883C20.7169 19.5009 20.6804 19.5074 20.6435 19.5074C20.6056 19.5077 20.568 19.5013 20.5323 19.4883C20.4968 19.4751 20.4652 19.4532 20.4402 19.4247C20.4137 19.398 20.3922 19.3668 20.3766 19.3325C20.3697 19.3167 20.3643 19.3003 20.3604 19.2837L18.8324 20.5028L18.8388 19.7205L19.9191 18.8555C20.9341 18.0444 21.5166 17.5721 22.3588 16.8824ZM21.8827 17.0523C21.8831 17.0916 21.8755 17.1305 21.8605 17.1668C21.8464 17.2001 21.8259 17.2304 21.8001 17.2558C21.7745 17.2851 21.7416 17.307 21.7048 17.3194C21.6705 17.3335 21.6338 17.341 21.5968 17.3417C21.5597 17.3406 21.5232 17.3331 21.4887 17.3194C21.4519 17.307 21.419 17.2851 21.3934 17.2558C21.3677 17.2304 21.3471 17.2001 21.333 17.1668C21.318 17.1305 21.3105 17.0916 21.3108 17.0523C21.3102 17.015 21.3178 16.9781 21.333 16.9442C21.3469 16.9089 21.3679 16.8769 21.3947 16.8501C21.4215 16.8233 21.4535 16.8022 21.4887 16.7883C21.5232 16.7747 21.5597 16.7671 21.5968 16.7661C21.6338 16.7667 21.6705 16.7743 21.7048 16.7883C21.74 16.8022 21.772 16.8233 21.7988 16.8501C21.8256 16.8769 21.8466 16.9089 21.8605 16.9442C21.8757 16.9781 21.8833 17.015 21.8827 17.0523ZM22.5595 18.388C22.5747 18.354 22.5823 18.3171 22.5817 18.2798C22.582 18.2419 22.5745 18.2042 22.5598 18.1692C22.545 18.1343 22.5233 18.1026 22.496 18.0763C22.4708 18.0487 22.4391 18.028 22.4038 18.0159C22.3699 18.0006 22.333 17.993 22.2958 17.9936C22.2575 17.993 22.2196 18.0006 22.1846 18.0159C22.1499 18.0291 22.1184 18.0497 22.0924 18.0763C22.066 18.103 22.0444 18.1343 22.0289 18.1685C22.0004 18.2389 22.0004 18.3176 22.0289 18.388C22.0421 18.4235 22.0639 18.4552 22.0924 18.4802C22.1181 18.5087 22.1495 18.5314 22.1846 18.547C22.2202 18.5599 22.2579 18.5664 22.2958 18.5661C22.3326 18.566 22.3692 18.5596 22.4038 18.547C22.4389 18.5314 22.4703 18.5087 22.496 18.4802C22.5244 18.4552 22.5463 18.4235 22.5595 18.388ZM21.9939 19.4565C22.0107 19.4231 22.0183 19.3858 22.0161 19.3484C22.0187 19.311 22.011 19.2736 21.9939 19.2403C21.9815 19.2034 21.9596 19.1705 21.9304 19.1449C21.8904 19.1027 21.8383 19.0741 21.7812 19.0633C21.7242 19.0524 21.6652 19.0598 21.6126 19.0844C21.5779 19.0977 21.5465 19.1183 21.5205 19.1449C21.4921 19.1707 21.4713 19.2036 21.4601 19.2403C21.4446 19.2741 21.4369 19.3111 21.4378 19.3484C21.4404 19.4239 21.4696 19.4961 21.5205 19.5519C21.5465 19.5785 21.5779 19.5991 21.6126 19.6124C21.6656 19.6351 21.7241 19.6415 21.7807 19.6308C21.8373 19.62 21.8894 19.5925 21.9304 19.5519C21.9583 19.5252 21.98 19.4926 21.9939 19.4565ZM23.1314 19.7618C23.1467 19.7267 23.1543 19.6888 23.1537 19.6505C23.1543 19.6123 23.1467 19.5743 23.1314 19.5392C23.1182 19.5045 23.0976 19.473 23.0711 19.447C23.0427 19.4211 23.0105 19.3997 22.9758 19.3834C22.9412 19.3703 22.9046 19.3639 22.8677 19.3643C22.8309 19.3643 22.7943 19.3708 22.7597 19.3834C22.7249 19.3997 22.6928 19.4211 22.6644 19.447C22.6378 19.473 22.6172 19.5045 22.604 19.5392C22.5754 19.6106 22.5754 19.6904 22.604 19.7618C22.6172 19.7966 22.6378 19.828 22.6644 19.8541C22.6923 19.8797 22.7246 19.9002 22.7597 19.9145C22.7936 19.9297 22.8305 19.9373 22.8677 19.9367C22.9054 19.937 22.9427 19.9299 22.9776 19.9157C23.0125 19.9015 23.0443 19.8806 23.0711 19.8541C23.0976 19.828 23.1182 19.7966 23.1314 19.7618ZM21.5967 20.4392C21.598 20.4773 21.591 20.5153 21.5761 20.5504C21.5613 20.5855 21.5391 20.617 21.511 20.6427C21.487 20.6702 21.4563 20.691 21.422 20.7032C21.369 20.7259 21.3105 20.7323 21.2539 20.7216C21.1973 20.7108 21.1452 20.6834 21.1042 20.6427C21.0644 20.6013 21.0375 20.5492 21.0267 20.4927C21.016 20.4363 21.022 20.3779 21.0439 20.3247C21.0571 20.29 21.0777 20.2585 21.1042 20.2325C21.1321 20.2074 21.1631 20.186 21.1964 20.1689C21.2678 20.1402 21.3474 20.1402 21.4188 20.1689C21.4523 20.1842 21.4825 20.2058 21.5078 20.2325C21.5362 20.2582 21.559 20.2896 21.5745 20.3247C21.5889 20.3612 21.5964 20.4 21.5967 20.4392ZM21.2888 22.1113C21.3035 22.0763 21.311 22.0387 21.3108 22.0007C21.3113 21.9634 21.3037 21.9265 21.2885 21.8926C21.2733 21.8572 21.2518 21.8248 21.225 21.7972C21.199 21.7706 21.1675 21.75 21.1328 21.7367C21.0989 21.7215 21.062 21.7139 21.0248 21.7145C20.9864 21.7123 20.9481 21.72 20.9136 21.7367C20.8789 21.75 20.8474 21.7706 20.8214 21.7972C20.7956 21.8256 20.7742 21.8578 20.7579 21.8926C20.7294 21.9629 20.7294 22.0416 20.7579 22.112C20.7734 22.1463 20.795 22.1775 20.8214 22.2042C20.8466 22.2318 20.8783 22.2526 20.9136 22.2646C20.9479 22.2824 20.9862 22.2911 21.0248 22.2901C21.0622 22.2896 21.0991 22.2809 21.1328 22.2646C21.1681 22.2526 21.1998 22.2318 21.225 22.2042C21.2523 22.1779 21.274 22.1463 21.2888 22.1113ZM22.7215 20.8908C22.7229 20.9282 22.7163 20.9654 22.702 21C22.6878 21.0345 22.6662 21.0656 22.6389 21.0912C22.6139 21.1197 22.5823 21.1415 22.5468 21.1548C22.5112 21.1682 22.4736 21.1758 22.4356 21.177C22.3985 21.176 22.362 21.1684 22.3275 21.1548C22.2915 21.1408 22.259 21.1191 22.2322 21.0912C22.1996 21.0574 22.1757 21.0161 22.1626 20.971C22.1495 20.9259 22.1476 20.8783 22.157 20.8323C22.1663 20.7863 22.1868 20.7432 22.2165 20.7069C22.2462 20.6705 22.2843 20.642 22.3275 20.6237C22.362 20.61 22.3985 20.6025 22.4356 20.6014C22.4736 20.6027 22.5112 20.6102 22.5468 20.6237C22.6166 20.6539 22.6723 20.7096 22.7025 20.7795C22.7154 20.8152 22.7219 20.8529 22.7215 20.8908ZM22.4134 22.112C22.4274 22.0765 22.4349 22.0388 22.4356 22.0007C22.4347 21.9242 22.4039 21.8512 22.3498 21.7972C22.3238 21.7706 22.2924 21.75 22.2577 21.7367C22.2237 21.7215 22.1868 21.7139 22.1496 21.7145C22.1113 21.7123 22.073 21.72 22.0384 21.7367C22.0037 21.75 21.9723 21.7706 21.9463 21.7972C21.9204 21.8256 21.899 21.8578 21.8827 21.8926C21.8543 21.9629 21.8543 22.0416 21.8827 22.112C21.8983 22.1463 21.9198 22.1775 21.9463 22.2042C21.9714 22.2318 22.0031 22.2526 22.0384 22.2646C22.0727 22.2824 22.111 22.2911 22.1496 22.2901C22.1871 22.2896 22.2239 22.2809 22.2577 22.2646C22.293 22.2526 22.3246 22.2318 22.3498 22.2042C22.3773 22.1783 22.3989 22.1469 22.4134 22.112ZM21.0058 23.4063C21.0063 23.4436 20.9987 23.4805 20.9835 23.5145C20.9546 23.5859 20.8986 23.6431 20.8278 23.6735C20.7932 23.6861 20.7566 23.6925 20.7198 23.6926C20.6819 23.6929 20.6442 23.6864 20.6086 23.6735C20.5743 23.6579 20.5431 23.6364 20.5164 23.6099C20.4882 23.5834 20.4664 23.5507 20.4529 23.5145C20.4277 23.4446 20.4277 23.3681 20.4529 23.2982C20.4673 23.2624 20.4889 23.2299 20.5164 23.2028C20.5424 23.1762 20.5739 23.1556 20.6086 23.1424C20.6436 23.1271 20.6816 23.1195 20.7198 23.1201C20.757 23.1195 20.7939 23.1271 20.8278 23.1424C20.8982 23.1717 20.9542 23.2278 20.9835 23.2982C20.9987 23.3322 21.0063 23.3691 21.0058 23.4063Z" fill="white"/>
<path fill-rule="evenodd" clip-rule="evenodd" d="M8.58353 3.03355C11.541 1.05568 15.0181 0 18.575 0C23.3447 0 27.919 1.89642 31.2917 5.27208C34.6644 8.64773 36.5592 13.2261 36.5592 18C36.5592 21.5601 35.5044 25.0402 33.5283 28.0003C31.5522 30.9603 28.7434 33.2674 25.4572 34.6298C22.1711 35.9922 18.555 36.3487 15.0665 35.6541C11.5779 34.9596 8.3734 33.2453 5.85827 30.7279C3.34314 28.2106 1.63031 25.0033 0.936389 21.5116C0.242466 18.02 0.598613 14.4008 1.95979 11.1117C3.32097 7.82263 5.62605 5.01141 8.58353 3.03355ZM9.36548 31.7942C12.0909 33.6194 15.2957 34.595 18.575 34.5975C20.7538 34.5992 22.9115 34.1711 24.9249 33.3378C26.9383 32.5044 28.7679 31.2821 30.3091 29.7407C31.8503 28.1993 33.073 26.3691 33.9071 24.3545C34.7413 22.34 35.1706 20.1807 35.1706 18C35.1706 14.7179 34.1984 11.5094 32.3768 8.78023C30.5552 6.05106 27.966 3.92371 24.9367 2.66711C21.9073 1.41051 18.5736 1.08108 15.3572 1.72047C12.1408 2.35985 9.18597 3.93935 6.8663 6.25929C4.54663 8.57922 2.96626 11.5354 2.32497 14.7542C1.68367 17.973 2.01026 21.3098 3.26343 24.3428C4.51661 27.3758 6.64011 29.9689 9.36548 31.7942Z" fill="white"/>
<path d="M36.8102 8.10636C36.9488 8.15398 37.0803 8.22032 37.201 8.30353C37.4584 8.4689 37.4775 8.63427 37.255 8.8378C37.0789 8.99111 36.8943 9.13444 36.7022 9.26713C36.1493 9.74098 35.5742 10.1894 34.9832 10.6124C34.2512 8.97501 33.2775 7.45702 32.0949 6.10918L33.5502 4.89116C33.6711 4.78884 33.7911 4.68504 33.9114 4.58093C34.0977 4.41971 34.2849 4.25774 34.478 4.09929C34.582 4.00781 34.6948 3.92685 34.8148 3.85759C34.895 3.81433 34.9889 3.80443 35.0764 3.83002C35.1638 3.85562 35.2376 3.91465 35.2819 3.99434C35.3096 4.04501 35.3238 4.10196 35.3232 4.15971C35.3273 4.26651 35.3177 4.3734 35.2946 4.47773C35.2683 4.6416 35.2422 4.80592 35.2161 4.97053C35.122 5.56303 35.0273 6.15926 34.9228 6.75159C34.8992 6.90184 34.8872 7.05355 34.8741 7.21942C34.8678 7.29929 34.8612 7.38245 34.8529 7.47031C35.0437 7.54123 35.2272 7.59968 35.407 7.65694C35.5416 7.69982 35.6742 7.74204 35.8061 7.78834C35.9688 7.84539 36.1509 7.90068 36.3333 7.95606C36.4966 8.00563 36.6601 8.05529 36.8102 8.10636Z" fill="white"/>
<path d="M56.388 3.98771L57.3647 3C57.4956 3.07692 57.6193 3.16616 57.7341 3.26657C57.9256 3.40967 58.1226 3.564 58.3277 3.73236C58.5329 3.90072 58.7108 4.05786 58.8749 4.20938C59.0391 4.3609 59.1157 4.45911 59.1157 4.50682C59.1136 4.5549 59.0966 4.60104 59.067 4.63843C59.0375 4.67582 58.997 4.70247 58.9515 4.71446C58.9049 4.73002 58.8643 4.76048 58.8358 4.80137C58.8072 4.84226 58.7922 4.89145 58.7928 4.94174V10.2507C58.7864 10.2883 58.7714 10.3239 58.7491 10.3545C58.7292 10.3931 58.7033 10.4282 58.6725 10.4583C58.5808 10.5209 58.4773 10.5629 58.3688 10.5818C58.1992 10.6295 58.0131 10.6744 57.8216 10.7193C57.6301 10.7642 57.4249 10.8006 57.2362 10.8343C57.1148 10.8545 56.9924 10.8676 56.8695 10.8736C56.8214 10.8794 56.7727 10.8702 56.7297 10.8472C56.6868 10.8242 56.6516 10.7884 56.6288 10.7445C56.5873 10.6611 56.5604 10.5709 56.5495 10.478C56.5412 10.3837 56.5275 10.29 56.5084 10.1974C56.5077 10.1787 56.5034 10.1603 56.4957 10.1434C56.488 10.1265 56.4771 10.1113 56.4636 10.0987C56.45 10.0862 56.4342 10.0765 56.417 10.0703C56.3998 10.0641 56.3816 10.0615 56.3634 10.0627C56.2254 10.0622 56.0875 10.0697 55.9503 10.0851C55.7424 10.1048 55.529 10.0851 55.3156 10.0851C55.1227 10.0874 54.9299 10.0771 54.7383 10.0543C54.5687 10.029 54.4648 9.9813 54.4648 9.91115C54.4648 9.8887 54.4866 9.87186 54.5304 9.86345C54.5837 9.84746 54.6391 9.83989 54.6946 9.841H54.9682C55.0836 9.84049 55.1989 9.84988 55.3129 9.86906C55.4942 9.89367 55.6771 9.90492 55.86 9.90273C56.0276 9.91123 56.1956 9.89993 56.3607 9.86906C56.5084 9.83819 56.585 9.78488 56.585 9.7035V4.56013C56.5881 4.5402 56.5873 4.51984 56.5826 4.50024C56.5779 4.48064 56.5695 4.4622 56.5578 4.44599C56.5461 4.42979 56.5313 4.41615 56.5144 4.40587C56.4974 4.3956 56.4787 4.3889 56.4592 4.38616H54.2295C54.2103 4.38339 54.1907 4.38453 54.1719 4.38951C54.1531 4.3945 54.1355 4.40324 54.12 4.41522C54.1045 4.42721 54.0914 4.44221 54.0816 4.45937C54.0717 4.47653 54.0653 4.49552 54.0626 4.51523C54.0599 4.53007 54.0599 4.5453 54.0626 4.56013C54.0626 5.72742 54.0699 6.88816 54.0845 8.04236C54.0991 9.19656 54.1082 10.3582 54.1118 11.5274C54.1118 12.3243 54.0954 13.1268 54.0681 13.9265C54.0407 14.7262 54.0243 15.5287 54.0243 16.3284C54.0243 16.4659 54.0243 16.6343 54.0407 16.8307C54.0571 17.0271 54.0626 17.2292 54.0626 17.4312C54.0666 17.6241 54.0593 17.8172 54.0407 18.0092C54.0353 18.1683 54.0133 18.3264 53.975 18.4806C53.9409 18.5658 53.8869 18.6411 53.8177 18.6998C53.7485 18.7586 53.6663 18.7989 53.5784 18.8174C53.3527 18.8939 53.1198 18.9457 52.8835 18.9717C52.6613 19.0026 52.4365 19.0082 52.2132 18.9885C52.0107 18.9717 51.8986 18.9464 51.8767 18.9128C51.8575 18.8045 51.8492 18.6945 51.852 18.5845V17.8717C51.852 17.5911 51.852 17.2797 51.8767 16.943C51.9013 16.6062 51.8986 16.2864 51.9095 15.9805C51.9204 15.6746 51.9286 15.4025 51.9369 15.1808C51.9451 14.9591 51.9369 14.7823 51.9369 14.6925C51.9408 14.6691 51.9356 14.645 51.9222 14.6255C51.9089 14.6061 51.8886 14.5928 51.8657 14.5887H51.8356C51.7755 14.585 51.7159 14.6018 51.666 14.6364C51.5292 14.7543 51.3924 14.8777 51.2748 15.004L50.9 15.3884C50.3607 15.88 49.7834 16.3257 49.1737 16.7213C48.5614 17.1247 47.9213 17.482 47.2586 17.7904C47.0644 17.8802 46.8674 17.9615 46.6649 18.0317C46.4655 18.1099 46.2546 18.1526 46.0412 18.1579C46.0066 18.1548 45.9726 18.1472 45.9399 18.1355C45.9312 18.1359 45.9225 18.1344 45.9144 18.1312C45.9062 18.1279 45.8988 18.123 45.8926 18.1167C45.8865 18.1103 45.8816 18.1027 45.8785 18.0944C45.8753 18.086 45.8739 18.0771 45.8743 18.0682C45.8744 18.0433 45.8796 18.0187 45.8895 17.996C45.8994 17.9733 45.9138 17.953 45.9317 17.9363L46.022 17.8465C46.1669 17.7078 46.3184 17.5767 46.4762 17.4536C46.6321 17.3274 46.7962 17.2039 46.9522 17.0776C47.2504 16.8223 47.5568 16.5417 47.8769 16.2358C48.197 15.93 48.5089 15.6129 48.8153 15.2734C49.1128 14.9403 49.3914 14.5899 49.6497 14.224C49.8935 13.8789 50.106 13.5116 50.2844 13.1268C50.3287 13.0376 50.3627 12.9435 50.3856 12.8462C50.4103 12.7648 50.4376 12.675 50.4705 12.5656C50.5033 12.4562 50.5662 12.3888 50.6592 12.3888C50.7463 12.3883 50.8333 12.3958 50.9191 12.4113C51.0516 12.4284 51.1852 12.434 51.3186 12.4281C51.4366 12.4296 51.5543 12.4155 51.6687 12.386C51.7727 12.3552 51.8247 12.3018 51.8247 12.2205V4.56013C51.8274 4.54005 51.8262 4.51961 51.8212 4.5C51.8162 4.48039 51.8075 4.46198 51.7955 4.44582C51.7836 4.42966 51.7687 4.41608 51.7516 4.40584C51.7346 4.39561 51.7157 4.38892 51.6961 4.38616H49.6224C49.6029 4.38298 49.5831 4.38382 49.564 4.38862C49.5449 4.39342 49.5269 4.40208 49.5111 4.4141C49.4953 4.42613 49.482 4.44127 49.472 4.45863C49.4619 4.476 49.4554 4.49524 49.4527 4.51523C49.45 4.53007 49.45 4.5453 49.4527 4.56013V9.7007C49.4496 9.72079 49.4504 9.74131 49.4551 9.76109C49.4597 9.78086 49.4681 9.7995 49.4798 9.81593C49.4915 9.83236 49.5063 9.84625 49.5232 9.85682C49.5402 9.86738 49.559 9.8744 49.5786 9.87748H51.3487C51.4061 9.87748 51.4362 9.87748 51.4362 9.92798C51.4362 10.0543 51.3788 10.1188 51.2638 10.1188H49.6825C49.6278 10.1188 49.5731 10.1581 49.5157 10.2394C49.3874 10.4308 49.2417 10.6093 49.0807 10.7726C48.9624 10.8906 48.8243 10.9856 48.673 11.0532C48.5201 11.1208 48.3575 11.1625 48.1915 11.1766C48.0137 11.1935 47.7866 11.2019 47.5185 11.2019C47.4715 11.2018 47.4247 11.1962 47.379 11.1851C47.3576 11.178 47.3393 11.1635 47.3273 11.144C47.3152 11.1245 47.3103 11.1013 47.3133 11.0784V3.39284C47.3133 3.34949 47.3217 3.30658 47.3379 3.26657C47.3467 3.24499 47.3622 3.22698 47.382 3.21531C47.4018 3.20365 47.4248 3.19898 47.4474 3.20203C47.5529 3.22723 47.653 3.27192 47.7428 3.33391C47.896 3.4237 48.0739 3.51911 48.2763 3.61451C48.4878 3.72117 48.7052 3.81486 48.9275 3.89511C49.1297 3.97692 49.3447 4.02065 49.5622 4.02419H56.2704L56.388 3.98771ZM49.9862 7.16409C49.954 7.16137 49.9225 7.15282 49.8932 7.13883C49.8768 7.13355 49.8625 7.12313 49.8521 7.10903C49.8418 7.09494 49.8361 7.07788 49.8357 7.06026C49.921 7.04109 50.0085 7.03448 50.0956 7.04062H51.19C51.2816 7.03448 51.3736 7.04109 51.4636 7.06026L51.4335 7.11358L51.3131 7.16409H49.9862ZM54.4921 7.11358L54.4593 7.06026C54.5495 7.04331 54.6412 7.03672 54.7329 7.04062H55.8272C55.9333 7.03729 56.0396 7.04386 56.1446 7.06026C56.1227 7.09425 56.0897 7.11913 56.0515 7.13041C56.017 7.14748 55.9801 7.15884 55.9421 7.16409H54.5906L54.4921 7.11358ZM55.0201 12.6021C54.9704 12.5968 54.9226 12.5795 54.8806 12.5516C54.8335 12.5286 54.7901 12.4983 54.752 12.4618C54.7301 12.4393 54.7329 12.4253 54.752 12.4253H57.3538C57.4289 12.4123 57.5006 12.3834 57.5642 12.3404C57.6278 12.2974 57.6819 12.2413 57.7231 12.1756C57.8654 11.9988 57.9967 11.8136 58.1226 11.6144L58.4755 11.0532C58.5822 10.8848 58.6643 10.7726 58.7217 10.7726C58.8255 10.7978 58.9238 10.8425 59.0117 10.9045C59.1813 11.005 59.3457 11.1146 59.5041 11.2328C59.682 11.3646 59.868 11.5134 60.0513 11.6705C60.2346 11.8276 60.396 11.9707 60.5273 12.1054C60.6298 12.1938 60.7096 12.3065 60.7599 12.4337C60.7927 12.5207 60.738 12.5628 60.604 12.5628L55.0201 12.6021ZM45.4748 12.4786H50.0601C50.0897 12.4751 50.1196 12.482 50.1449 12.4983C50.1449 12.5179 50.1066 12.5432 50.03 12.5684C49.9802 12.585 49.9288 12.5963 49.8768 12.6021H45.4748L45.4092 12.5291L45.4748 12.4786ZM54.7766 13.4888C54.7763 13.4477 54.7828 13.4069 54.7958 13.3681C54.7958 13.3232 54.8396 13.298 54.897 13.298C54.9661 13.306 55.0325 13.33 55.0913 13.3681C55.1866 13.4146 55.2781 13.4691 55.3648 13.5309L55.6111 13.7133L55.7998 13.8536C56.1473 14.1201 56.5002 14.3586 56.8395 14.6112C57.193 14.8608 57.5675 15.0777 57.9584 15.2594C58.0605 15.3043 58.2603 15.3744 58.5576 15.4698C58.8585 15.5624 59.1649 15.6578 59.4823 15.7504C59.7996 15.843 60.0787 15.9552 60.3249 16.0619C60.5711 16.1685 60.697 16.2527 60.697 16.3425C60.697 16.4323 60.6505 16.4575 60.5574 16.5445L60.2346 16.8251L59.879 17.131C59.7941 17.1932 59.7169 17.2657 59.6491 17.347C59.597 17.4156 59.558 17.4936 59.5342 17.5771C59.4877 17.7006 59.4358 17.8212 59.3865 17.9391C59.3373 18.0569 59.2853 18.172 59.236 18.2702C59.1868 18.3684 59.143 18.4217 59.1102 18.4217C59.0573 18.4222 59.005 18.4107 58.957 18.388C58.6305 18.2137 58.3232 18.004 58.0405 17.7623C57.6921 17.4723 57.3392 17.1543 56.9817 16.8083C56.6233 16.4575 56.2896 16.1124 55.9804 15.7672C55.7285 15.4873 55.4954 15.1901 55.2828 14.8777C55.1395 14.6719 55.015 14.4531 54.9107 14.224C54.8167 13.9899 54.7693 13.739 54.7712 13.486L54.7766 13.4888Z" fill="white"/>
<path d="M83.2171 16.8473C83.2683 16.8001 83.3345 16.7727 83.4039 16.7699C83.5154 16.7507 83.6286 16.7424 83.7418 16.7451H84.3764C84.4058 16.7435 84.4346 16.7356 84.4607 16.7217C84.4868 16.7079 84.5095 16.6885 84.5274 16.6649C84.5743 16.6148 84.6067 16.5527 84.6209 16.4853C84.6305 16.4512 84.631 16.4151 84.6221 16.3808C84.6133 16.3464 84.5955 16.3151 84.5705 16.29C84.5456 16.2649 84.5144 16.247 84.4803 16.2381C84.4462 16.2292 84.4103 16.2296 84.3764 16.2394H79.7063C79.6727 16.2417 79.6399 16.2512 79.6101 16.267C79.5939 16.2717 79.5795 16.2814 79.5692 16.2949C79.5588 16.3083 79.5529 16.3246 79.5524 16.3416C79.5524 16.4687 79.6376 16.5765 79.8134 16.6677C79.9892 16.7589 80.1733 16.8529 80.3821 16.944C80.5908 17.0352 80.7831 17.1347 80.9535 17.2204C81.1238 17.306 81.2144 17.4249 81.2144 17.5382C81.2144 17.5713 81.1925 17.5907 81.154 17.6045C81.124 17.6161 81.0926 17.6235 81.0606 17.6266C80.5599 17.6868 80.0634 17.7791 79.5744 17.9029C79.0937 18.019 78.6129 18.1793 78.1377 18.3147C77.6624 18.4501 77.113 18.6187 76.5938 18.7568C76.0775 18.8946 75.5456 18.9643 75.0114 18.9641H74.8659C74.7944 18.9641 74.756 18.9447 74.756 18.9088C74.756 18.8729 74.7972 18.8314 74.8741 18.7927C74.9278 18.7683 74.9785 18.7377 75.0252 18.7016C75.1955 18.6104 75.4812 18.4805 75.8768 18.3174C76.2724 18.1544 76.6789 17.9665 77.0938 17.7648C77.4762 17.5804 77.8436 17.3661 78.1926 17.1237C78.503 16.9026 78.6596 16.6898 78.6596 16.4853C78.6598 16.4675 78.6543 16.4501 78.644 16.4356C78.6336 16.4212 78.6188 16.4105 78.6019 16.4052C78.5723 16.3924 78.5407 16.3849 78.5085 16.3831C78.3634 16.3814 78.2189 16.4019 78.08 16.4439L77.6816 16.5599L77.2833 16.6815C77.1451 16.7177 77.003 16.7363 76.8603 16.7368C76.8413 16.7399 76.8219 16.7393 76.8032 16.7349C76.7845 16.7305 76.7669 16.7224 76.7513 16.7111C76.7357 16.6998 76.7225 16.6855 76.7125 16.669C76.7024 16.6526 76.6957 16.6343 76.6927 16.6152C76.69 16.5997 76.69 16.5838 76.6927 16.5682V10.5164C76.6872 10.4331 76.6927 10.3495 76.7092 10.2677C76.8163 9.87807 76.9124 9.5133 76.9839 9.16235C77.0553 8.8114 77.1212 8.48532 77.1652 8.16477C77.2091 7.84421 77.2366 7.50155 77.2503 7.15613C77.2641 6.81071 77.2668 6.42107 77.2668 6.01209V5.6943C77.2667 5.58203 77.2557 5.47003 77.2339 5.35993C77.1779 5.30347 77.1152 5.25427 77.0471 5.21347C76.9776 5.17448 76.9183 5.11957 76.874 5.0532C76.8778 5.03787 76.8866 5.0243 76.8991 5.01474C76.9116 5.00519 76.927 5.00023 76.9427 5.00069H80.3793C80.5029 5.00069 80.5689 4.89568 80.5744 4.6829C80.579 4.45503 80.5698 4.22709 80.5469 4.00035C80.5249 3.77262 80.5166 3.54376 80.5222 3.31503C80.5222 3.10501 80.5881 3 80.7172 3C81.1359 3.00099 81.5542 3.02683 81.9699 3.07737C82.3847 3.12712 82.794 3.17962 83.2198 3.23765L83.272 3.29292L83.2336 3.37306C83.1893 3.42077 83.1415 3.4651 83.0907 3.5057C83.0404 3.54376 82.9984 3.59171 82.9671 3.64663C82.9209 3.7074 82.8932 3.78036 82.8874 3.85665C82.8709 3.95889 82.8572 4.06667 82.8435 4.18273C82.8297 4.29879 82.8215 4.40656 82.816 4.51433C82.8105 4.62211 82.816 4.70224 82.816 4.76028L82.8709 4.8791L82.9726 4.94819H86.4916C86.6019 4.89176 86.7044 4.82116 86.7966 4.73817L87.1729 4.39551C87.2938 4.27392 87.4092 4.16891 87.5081 4.08048C87.5714 4.00846 87.6562 3.95902 87.7498 3.93955C87.7828 3.93955 87.8789 4.01416 88.0438 4.16062C88.2086 4.30708 88.3844 4.47288 88.5657 4.65803C88.747 4.84318 88.9146 5.01727 89.0602 5.18307C89.1452 5.26505 89.2191 5.35797 89.28 5.45941C89.28 5.5285 89.1289 5.63351 88.8349 5.78549C88.541 5.93748 88.2168 6.10881 87.8624 6.31054C87.5161 6.50637 87.1879 6.73295 86.8817 6.98756C86.7581 7.07078 86.6545 7.1807 86.5785 7.30929C86.5024 7.43789 86.4559 7.58193 86.4422 7.73092C86.4344 7.78187 86.4397 7.83396 86.4575 7.8823C86.4753 7.93064 86.505 7.97364 86.5438 8.00725C86.5872 8.03415 86.6371 8.0484 86.6881 8.0484C86.739 8.0484 86.7889 8.03415 86.8323 8.00725C86.9234 7.95157 87.0035 7.87943 87.0685 7.79447C87.1592 7.68394 87.2526 7.57064 87.3432 7.45181C87.4339 7.33299 87.5383 7.22522 87.6179 7.13126C87.6976 7.03731 87.769 6.98204 87.8157 6.98204C87.9324 7.02088 88.0406 7.08185 88.1344 7.16166C88.3075 7.28048 88.4833 7.41036 88.6838 7.55406C88.8588 7.6771 89.0276 7.80899 89.1893 7.94922C89.3376 8.08463 89.4091 8.17029 89.4091 8.21174C89.4091 8.25319 89.3843 8.29465 89.3431 8.29465H86.4147C86.3748 8.28981 86.3346 8.3006 86.3024 8.32478C86.2702 8.34896 86.2484 8.38467 86.2417 8.42453V9.83385C86.2421 9.87809 86.2281 9.92126 86.2018 9.95671C86.1755 9.99217 86.1384 10.0179 86.0961 10.0301C86.0474 10.0563 86.0077 10.0968 85.9822 10.146C85.9568 10.1953 85.9466 10.2512 85.9532 10.3064C85.9552 10.3805 85.973 10.4534 86.0052 10.5201C86.0374 10.5868 86.0834 10.6458 86.14 10.6933C86.2685 10.8166 86.4042 10.9319 86.5466 11.0387L86.9586 11.315C87.0795 11.4007 87.1454 11.4725 87.1454 11.5306C87.1392 11.5754 87.1235 11.6183 87.0993 11.6565C87.0752 11.6946 87.0431 11.7271 87.0053 11.7516C86.9626 11.7835 86.928 11.8252 86.9046 11.8733C86.8811 11.9214 86.8695 11.9744 86.8707 12.028V15.8967C86.8738 15.9648 86.8548 16.032 86.8167 16.0883C86.7785 16.1446 86.7233 16.1869 86.6592 16.209C86.5088 16.2644 86.3545 16.3088 86.1977 16.3416C86.0433 16.3724 85.891 16.413 85.7417 16.4632C85.6802 16.4778 85.6256 16.5132 85.5871 16.5636C85.5486 16.6139 85.5285 16.6761 85.5301 16.7396C85.5277 16.7556 85.5314 16.772 85.5406 16.7854C85.5498 16.7987 85.5638 16.8081 85.5796 16.8114C85.608 16.8201 85.6355 16.8311 85.662 16.8446C85.8571 16.8888 86.1208 16.9385 86.4642 16.991C86.8053 17.044 87.1429 17.1178 87.4751 17.2121C87.7839 17.2981 88.077 17.4334 88.3432 17.6128C88.4562 17.6841 88.5492 17.7831 88.6136 17.9006C88.678 18.0181 88.7116 18.1501 88.7113 18.2843C88.7191 18.4209 88.6726 18.5551 88.5822 18.6573C88.4918 18.7524 88.3809 18.8252 88.258 18.8701C88.1274 18.9215 87.9908 18.9558 87.8515 18.9724C87.724 18.9898 87.5955 18.999 87.4669 19C87.3258 18.9724 87.1891 18.9259 87.0603 18.8618C86.8433 18.7706 86.585 18.6546 86.2774 18.5109C85.9697 18.3672 85.6538 18.2124 85.3104 18.0411C84.967 17.8698 84.6428 17.7067 84.3461 17.5465C84.0495 17.3862 83.7967 17.2425 83.5934 17.1181C83.4597 17.0401 83.3337 16.9494 83.2171 16.8473ZM74.0527 6.36304C74.1051 6.20003 74.1944 6.05151 74.3137 5.92919C74.5053 5.68621 74.7098 5.45375 74.9263 5.23281C75.1598 4.99516 75.3823 4.77962 75.5938 4.58895C75.8054 4.39827 75.94 4.31261 76.0087 4.31261C76.0279 4.31261 76.0663 4.3513 76.1185 4.42591C76.1752 4.51439 76.2257 4.60673 76.2696 4.70225C76.3175 4.79121 76.3588 4.88357 76.3932 4.97858C76.4222 5.03365 76.4408 5.0936 76.4482 5.15544C76.4482 5.88497 76.3246 6.4266 76.0718 6.77478C75.8865 7.07728 75.5906 7.29457 75.2477 7.37997C75.1044 7.40897 74.9565 7.40646 74.8143 7.37259C74.672 7.33872 74.5387 7.27431 74.4236 7.18376C74.3019 7.09274 74.2042 6.97311 74.1391 6.83534C74.0739 6.69757 74.0433 6.54585 74.05 6.39344L74.0527 6.36304ZM86.5576 5.18584H85.9422C85.8256 5.18791 85.7091 5.19621 85.5933 5.21071C85.5215 5.21576 85.451 5.23256 85.3846 5.26045C85.2582 5.32953 85.2335 5.43731 85.3131 5.57824C85.4069 5.74457 85.5297 5.89249 85.6757 6.01485C85.839 6.15541 86.0136 6.28204 86.1977 6.39344C86.3194 6.48152 86.461 6.53757 86.6098 6.55648C86.6784 6.55648 86.7279 6.5095 86.7609 6.41554C86.7971 6.30873 86.8229 6.19859 86.8378 6.0867C86.8542 5.96859 86.8625 5.84948 86.8625 5.73022V5.46218C86.8625 5.30466 86.8488 5.21623 86.8158 5.18584C86.7308 5.16649 86.6426 5.16649 86.5576 5.18584ZM84.283 6.41831C84.3626 6.41831 84.445 6.36028 84.5439 6.24145C84.6363 6.12398 84.7112 5.99367 84.7665 5.85458C84.8197 5.73205 84.8513 5.60114 84.8599 5.4677C84.8599 5.34888 84.8159 5.28808 84.717 5.28808H77.6047C77.5765 5.29057 77.5487 5.29709 77.5223 5.30743C77.5082 5.30741 77.4946 5.31285 77.4844 5.32262C77.4742 5.3324 77.4681 5.34576 77.4674 5.35993C77.4674 5.47323 77.5553 5.59482 77.7283 5.72193C77.9188 5.85633 78.1211 5.97288 78.3327 6.07012C78.5517 6.17307 78.7775 6.26079 79.0085 6.33264C79.169 6.38886 79.3362 6.42325 79.5057 6.43489L84.283 6.41831ZM80.5441 9.62936C80.6101 9.18354 80.665 8.73863 80.709 8.29465C80.7552 7.8448 80.7781 7.39283 80.7776 6.94059C80.7804 6.92117 80.7792 6.90141 80.7744 6.88243C80.7695 6.86344 80.7609 6.84562 80.7492 6.82996C80.7374 6.81431 80.7228 6.80113 80.706 6.79119C80.6892 6.78125 80.6706 6.77473 80.6513 6.77202C80.6367 6.76926 80.6218 6.76926 80.6073 6.77202H79.1706C79.1376 6.77202 79.1074 6.83834 79.0827 6.96822C79.0672 7.05037 79.0571 7.13345 79.0525 7.21693C79.0057 7.61485 78.9536 8.01002 78.8959 8.39689C78.841 8.78779 78.8135 9.18208 78.8135 9.57686C78.8079 9.61639 78.8181 9.65651 78.8417 9.68857C78.8654 9.72063 78.9006 9.74204 78.9398 9.74819H80.2557C80.3017 9.73988 80.3468 9.72692 80.3903 9.7095C80.4393 9.68716 80.4862 9.66033 80.5304 9.62936H80.5441ZM82.382 9.6791L82.4836 9.74819H84.1511C84.195 9.74819 84.2253 9.67634 84.25 9.53541C84.263 9.44707 84.2804 9.35945 84.3022 9.27288C84.4385 8.5049 84.5065 7.72623 84.5055 6.94611C84.5082 6.9267 84.5071 6.90693 84.5022 6.88795C84.4973 6.86897 84.4888 6.85114 84.477 6.83549C84.4653 6.81983 84.4506 6.80666 84.4338 6.79672C84.417 6.78677 84.3984 6.78026 84.3791 6.77755H82.8215C82.8007 6.77514 82.7796 6.7782 82.7604 6.78644C82.7411 6.79467 82.7243 6.8078 82.7116 6.82453C82.6897 6.85798 82.6704 6.89309 82.6539 6.92953C82.5986 7.08792 82.5609 7.25195 82.5413 7.41865C82.5001 7.66459 82.4671 7.92712 82.4369 8.20622C82.4067 8.48532 82.3847 8.75889 82.3655 9.02142C82.3462 9.28394 82.3325 9.45527 82.3325 9.54646L82.382 9.6791ZM79.4892 8.1399H80.1458C80.2145 8.1399 80.2474 8.16753 80.2474 8.20069C80.2474 8.23385 80.2117 8.24214 80.1376 8.25872C80.0516 8.27536 79.9642 8.28369 79.8766 8.28359C79.7848 8.28337 79.6931 8.27783 79.6019 8.26701C79.5351 8.26523 79.4706 8.24199 79.4178 8.20069L79.4892 8.1399ZM74.2368 8.1399H76.6158L76.6707 8.1924L76.6158 8.25872H74.2368L74.1708 8.1924L74.2368 8.1399ZM82.9451 8.24214C82.9458 8.22552 82.9517 8.20955 82.9621 8.19661C82.9725 8.18367 82.9868 8.17444 83.0028 8.17029C83.0313 8.15321 83.0632 8.14282 83.0962 8.1399H83.8407C83.8737 8.14282 83.9056 8.15321 83.9341 8.17029C83.9753 8.17029 83.9973 8.20898 83.9973 8.24214C83.9388 8.2614 83.8774 8.26983 83.8159 8.26701H83.1209C83.0622 8.27003 83.0034 8.26158 82.9479 8.24214H82.9451ZM79.0992 9.97202C78.9979 9.98131 78.8981 10.0036 78.8025 10.0383C78.6531 10.0842 78.5072 10.1405 78.3657 10.2069C78.226 10.2698 78.091 10.3427 77.9618 10.4252C77.8492 10.4998 77.7888 10.5606 77.7888 10.6021C77.7888 10.6435 77.83 10.6822 77.9151 10.7402C78.0109 10.8034 78.111 10.8597 78.2146 10.9088C78.33 10.9678 78.4371 11.0175 78.536 11.058C78.601 11.0861 78.6693 11.1056 78.7393 11.1161H84.4176C84.4633 11.0944 84.5058 11.0665 84.5439 11.0332C84.624 10.9728 84.6994 10.9063 84.7692 10.8342L84.9725 10.6297C85.0357 10.5661 85.0659 10.5247 85.0659 10.4998C85.0659 10.475 85.0137 10.4003 84.9038 10.3396C84.7832 10.271 84.6584 10.2101 84.5302 10.1572C84.3956 10.1047 84.258 10.0604 84.1181 10.0245C84.0334 9.99698 83.9459 9.97936 83.8572 9.97202H79.0992ZM78.7228 15.8387C78.7197 15.8577 78.7203 15.8772 78.7247 15.8961C78.7291 15.9149 78.7371 15.9326 78.7484 15.9483C78.7596 15.9639 78.7738 15.9772 78.7902 15.9873C78.8065 15.9975 78.8247 16.0042 78.8437 16.0073H84.5522C84.5915 16.0128 84.6314 16.0026 84.6632 15.9788C84.6951 15.955 84.7164 15.9196 84.7225 15.8801C84.7252 15.8665 84.7252 15.8524 84.7225 15.8387V11.6356C84.7272 11.5965 84.7167 11.5571 84.6932 11.5256C84.6696 11.4942 84.6348 11.4732 84.5961 11.467H78.8821C78.8437 11.4622 78.8048 11.4724 78.7736 11.4955C78.7425 11.5187 78.7213 11.553 78.7146 11.5914C78.7118 11.606 78.7118 11.621 78.7146 11.6356L78.7228 15.8387ZM79.1156 12.8266H84.3352L84.3901 12.8791L84.3352 12.9288H79.1156L79.0634 12.8791L79.1156 12.8266ZM79.1294 14.4183H84.3297L84.3846 14.468L84.3297 14.5371H79.1101L79.0415 14.468L79.1294 14.4183Z" fill="white"/>
<path d="M49.0083 32.999C49.4382 33.0103 49.8652 32.9264 50.2588 32.7532C50.6524 32.5801 51.0028 32.3219 51.2848 31.9973C51.898 31.3021 52.2385 30.4082 52.2433 29.4812V29.4141C52.2508 29.2952 52.2137 29.1778 52.1392 29.0848C52.0648 28.9917 51.9584 28.9297 51.8407 28.9109H48.1073C47.9843 28.9108 47.8659 28.9579 47.7766 29.0427C47.6874 29.1275 47.6342 29.2433 47.6281 29.3662C47.6259 29.3837 47.6259 29.4014 47.6281 29.4189C47.6281 29.7592 47.7862 29.9269 48.1073 29.9269H51.2321C50.9589 31.2689 50.1969 31.935 48.9556 31.935C48.6012 31.9359 48.251 31.858 47.9303 31.7072C47.6096 31.5564 47.3263 31.3363 47.1009 31.0628C46.5898 30.4889 46.3172 29.7414 46.3389 28.9732C46.3205 28.2156 46.5932 27.4798 47.1009 26.9172C47.3301 26.6429 47.6167 26.4222 47.9405 26.2706C48.2642 26.1191 48.6173 26.0404 48.9748 26.0401C49.4031 26.0468 49.8214 26.1711 50.184 26.3993C50.5465 26.6274 50.8395 26.9508 51.0308 27.3341C51.0683 27.4272 51.1358 27.5052 51.2227 27.5555C51.3095 27.6059 51.4106 27.6258 51.5101 27.6121C51.8312 27.6121 51.9893 27.4348 51.9893 27.0801L51.951 26.8501L51.8551 26.7111C51.58 26.1949 51.1699 25.7631 50.6685 25.4617C50.1671 25.1604 49.5933 25.0008 49.0083 25.0002C48.5225 24.9955 48.0418 25.0988 47.6008 25.3027C47.1599 25.5066 46.7697 25.806 46.4587 26.1791C45.7815 26.9675 45.4092 27.9723 45.4092 29.0116C45.4092 30.0508 45.7815 31.0556 46.4587 31.844C46.7718 32.213 47.1629 32.508 47.6038 32.7078C48.0447 32.9075 48.5244 33.0069 49.0083 32.999Z" fill="white"/>
<path d="M59.4497 31.9039C59.0787 31.909 58.7107 31.8369 58.3692 31.6919C58.0277 31.547 57.7201 31.3325 57.4661 31.0621C56.9404 30.5065 56.6553 29.7658 56.6727 29.0011C56.6652 28.6212 56.7337 28.2437 56.8741 27.8906C57.0145 27.5375 57.224 27.216 57.4903 26.945C57.9727 26.4231 58.6423 26.1138 59.3524 26.0848C60.0624 26.0558 60.755 26.3094 61.2784 26.7902C61.3365 26.8385 61.3848 26.8918 61.4381 26.945C61.7043 27.216 61.9138 27.5375 62.0542 27.8906C62.1946 28.2437 62.2631 28.6212 62.2557 29.0011C62.263 29.3839 62.1945 29.7643 62.0542 30.1205C61.9139 30.4767 61.7045 30.8016 61.4381 31.0766C61.1824 31.3452 60.8735 31.5575 60.5311 31.7C60.1887 31.8424 59.8204 31.9119 59.4497 31.9039ZM59.4497 25.005C58.9413 25 58.4376 25.1016 57.971 25.3033C57.5043 25.5049 57.0851 25.8022 56.7404 26.1758C56.0198 26.939 55.6184 27.949 55.6184 28.9987C55.6184 30.0484 56.0198 31.0583 56.7404 31.8216C57.404 32.5373 58.3245 32.9601 59.2997 32.9973C60.275 33.0345 61.225 32.683 61.9412 32.02C62.0089 31.9571 62.0718 31.8894 62.1347 31.8216C62.8553 31.0583 63.2567 30.0484 63.2567 28.9987C63.2567 27.949 62.8553 26.939 62.1347 26.1758C61.7952 25.8017 61.3806 25.5036 60.9178 25.301C60.4551 25.0984 59.9548 24.9959 59.4497 25.0001V25.005Z" fill="white"/>
<path d="M66.881 32.9605C66.9357 32.9865 66.9954 33 67.0559 33C67.1164 33 67.1762 32.9865 67.2308 32.9605C67.3367 32.8966 67.4178 32.7986 67.4608 32.6826L69.2195 27.5552C69.2673 27.4286 69.2673 27.2889 69.2195 27.1623C69.1756 27.0514 69.0918 26.9608 68.9847 26.9083C68.93 26.8823 68.8703 26.8689 68.8098 26.8689C68.7492 26.8689 68.6895 26.8823 68.6349 26.9083C68.5803 26.9368 68.5322 26.9762 68.4935 27.024C68.4547 27.0718 68.4262 27.127 68.4096 27.1863L66.6702 32.2945C66.6174 32.4234 66.6174 32.568 66.6702 32.697C66.6841 32.7536 66.7102 32.8064 66.7466 32.8519C66.783 32.8974 66.8289 32.9345 66.881 32.9605ZM71.5771 32.6826C71.6146 32.8017 71.6972 32.9014 71.8071 32.9605C71.8618 32.9865 71.9215 33 71.982 33C72.0425 33 72.1023 32.9865 72.1569 32.9605C72.2106 32.9396 72.2588 32.9067 72.2978 32.8644C72.3368 32.822 72.3657 32.7713 72.3821 32.7161C72.43 32.5875 72.4399 32.4478 72.4109 32.3136L69.9766 25.3318C69.9602 25.2706 69.9319 25.2132 69.8933 25.1631C69.8546 25.1129 69.8064 25.0709 69.7514 25.0395C69.6967 25.0135 69.637 25 69.5765 25C69.516 25 69.4562 25.0135 69.4016 25.0395C69.3447 25.0605 69.2928 25.0931 69.2491 25.1352C69.2054 25.1772 69.1708 25.2278 69.1476 25.2839C69.1045 25.4129 69.1045 25.5525 69.1476 25.6816L71.5771 32.6826Z" fill="white"/>
<path d="M76.8999 25.468C76.8796 25.3356 76.8119 25.2152 76.7094 25.1291C76.6069 25.043 76.4765 24.9972 76.3427 25.0001C76.2088 25.0031 76.0806 25.0546 75.982 25.1451C75.8833 25.2356 75.8209 25.3589 75.8065 25.492V32.4557C75.7888 32.5746 75.8165 32.6958 75.884 32.7953C75.9515 32.8948 76.0539 32.9653 76.171 32.9928C76.2281 33.0024 76.2864 33.0024 76.3436 32.9928H79.931C80.3003 32.9928 80.4873 32.8154 80.4873 32.4557C80.4873 32.096 80.3003 31.9233 79.931 31.9233H76.8999V25.468Z" fill="white"/>
<path d="M88.5299 26.0512C88.6005 26.0566 88.6714 26.0464 88.7375 26.0212C88.8037 25.996 88.8635 25.9565 88.9126 25.9056C88.9617 25.8546 88.999 25.7934 89.0217 25.7264C89.0444 25.6593 89.0521 25.5881 89.0441 25.5178C89.0545 25.3991 89.0205 25.2807 88.9485 25.1857C88.8766 25.0907 88.7719 25.0258 88.6548 25.0036C88.6133 24.9988 88.5714 24.9988 88.5299 25.0036H86.0743C85.7985 24.9969 85.5242 25.0472 85.2687 25.1513C85.0131 25.2555 84.7819 25.4114 84.5894 25.6091C84.3376 25.8381 84.1417 26.1218 84.0167 26.4383C83.8918 26.7549 83.8411 27.0959 83.8686 27.4352C83.8587 27.7923 83.9466 28.1453 84.1228 28.4562C84.2989 28.767 84.5567 29.0238 84.8681 29.1988C85.1241 29.33 85.3976 29.4239 85.6803 29.4775C85.9099 29.5215 86.1432 29.544 86.3771 29.5448L87.1363 29.5688H87.2997C87.4604 29.5766 87.617 29.6227 87.7562 29.7033C87.9567 29.8109 88.1184 29.9786 88.2184 30.183C88.3184 30.3873 88.3517 30.6179 88.3137 30.8422C88.28 31.5679 87.7082 31.9379 86.5933 31.9571H84.9979C84.8786 31.9482 84.7602 31.9842 84.666 32.058C84.5718 32.1317 84.5085 32.238 84.4885 32.356C84.4837 32.3926 84.4837 32.4298 84.4885 32.4665C84.4885 32.8221 84.6567 32.9999 84.9979 32.9999H86.9537C87.2014 33.0016 87.4488 32.9839 87.6938 32.947C87.9763 32.9177 88.2479 32.8222 88.4867 32.6683C88.7923 32.4896 89.0406 32.2274 89.2024 31.9124C89.3641 31.5974 89.4326 31.2428 89.3997 30.8903C89.4306 30.5535 89.3854 30.214 89.2672 29.8971C89.1491 29.5801 88.9612 29.2938 88.7173 29.0594C88.2886 28.6662 87.7225 28.4573 87.1411 28.4779H86.5597C85.5265 28.4779 84.9979 28.0791 84.9643 27.3198C84.9387 27.1338 84.9543 26.9444 85.0099 26.7651C85.0655 26.5857 85.1599 26.4208 85.2862 26.2819C85.3627 26.1964 85.4558 26.1275 85.56 26.0796C85.6642 26.0316 85.7771 26.0056 85.8917 26.0031L88.5299 26.0512Z" fill="white"/>
</svg>
