<svg width="500" height="490" viewBox="0 0 500 490" fill="none" xmlns="http://www.w3.org/2000/svg">
<path d="M126.136 68.1496C161.096 44.7861 202.193 32.3249 244.23 32.342C300.57 32.3649 354.595 54.7785 394.429 94.6559C400.672 100.906 406.487 107.504 411.854 114.406C411.118 119.257 410.256 124.062 409.393 128.866C408.779 132.288 408.164 135.709 407.596 139.146C407.086 140.311 406.418 141.401 405.611 142.385C405.38 141.541 405.264 140.669 405.266 139.794C405.474 136.019 405.729 132.229 405.984 128.441C406.152 125.946 406.32 123.451 406.474 120.964C406.821 118.532 406.994 116.078 406.992 113.622C407.033 112.593 406.778 111.574 406.259 110.685C405.559 109.518 404.426 108.676 403.108 108.344C401.789 108.012 400.393 108.217 399.225 108.914C398.251 109.383 397.326 109.947 396.464 110.599C394.981 111.798 393.491 112.987 392.003 114.177C387.86 117.487 383.721 120.795 379.721 124.289C378.303 125.58 377.182 127.164 376.437 128.931C375.692 130.699 375.34 132.607 375.406 134.525C375.379 137.119 375.298 139.712 375.202 142.307C354.079 114.976 324.921 94.809 291.697 84.7473C254.811 73.5765 215.195 75.5535 179.602 90.3415C144.009 105.129 114.641 131.813 96.5026 165.845C78.364 199.877 72.5774 239.152 80.1291 276.976C87.6808 314.8 108.103 348.832 137.917 373.274C167.73 397.715 205.088 411.053 243.626 411.015C287.773 410.97 330.096 393.386 361.296 362.126C388.532 334.837 405.471 298.94 409.226 260.552C411.834 233.887 407.97 207.167 398.184 182.59C402.63 183.659 407.077 184.704 411.523 185.703C414.744 186.397 418.109 185.792 420.887 184.018C428.243 179.277 435.599 174.467 442.802 169.496C451.872 193.389 456.653 218.948 456.658 245C456.666 287.074 444.208 328.205 420.858 363.191C397.508 398.177 364.316 425.446 325.479 441.549C286.643 457.652 243.908 461.866 202.679 453.656C161.45 445.447 123.58 425.184 93.8584 395.43C64.1369 365.677 43.8994 327.769 35.7057 286.502C27.5121 245.235 31.7304 202.463 47.827 163.596C63.9237 124.729 91.1755 91.513 126.136 68.1496Z" fill="#6B9C66"/>
<path d="M438.402 158.793C437.578 156.933 436.727 155.085 435.849 153.248C435.429 153.147 435.009 153.045 434.589 152.944C428.75 151.533 422.903 150.121 417.089 148.345C415.693 147.769 414.139 147.699 412.697 148.149C411.255 148.598 410.015 149.539 409.193 150.807L415.708 152.793L438.402 158.793Z" fill="#6B9C66"/>
<path d="M238.096 163.958C234.692 158.513 229.626 154.31 223.648 151.973C223 158.278 224.338 170.846 242.547 182.205C243.061 175.802 241.501 169.403 238.096 163.958Z" fill="#6B9C66"/>
<path fill-rule="evenodd" clip-rule="evenodd" d="M374.716 158.553C368.842 149.588 362.029 141.196 354.349 133.531C324.959 104.198 285.132 87.7468 243.626 87.7953C207.406 87.8376 172.322 100.449 144.351 123.48C116.38 146.512 97.2536 178.538 90.2311 214.102C83.2085 249.666 88.7243 286.567 105.838 318.517C122.953 350.466 150.606 375.488 184.087 389.318C217.568 403.148 254.804 404.93 289.45 394.361C324.097 383.792 354.009 361.525 374.092 331.356C394.174 301.186 403.182 264.981 399.582 228.908C397.872 211.769 393.365 195.164 386.355 179.709C385.684 179.544 385.012 179.379 384.341 179.214C382.83 178.843 381.319 178.472 379.808 178.102C378.564 177.67 377.365 177.12 376.226 176.46L308.533 230.471C316.411 242.767 320.692 257.159 320.692 271.993C320.683 287.199 316.169 302.061 307.72 314.699C299.272 327.337 287.268 337.184 273.227 342.993C259.187 348.802 243.74 350.313 228.842 347.335C213.943 344.357 200.262 337.024 189.528 326.262C178.794 315.501 171.49 301.795 168.539 286.878C165.589 271.961 167.125 256.504 172.953 242.461C178.781 228.418 188.639 216.42 201.28 207.985C213.921 199.55 228.778 195.058 243.971 195.075C264.33 195.109 283.844 203.228 298.228 217.649C300.089 219.515 301.844 221.466 303.49 223.494C311.428 217.252 319.334 210.99 327.208 204.705L366.69 172.962L367.424 172.401C373.292 169.723 374.586 164.713 374.716 158.926C374.716 158.802 374.716 158.677 374.716 158.553ZM266.403 147.635C273.594 143.529 281.733 141.377 290.012 141.392C290.624 141.409 291.227 141.546 291.786 141.796C292.345 142.046 292.85 142.404 293.27 142.849C293.691 143.294 294.02 143.818 294.238 144.391C294.457 144.963 294.56 145.573 294.543 146.186C294.549 146.794 294.433 147.398 294.203 147.961C293.973 148.524 293.634 149.036 293.204 149.466C292.774 149.896 292.263 150.237 291.7 150.467C291.137 150.697 290.534 150.813 289.926 150.807C280.589 150.765 271.556 154.125 264.513 160.261C257.471 166.396 252.899 174.887 251.652 184.148C251.485 185.148 251.384 186.158 251.35 187.171V187.689C251.254 188.357 251.003 188.993 250.616 189.547C250.577 190.154 250.4 190.745 250.099 191.274C249.774 191.999 249.256 192.621 248.601 193.071C247.947 193.52 247.181 193.78 246.388 193.822H245.956C245.233 193.826 244.521 193.648 243.885 193.304C232.666 187.689 218.47 177.583 215.018 161.777C213.705 155.939 214.125 149.844 216.226 144.242C216.671 143.238 217.456 142.422 218.443 141.94C219.429 141.458 220.554 141.341 221.62 141.608C227.766 142.858 233.498 145.638 238.287 149.692C243.076 153.745 246.767 158.941 249.02 164.8C253.22 157.659 259.212 151.741 266.403 147.635Z" fill="#6B9C66"/>
<path fill-rule="evenodd" clip-rule="evenodd" d="M295.614 229.823C288.588 221.142 279.477 214.336 269.094 210.066C256.871 205.04 243.432 203.756 230.48 206.377C217.527 208.997 205.641 215.403 196.327 224.786C187.013 234.169 180.689 246.106 178.155 259.086C175.621 272.067 176.991 285.509 182.091 297.71C187.192 309.912 195.794 320.325 206.808 327.632C217.823 334.939 230.756 338.813 243.971 338.761C261.668 338.681 278.611 331.58 291.084 319.015C303.557 306.45 310.543 289.446 310.508 271.733C310.476 259.385 307.029 247.305 300.572 236.823L286.697 247.894C286.505 248.348 286.223 248.759 285.87 249.103C285.517 249.464 285.09 249.743 284.619 249.923C284.368 250.029 284.109 250.111 283.844 250.17L274.018 258.01C274.407 258.192 274.755 258.453 275.039 258.777C275.412 259.125 275.707 259.546 275.908 260.015C276.109 260.483 276.209 260.988 276.204 261.498V261.584C276.208 262.1 276.106 262.611 275.906 263.086C275.705 263.561 275.411 263.991 275.039 264.348C274.7 264.735 274.27 265.032 273.788 265.212C273.318 265.383 272.821 265.471 272.321 265.471C271.806 265.476 271.294 265.388 270.81 265.212C270.328 265.032 269.898 264.735 269.559 264.348C269.2 263.985 268.907 263.561 268.696 263.096C268.602 262.881 268.528 262.659 268.475 262.433L247.725 278.989L247.812 268.365L262.483 256.617C276.267 245.603 284.178 239.189 295.614 229.823ZM289.15 232.13C289.154 232.663 289.051 233.192 288.847 233.685C288.656 234.138 288.377 234.548 288.028 234.894C287.68 235.292 287.233 235.59 286.733 235.758C286.267 235.949 285.77 236.051 285.266 236.06C284.763 236.046 284.267 235.943 283.799 235.758C283.299 235.59 282.852 235.292 282.504 234.894C282.155 234.548 281.876 234.138 281.684 233.685C281.481 233.192 281.378 232.663 281.382 232.13C281.375 231.624 281.478 231.123 281.684 230.661C281.873 230.183 282.158 229.748 282.522 229.384C282.886 229.02 283.32 228.734 283.799 228.545C284.267 228.36 284.763 228.257 285.266 228.243C285.77 228.252 286.267 228.354 286.733 228.545C287.212 228.734 287.646 229.02 288.01 229.384C288.374 229.748 288.659 230.183 288.847 230.661C289.054 231.123 289.157 231.624 289.15 232.13ZM298.34 250.269C298.547 249.807 298.65 249.306 298.642 248.8C298.646 248.285 298.544 247.774 298.344 247.298C298.143 246.823 297.849 246.394 297.477 246.036C297.135 245.662 296.705 245.38 296.226 245.216C295.765 245.009 295.264 244.906 294.759 244.913C294.239 244.905 293.724 245.008 293.248 245.216C292.777 245.396 292.35 245.676 291.997 246.036C291.638 246.399 291.345 246.823 291.134 247.289C290.748 248.245 290.748 249.313 291.134 250.269C291.314 250.751 291.61 251.182 291.997 251.521C292.346 251.908 292.772 252.217 293.248 252.428C293.732 252.604 294.244 252.692 294.759 252.687C295.259 252.687 295.755 252.599 296.226 252.428C296.702 252.217 297.128 251.908 297.477 251.521C297.864 251.182 298.161 250.751 298.34 250.269ZM290.659 264.78C290.887 264.326 290.991 263.819 290.961 263.312C290.995 262.804 290.891 262.296 290.659 261.843C290.491 261.342 290.193 260.895 289.796 260.548C289.254 259.975 288.546 259.587 287.771 259.44C286.997 259.293 286.195 259.393 285.481 259.727C285.01 259.907 284.583 260.187 284.23 260.548C283.845 260.898 283.562 261.345 283.41 261.843C283.199 262.303 283.096 262.806 283.108 263.312C283.142 264.337 283.54 265.317 284.23 266.076C284.583 266.436 285.01 266.716 285.481 266.896C286.2 267.205 286.995 267.293 287.764 267.146C288.533 267 289.24 266.627 289.796 266.076C290.175 265.712 290.47 265.27 290.659 264.78ZM306.107 268.926C306.315 268.45 306.418 267.934 306.409 267.415C306.418 266.895 306.315 266.379 306.107 265.903C305.927 265.431 305.648 265.004 305.287 264.651C304.901 264.3 304.465 264.008 303.993 263.787C303.524 263.61 303.027 263.522 302.526 263.528C302.025 263.528 301.529 263.616 301.059 263.787C300.587 264.008 300.15 264.3 299.764 264.651C299.404 265.004 299.124 265.431 298.944 265.903C298.556 266.873 298.556 267.956 298.944 268.926C299.124 269.398 299.404 269.825 299.764 270.179C300.143 270.527 300.582 270.805 301.059 270.999C301.52 271.206 302.021 271.309 302.526 271.301C303.037 271.306 303.545 271.208 304.019 271.016C304.492 270.823 304.924 270.539 305.287 270.179C305.648 269.825 305.927 269.398 306.107 268.926ZM285.266 278.125C285.282 278.643 285.187 279.158 284.986 279.635C284.785 280.112 284.483 280.54 284.101 280.889C283.775 281.262 283.359 281.544 282.892 281.71C282.173 282.019 281.378 282.106 280.61 281.96C279.841 281.814 279.133 281.441 278.577 280.889C278.036 280.327 277.67 279.619 277.525 278.852C277.379 278.085 277.46 277.292 277.758 276.57C277.937 276.099 278.217 275.671 278.577 275.318C278.956 274.977 279.376 274.687 279.829 274.454C280.798 274.065 281.88 274.065 282.849 274.454C283.304 274.662 283.714 274.955 284.058 275.318C284.444 275.667 284.753 276.094 284.964 276.57C285.159 277.066 285.262 277.593 285.266 278.125ZM281.083 300.832C281.284 300.357 281.385 299.846 281.382 299.33C281.39 298.825 281.287 298.324 281.08 297.862C280.873 297.381 280.581 296.942 280.217 296.566C279.864 296.206 279.437 295.926 278.965 295.746C278.504 295.539 278.004 295.436 277.498 295.443C276.977 295.414 276.458 295.518 275.988 295.746C275.517 295.926 275.09 296.206 274.737 296.566C274.386 296.953 274.095 297.389 273.874 297.862C273.487 298.818 273.487 299.886 273.874 300.842C274.085 301.307 274.377 301.731 274.737 302.094C275.079 302.469 275.509 302.751 275.988 302.915C276.454 303.156 276.974 303.275 277.498 303.261C278.007 303.254 278.507 303.136 278.965 302.915C279.445 302.751 279.875 302.469 280.217 302.094C280.588 301.737 280.883 301.308 281.083 300.832ZM300.541 284.258C300.56 284.765 300.469 285.271 300.276 285.74C300.082 286.21 299.79 286.632 299.419 286.979C299.08 287.366 298.65 287.663 298.167 287.842C297.684 288.026 297.174 288.128 296.657 288.145C296.154 288.13 295.658 288.028 295.19 287.842C294.701 287.653 294.259 287.358 293.896 286.979C293.453 286.52 293.129 285.96 292.951 285.347C292.772 284.735 292.746 284.088 292.873 283.463C293.001 282.838 293.278 282.254 293.682 281.76C294.086 281.267 294.603 280.879 295.19 280.63C295.658 280.444 296.154 280.342 296.657 280.328C297.174 280.345 297.684 280.447 298.167 280.63C299.116 281.04 299.872 281.797 300.282 282.746C300.457 283.231 300.545 283.743 300.541 284.258ZM296.355 300.842C296.546 300.36 296.648 299.848 296.657 299.33C296.645 298.292 296.227 297.3 295.492 296.566C295.139 296.206 294.712 295.926 294.241 295.746C293.78 295.539 293.279 295.436 292.774 295.443C292.253 295.414 291.733 295.518 291.264 295.746C290.792 295.926 290.365 296.206 290.012 296.566C289.662 296.953 289.371 297.389 289.149 297.862C288.763 298.818 288.763 299.886 289.149 300.842C289.361 301.307 289.653 301.731 290.012 302.094C290.354 302.469 290.784 302.751 291.264 302.915C291.73 303.156 292.249 303.275 292.774 303.261C293.282 303.254 293.783 303.136 294.241 302.915C294.72 302.751 295.151 302.469 295.492 302.094C295.865 301.743 296.159 301.316 296.355 300.842ZM277.24 318.42C277.248 318.925 277.145 319.427 276.938 319.888C276.545 320.858 275.785 321.635 274.824 322.047C274.353 322.218 273.857 322.306 273.356 322.306C272.842 322.311 272.33 322.223 271.846 322.047C271.381 321.836 270.958 321.543 270.595 321.184C270.211 320.824 269.916 320.381 269.732 319.888C269.389 318.939 269.389 317.9 269.732 316.951C269.927 316.464 270.221 316.023 270.595 315.656C270.948 315.295 271.375 315.015 271.846 314.835C272.322 314.627 272.837 314.524 273.356 314.533C273.862 314.525 274.362 314.628 274.824 314.835C275.78 315.234 276.54 315.994 276.938 316.951C277.145 317.413 277.248 317.914 277.24 318.42Z" fill="#6B9C66"/>
<path fill-rule="evenodd" clip-rule="evenodd" d="M108.543 41.752C148.706 14.8921 195.926 0.555664 244.23 0.555664C309.003 0.555664 371.124 26.3096 416.926 72.1518C462.728 117.994 488.459 180.169 488.459 245C488.459 293.347 474.135 340.607 447.299 380.806C420.463 421.005 382.319 452.336 337.692 470.837C293.065 489.339 243.959 494.179 196.583 484.747C149.207 475.316 105.689 452.035 71.5333 417.848C37.3772 383.662 14.1166 340.106 4.69291 292.689C-4.73074 245.271 0.105829 196.122 18.591 151.455C37.0761 106.789 68.3796 68.6119 108.543 41.752ZM119.162 432.328C156.173 457.116 199.697 470.364 244.23 470.398C273.818 470.421 303.121 464.608 330.463 453.291C357.805 441.973 382.652 425.374 403.582 404.442C424.512 383.51 441.115 358.654 452.444 331.296C463.772 303.938 469.602 274.614 469.602 245C469.602 200.428 456.399 156.856 431.661 119.793C406.924 82.7305 371.762 53.8405 330.622 36.7756C289.482 19.7107 244.211 15.2369 200.531 23.92C156.851 32.6031 116.724 54.053 85.2225 85.5583C53.7208 117.064 32.259 157.21 23.5501 200.921C14.8412 244.633 19.2763 289.947 36.2947 331.137C53.3132 372.326 82.1508 407.54 119.162 432.328Z" fill="#6B9C66"/>
<path d="M491.868 110.642C493.751 111.289 495.536 112.19 497.176 113.32C500.671 115.565 500.93 117.811 497.909 120.575C495.517 122.657 493.01 124.604 490.401 126.406C482.893 132.841 475.083 138.93 467.057 144.674C457.116 122.439 443.894 101.824 427.833 83.5199L447.596 66.9789C449.239 65.5892 450.868 64.1797 452.502 62.7658C455.032 60.5765 457.574 58.3768 460.196 56.225C461.609 54.9827 463.141 53.8832 464.77 52.9427C465.859 52.3552 467.135 52.2207 468.322 52.5683C469.509 52.9159 470.512 53.7176 471.113 54.7998C471.489 55.488 471.682 56.2613 471.674 57.0456C471.73 58.4959 471.6 59.9475 471.286 61.3644C470.929 63.5898 470.575 65.8213 470.22 68.0567C468.941 76.103 467.655 84.1999 466.237 92.2439C465.917 94.2844 465.754 96.3446 465.575 98.5971C465.489 99.6818 465.4 100.811 465.288 102.004C467.878 102.967 470.37 103.761 472.812 104.539C474.64 105.121 476.44 105.694 478.233 106.323C480.441 107.098 482.914 107.849 485.392 108.601C487.609 109.274 489.83 109.948 491.868 110.642Z" fill="#6B9C66"/>
</svg>
