<svg id="eypENqKG5ne1" xmlns="http://www.w3.org/2000/svg" xmlns:xlink="http://www.w3.org/1999/xlink" viewBox="0 0 750 750" shape-rendering="geometricPrecision" text-rendering="geometricPrecision"><path id="eypENqKG5ne2" d="M499.716,288.553c-5.874-8.965-12.687-17.357-20.367-25.022-29.39-29.333-69.217-45.784-110.723-45.736-36.22.043-71.304,12.654-99.275,35.685-27.971,23.032-47.097,55.058-54.12,90.622-7.022,35.564-1.507,72.465,15.607,104.415c17.115,31.949,44.768,56.971,78.249,70.801s70.717,15.612,105.363,5.043c34.647-10.569,64.559-32.836,84.642-63.005c20.082-30.17,29.09-66.375,25.49-102.448-1.71-17.139-6.217-33.744-13.227-49.199-.671-.165-1.343-.33-2.014-.495-1.511-.371-3.022-.742-4.533-1.112-1.244-.432-2.443-.982-3.582-1.642l-67.693,54.011c7.878,12.296,12.159,26.688,12.159,41.522-.009,15.206-4.523,30.068-12.972,42.706-8.448,12.638-20.452,22.485-34.493,28.294-14.04,5.809-29.487,7.32-44.385,4.342-14.899-2.978-28.58-10.311-39.314-21.073-10.734-10.761-18.038-24.467-20.989-39.384-2.95-14.917-1.414-30.374,4.414-44.417s15.686-26.041,28.327-34.476s27.498-12.927,42.691-12.91c20.359.034,39.873,8.153,54.257,22.574c1.861,1.866,3.616,3.817,5.262,5.845c7.938-6.242,15.844-12.504,23.718-18.789l39.482-31.743.734-.561c5.868-2.678,7.162-7.688,7.292-13.475c0-.124,0-.249,0-.373ZM391.403,277.635c7.191-4.106,15.33-6.258,23.609-6.243.612.017,1.215.154,1.774.404s1.064.608,1.484,1.053c.421.445.75.969.968,1.542.219.572.322,1.182.305,1.795.006.608-.11,1.212-.34,1.775s-.569,1.075-.999,1.505-.941.771-1.504,1.001-1.166.346-1.774.34c-9.337-.042-18.37,3.318-25.413,9.454-7.042,6.135-11.614,14.626-12.861,23.887-.167,1-.268,2.01-.302,3.023v.518c-.096.668-.347,1.304-.734,1.858-.039.607-.216,1.198-.517,1.727-.325.725-.843,1.347-1.498,1.797-.654.449-1.42.709-2.213.751h-.432c-.723.004-1.435-.174-2.071-.518-11.219-5.615-25.415-15.721-28.867-31.527-1.313-5.838-.893-11.933,1.208-17.535.445-1.004,1.23-1.82,2.217-2.302.986-.482,2.111-.599,3.177-.332c6.146,1.25,11.878,4.03,16.667,8.084c4.789,4.053,8.48,9.249,10.733,15.108c4.2-7.141,10.192-13.059,17.383-17.165Z" opacity="0" clip-rule="evenodd" fill="#6b9c66" fill-rule="evenodd"/><path id="eypENqKG5ne3" d="M251.136,198.15c34.96-23.364,76.057-35.825,118.094-35.808c56.34.023,110.365,22.437,150.199,62.314c6.243,6.25,12.058,12.848,17.425,19.75-.736,4.851-1.598,9.656-2.461,14.46-.614,3.422-1.229,6.843-1.797,10.28-.51,1.165-1.178,2.255-1.985,3.239-.231-.844-.347-1.716-.345-2.591.208-3.775.463-7.565.718-11.353.168-2.495.336-4.99.49-7.477.347-2.432.52-4.886.518-7.342.041-1.029-.214-2.048-.733-2.937-.7-1.167-1.833-2.009-3.151-2.341-1.319-.332-2.715-.127-3.883.57-.974.469-1.899,1.033-2.761,1.685-1.483,1.199-2.973,2.388-4.461,3.578-4.143,3.31-8.282,6.618-12.282,10.112-1.418,1.291-2.539,2.875-3.284,4.642-.745,1.768-1.097,3.676-1.031,5.594-.027,2.594-.108,5.187-.204,7.782-21.123-27.331-50.281-47.498-83.505-57.56-36.886-11.171-76.502-9.193-112.095,5.594-35.593,14.788-64.961,41.472-83.099,75.504-18.139,34.032-23.926,73.307-16.374,111.131s27.974,71.856,57.788,96.298c29.813,24.441,67.171,37.779,105.709,37.741c44.147-.045,86.47-17.629,117.67-48.889c27.236-27.289,44.175-63.186,47.93-101.574c2.608-26.665-1.256-53.385-11.042-77.962c4.446,1.069,8.893,2.114,13.339,3.113c3.221.694,6.586.089,9.364-1.685c7.356-4.741,14.712-9.551,21.915-14.522c9.07,23.893,13.851,49.452,13.856,75.504.008,42.074-12.45,83.205-35.8,118.191s-56.542,62.255-95.379,78.358c-38.836,16.103-81.571,20.317-122.8,12.107-41.229-8.209-79.099-28.472-108.821-58.226-29.721-29.753-49.959-67.661-58.152-108.928-8.194-41.267-3.976-84.039,12.121-122.906s43.349-72.083,78.309-95.446Z" opacity="0" fill="#6b9c66"/><path id="eypENqKG5ne4" d="M563.402,288.793c-.824-1.86-1.675-3.708-2.553-5.545-.42-.101-.84-.203-1.26-.304-5.839-1.411-11.686-2.823-17.5-4.599-1.396-.576-2.95-.646-4.392-.196-1.442.449-2.682,1.39-3.504,2.658l6.515,1.986l22.694,6Z" opacity="0" fill="#6b9c66"/><path id="eypENqKG5ne5" d="M363.096,293.958c-3.404-5.445-8.47-9.648-14.448-11.985-.648,6.305.69,18.873,18.899,30.232.514-6.403-1.046-12.802-4.451-18.247Z" opacity="0" fill="#6b9c66"/><path id="eypENqKG5ne6" d="M420.614,359.823c-7.026-8.681-16.137-15.487-26.52-19.757-12.223-5.026-25.662-6.31-38.614-3.689-12.953,2.62-24.839,9.026-34.153,18.409s-15.638,21.32-18.172,34.3c-2.534,12.981-1.164,26.423,3.936,38.624c5.101,12.202,13.703,22.615,24.717,29.922c11.015,7.307,23.948,11.181,37.163,11.129c17.697-.08,34.64-7.181,47.113-19.746s19.459-29.569,19.424-47.282c-.032-12.348-3.479-24.428-9.936-34.91l-13.875,11.071c-.192.454-.474.865-.827,1.209-.353.361-.78.64-1.251.82-.251.106-.51.188-.775.247l-9.826,7.84c.389.182.737.443,1.021.767.373.348.668.769.869,1.238.201.468.301.973.296,1.483v.086c.004.516-.098,1.027-.298,1.502-.201.475-.495.905-.867,1.262-.339.387-.769.684-1.251.864-.47.171-.967.259-1.467.259-.515.005-1.027-.083-1.511-.259-.482-.18-.912-.477-1.251-.864-.359-.363-.652-.787-.863-1.252-.094-.215-.168-.437-.221-.663l-20.75,16.556.087-10.624l14.671-11.748c13.784-11.014,21.695-17.428,33.131-26.794Zm-6.464,2.307c.004.533-.099,1.062-.303,1.555-.191.453-.47.863-.819,1.209-.348.398-.795.696-1.295.864-.466.191-.963.293-1.467.302-.503-.014-.999-.117-1.467-.302-.5-.168-.947-.466-1.295-.864-.349-.346-.628-.756-.82-1.209-.203-.493-.306-1.022-.302-1.555-.007-.506.096-1.007.302-1.469.189-.478.474-.913.838-1.277s.798-.65,1.277-.839c.468-.185.964-.288,1.467-.302.504.009,1.001.111,1.467.302.479.189.913.475,1.277.839s.649.799.837,1.277c.207.462.31.963.303,1.469Zm9.19,18.139c.207-.462.31-.963.302-1.469.004-.515-.098-1.026-.298-1.502-.201-.475-.495-.904-.867-1.262-.342-.374-.772-.656-1.251-.82-.461-.207-.962-.31-1.467-.303-.52-.008-1.035.095-1.511.303-.471.18-.898.46-1.251.82-.359.363-.652.787-.863,1.253-.386.956-.386,2.024,0,2.98.18.482.476.913.863,1.252.349.387.775.696,1.251.907.484.176.996.264,1.511.259.5,0,.996-.088,1.467-.259.476-.211.902-.52,1.251-.907.387-.339.684-.77.863-1.252Zm-7.681,14.511c.228-.454.332-.961.302-1.468.034-.508-.07-1.016-.302-1.469-.168-.501-.466-.948-.863-1.295-.542-.573-1.25-.961-2.025-1.108-.774-.147-1.576-.047-2.29.287-.471.18-.898.46-1.251.821-.385.35-.668.797-.82,1.295-.211.46-.314.963-.302,1.469.034,1.025.432,2.005,1.122,2.764.353.36.78.64,1.251.82.719.309,1.514.397,2.283.25.769-.146,1.476-.519,2.032-1.07.379-.364.674-.806.863-1.296Zm15.448,4.146c.208-.476.311-.992.302-1.511.009-.52-.094-1.036-.302-1.512-.18-.472-.459-.899-.82-1.252-.386-.351-.822-.643-1.294-.864-.469-.177-.966-.265-1.467-.259-.501,0-.997.088-1.467.259-.472.221-.909.513-1.295.864-.36.353-.64.78-.82,1.252-.388.97-.388,2.053,0,3.023.18.472.46.899.82,1.253.379.348.818.626,1.295.82.461.207.962.31,1.467.302.511.005,1.019-.093,1.493-.285.473-.193.905-.477,1.268-.837.361-.354.64-.781.82-1.253Zm-20.841,9.199c.016.518-.079,1.033-.28,1.51s-.503.905-.885,1.254c-.326.373-.742.655-1.209.821-.719.309-1.514.396-2.282.25-.769-.146-1.477-.519-2.033-1.071-.541-.562-.907-1.27-1.052-2.037-.146-.767-.065-1.56.233-2.282.179-.471.459-.899.819-1.252.379-.341.799-.631,1.252-.864.969-.389,2.051-.389,3.02,0c.455.208.865.501,1.209.864.386.349.695.776.906,1.252.195.496.298,1.023.302,1.555Zm-4.183,22.707c.201-.475.302-.986.299-1.502.008-.505-.095-1.006-.302-1.468-.207-.481-.499-.92-.863-1.296-.353-.36-.78-.64-1.252-.82-.461-.207-.961-.31-1.467-.303-.521-.029-1.04.075-1.51.303-.471.18-.898.46-1.251.82-.351.387-.642.823-.863,1.296-.387.956-.387,2.024,0,2.98.211.465.503.889.863,1.252.342.375.772.657,1.251.821.466.241.986.36,1.51.346.509-.007,1.009-.125,1.467-.346.48-.164.91-.446,1.252-.821.371-.357.666-.786.866-1.262Zm19.458-16.574c.019.507-.072,1.013-.265,1.482-.194.47-.486.892-.857,1.239-.339.387-.769.684-1.252.863-.483.184-.993.286-1.51.303-.503-.015-.999-.117-1.467-.303-.489-.189-.931-.484-1.294-.863-.443-.459-.767-1.019-.945-1.632-.179-.612-.205-1.259-.078-1.884.128-.625.405-1.209.809-1.703.404-.493.921-.881,1.508-1.13.468-.186.964-.288,1.467-.302.517.017,1.027.119,1.51.302.949.41,1.705,1.167,2.115,2.116.175.485.263.997.259,1.512Zm-4.186,16.584c.191-.482.293-.994.302-1.512-.012-1.038-.43-2.03-1.165-2.764-.353-.36-.78-.64-1.251-.82-.461-.207-.962-.31-1.467-.303-.521-.029-1.041.075-1.51.303-.472.18-.899.46-1.252.82-.35.387-.641.823-.863,1.296-.386.956-.386,2.024,0,2.98.212.465.504.889.863,1.252.342.375.772.657,1.252.821.466.241.985.36,1.51.346.508-.007,1.009-.125,1.467-.346.479-.164.91-.446,1.251-.821.373-.351.667-.778.863-1.252ZM402.24,448.42c.008.505-.095,1.007-.302,1.468-.393.97-1.153,1.747-2.114,2.159-.471.171-.967.259-1.468.259-.514.005-1.026-.083-1.51-.259-.465-.211-.888-.504-1.251-.863-.384-.36-.679-.803-.863-1.296-.343-.949-.343-1.988,0-2.937.195-.487.489-.928.863-1.295.353-.361.78-.641,1.251-.821.476-.208.991-.311,1.51-.302.506-.008,1.006.095,1.468.302.956.399,1.716,1.159,2.114,2.116.207.462.31.963.302,1.469Z" opacity="0" clip-rule="evenodd" fill="#6b9c66" fill-rule="evenodd"/><path id="eypENqKG5ne7" d="M233.543,171.752c40.163-26.86,87.383-41.196,135.687-41.196c64.773,0,126.894,25.754,172.696,71.596s71.533,108.017,71.533,172.848c0,48.347-14.324,95.607-41.16,135.806s-64.98,71.53-109.607,90.031c-44.627,18.502-93.733,23.342-141.109,13.91-47.376-9.431-90.894-32.712-125.05-66.899-34.156-34.186-57.416-77.742-66.84-125.159-9.424-47.418-4.587-96.567,13.898-141.234c18.485-44.666,49.789-82.843,89.952-109.703Zm10.619,390.576c37.011,24.788,80.535,38.036,125.068,38.07c29.588.023,58.891-5.79,86.233-17.107c27.342-11.318,52.189-27.917,73.119-48.849s37.533-45.788,48.862-73.146c11.328-27.358,17.158-56.682,17.158-86.296c0-44.572-13.203-88.144-37.941-125.207-24.737-37.062-59.899-65.952-101.039-83.017s-86.411-21.539-130.091-12.856-83.807,30.133-115.308,61.638c-31.502,31.506-52.964,71.652-61.673,115.363-8.709,43.712-4.274,89.026,12.745,130.216c17.018,41.189,45.856,76.403,82.867,101.191Z" opacity="0" clip-rule="evenodd" fill="#6b9c66" fill-rule="evenodd"/><path id="eypENqKG5ne8" d="M616.868,240.642c1.883.647,3.668,1.548,5.308,2.678c3.495,2.245,3.754,4.491.733,7.255-2.392,2.082-4.899,4.029-7.508,5.831-7.508,6.435-15.318,12.524-23.344,18.268-9.941-22.235-23.163-42.85-39.224-61.154l19.763-16.541c1.643-1.39,3.272-2.799,4.906-4.213c2.53-2.19,5.072-4.389,7.694-6.541c1.413-1.242,2.945-2.342,4.574-3.282c1.089-.588,2.365-.722,3.552-.375c1.187.348,2.19,1.15,2.791,2.232.376.688.569,1.461.561,2.246.056,1.45-.074,2.901-.388,4.318-.357,2.226-.711,4.457-1.066,6.693-1.279,8.046-2.565,16.143-3.983,24.187-.32,2.04-.483,4.101-.662,6.353-.086,1.085-.175,2.214-.287,3.407c2.59.963,5.082,1.757,7.524,2.535c1.828.582,3.628,1.155,5.421,1.784c2.208.775,4.681,1.526,7.159,2.278c2.217.673,4.438,1.347,6.476,2.041Z" opacity="0" fill="#6b9c66"/></svg>