<svg width="46" height="60" viewBox="0 0 46 60" fill="none" xmlns="http://www.w3.org/2000/svg">
<g clip-path="url(#clip0_552_631)">
<path d="M36.3542 2.3516e-05C33.9574 -0.00441008 31.6011 0.618147 29.5193 1.80589C27.4374 2.99363 25.7025 4.70524 24.4866 6.77079C23.8345 5.0762 22.7659 3.57327 21.3794 2.4008C19.993 1.22833 18.3335 0.424136 16.5541 0.0624883C16.2457 -0.0148106 15.92 0.0192501 15.6343 0.158663C15.3487 0.298077 15.1214 0.533889 14.9926 0.824513C14.385 2.44509 14.2635 4.20771 14.6428 5.89634C15.6422 10.4685 19.7521 13.3916 23.0001 15.0156C23.1842 15.115 23.3904 15.1666 23.5997 15.1655H23.7246C23.9542 15.1534 24.1759 15.0782 24.3655 14.9482C24.555 14.8181 24.705 14.6383 24.7989 14.4285C24.8861 14.2755 24.9374 14.1046 24.9488 13.9288C25.0606 13.7688 25.1334 13.5848 25.1612 13.3917V13.2417C25.1718 12.9487 25.201 12.6566 25.2487 12.3673C25.6096 9.68843 26.9332 7.23246 28.9721 5.45785C31.0111 3.68323 33.6262 2.71124 36.3292 2.72332C36.6709 2.73021 37.0017 2.60353 37.2513 2.37023C37.501 2.13692 37.6497 1.81541 37.6659 1.4741C37.6709 1.29691 37.6409 1.12048 37.5777 0.954875C37.5145 0.789274 37.4192 0.637752 37.2974 0.508977C37.1756 0.380202 37.0296 0.276698 36.8678 0.204373C36.7059 0.132048 36.5314 0.0923221 36.3542 0.0874685V2.3516e-05ZM17.1412 3.06061C18.8707 3.7383 20.3364 4.9543 21.3216 6.52896C22.3069 8.10363 22.7596 9.95344 22.6128 11.8051C17.3411 8.51969 16.9538 4.88447 17.1412 3.06061Z" fill="#F8BC5D"/>
<path d="M23.025 15.5278C18.6271 15.5229 14.3265 16.8222 10.6671 19.2614C7.00764 21.7007 4.15368 25.1703 2.46612 29.2315C0.77856 33.2927 0.333188 37.7631 1.18633 42.0775C2.03947 46.3918 4.1528 50.3563 7.25908 53.4696C10.3654 56.5828 14.3251 58.7051 18.6375 59.5679C22.9499 60.4307 27.4213 59.9954 31.4863 58.317C35.5513 56.6385 39.0273 53.7924 41.4748 50.1384C43.9222 46.4845 45.2312 42.1868 45.2361 37.7889C45.2361 31.8936 42.8976 26.2389 38.7337 22.0656C34.5697 17.8923 28.9203 15.5411 23.025 15.5278ZM23.025 57.0894C19.1993 57.1042 15.4552 55.9839 12.2663 53.8703C9.07746 51.7566 6.5872 48.7446 5.11061 45.2153C3.63402 41.686 3.23745 37.7981 3.97108 34.0433C4.70471 30.2886 6.53557 26.8358 9.23202 24.1219C11.9285 21.408 15.3693 19.5548 19.1192 18.7969C22.8691 18.039 26.7596 18.4105 30.2984 19.8642C33.8371 21.318 36.8652 23.7887 38.9994 26.9638C41.1336 30.1389 42.278 33.8758 42.288 37.7015C42.2979 42.8249 40.2756 47.7432 36.6645 51.3777C33.0535 55.0122 28.1484 57.0662 23.025 57.0894Z" fill="#F8BC5D"/>
<path d="M36.629 35.2655C36.6377 35.4123 36.6075 35.5588 36.5416 35.6902C36.49 35.8336 36.4043 35.9623 36.2918 36.065C36.1309 36.2246 35.926 36.3324 35.7034 36.3747C35.4808 36.417 35.2507 36.3918 35.0425 36.3024C34.9061 36.2503 34.7825 36.1693 34.6803 36.065C34.4805 35.8456 34.3653 35.5621 34.3555 35.2655C34.3532 35.1192 34.383 34.9742 34.4429 34.8408C34.4869 34.6968 34.5689 34.5673 34.6803 34.466C34.7825 34.3617 34.9061 34.2807 35.0425 34.2287C35.2493 34.132 35.4813 34.103 35.7055 34.1456C35.9297 34.1882 36.1348 34.3003 36.2918 34.466C36.4068 34.5666 36.493 34.6959 36.5416 34.8408C36.6087 34.9718 36.6389 35.1186 36.629 35.2655Z" fill="#F8BC5D"/>
<path d="M38.8526 31.068C38.8549 31.2143 38.825 31.3593 38.7652 31.4928C38.7132 31.6324 38.6273 31.7568 38.5153 31.8551C38.4143 31.9669 38.2909 32.0563 38.153 32.1174C38.0169 32.1668 37.8732 32.1922 37.7283 32.1923C37.5793 32.1936 37.4312 32.1683 37.2911 32.1174C37.1533 32.0563 37.0298 31.9669 36.9288 31.8551C36.8168 31.7568 36.731 31.6324 36.679 31.4928C36.5671 31.2163 36.5671 30.9073 36.679 30.6308C36.7401 30.4962 36.8247 30.3736 36.9288 30.2685C37.031 30.1642 37.1546 30.0832 37.2911 30.0312C37.4289 29.9711 37.578 29.9412 37.7283 29.9437C37.8746 29.9415 38.0196 29.9713 38.153 30.0312C38.2918 30.0787 38.4164 30.1603 38.5153 30.2685C38.729 30.48 38.8503 30.7674 38.8526 31.068Z" fill="#F8BC5D"/>
<path d="M36.1043 26.2461C36.1067 26.4004 36.0769 26.5536 36.0169 26.6958C35.9614 26.8268 35.8808 26.9456 35.7795 27.0456C35.679 27.1606 35.5496 27.2468 35.4048 27.2954C35.2706 27.3532 35.1261 27.383 34.98 27.383C34.834 27.383 34.6895 27.3532 34.5553 27.2954C34.4104 27.2468 34.2811 27.1606 34.1805 27.0456C34.0793 26.9456 33.9986 26.8268 33.9432 26.6958C33.8831 26.5536 33.8533 26.4004 33.8557 26.2461C33.8534 26.0998 33.8833 25.9548 33.9432 25.8213C34.0585 25.5446 34.2785 25.3246 34.5553 25.2092C34.6895 25.1515 34.834 25.1217 34.98 25.1217C35.1261 25.1217 35.2706 25.1515 35.4048 25.2092C35.6815 25.3246 35.9016 25.5446 36.0169 25.8213C36.0768 25.9548 36.1066 26.0998 36.1043 26.2461Z" fill="#F8BC5D"/>
<path d="M35.4797 30.356C35.4838 30.5045 35.457 30.6522 35.4011 30.7898C35.3452 30.9274 35.2614 31.0519 35.1549 31.1555C35.0527 31.2599 34.9291 31.3408 34.7926 31.3929C34.658 31.4508 34.5142 31.4847 34.3679 31.4928C34.2167 31.491 34.0676 31.4569 33.9307 31.3929C33.7926 31.3367 33.6657 31.2564 33.5559 31.1555C33.3992 30.9929 33.2933 30.7881 33.2511 30.5663C33.209 30.3444 33.2324 30.1151 33.3185 29.9063C33.3706 29.7698 33.4516 29.6462 33.5559 29.544C33.6676 29.4425 33.794 29.3583 33.9307 29.2942C34.0675 29.232 34.2181 29.2062 34.3679 29.2192C34.5127 29.2194 34.6565 29.2448 34.7926 29.2942C34.9272 29.3554 35.0499 29.44 35.1549 29.544C35.2563 29.6512 35.3406 29.7734 35.4047 29.9063C35.4539 30.0512 35.4792 30.203 35.4797 30.356Z" fill="#F8BC5D"/>
<path d="M32.3567 34.7658C32.3544 35.0664 32.2331 35.3538 32.0194 35.5653C31.9212 35.6773 31.7967 35.7631 31.6571 35.8151C31.521 35.8645 31.3773 35.8899 31.2324 35.8901C31.0834 35.8914 30.9353 35.866 30.7952 35.8151C30.6556 35.7631 30.5311 35.6773 30.4329 35.5653C30.3288 35.4602 30.2442 35.3376 30.1831 35.203C30.0917 34.9943 30.0666 34.7625 30.1113 34.539C30.156 34.3156 30.2683 34.1113 30.4329 33.9538C30.5311 33.8418 30.6556 33.7559 30.7952 33.7039C30.933 33.6438 31.0821 33.614 31.2324 33.6165C31.3787 33.6142 31.5237 33.644 31.6571 33.7039C31.7967 33.7559 31.9212 33.8418 32.0194 33.9538C32.126 34.0553 32.2108 34.1774 32.2688 34.3127C32.3268 34.4479 32.3567 34.5936 32.3567 34.7408V34.7658Z" fill="#F8BC5D"/>
<path d="M41.1012 36.4523C41.1037 36.6026 41.0739 36.7517 41.0137 36.8895C40.9617 37.026 40.8807 37.1495 40.7764 37.2518C40.6711 37.3559 40.5462 37.4382 40.409 37.4939C40.2718 37.5496 40.125 37.5777 39.9769 37.5766C39.8306 37.5788 39.6856 37.549 39.5521 37.4891C39.4141 37.433 39.2871 37.3526 39.1774 37.2518C39.073 37.1495 38.9921 37.026 38.94 36.8895C38.8274 36.6089 38.8274 36.2956 38.94 36.015C38.9921 35.8786 39.073 35.755 39.1774 35.6528C39.2891 35.5512 39.4155 35.467 39.5521 35.4029C39.8266 35.3037 40.1272 35.3037 40.4016 35.4029C40.5383 35.467 40.6646 35.5512 40.7764 35.6528C40.8807 35.755 40.9617 35.8786 41.0137 36.015C41.0739 36.1528 41.1037 36.3019 41.1012 36.4523Z" fill="#F8BC5D"/>
<path d="M34.9801 39.5503C34.9858 39.7002 34.9586 39.8494 34.9003 39.9876C34.842 40.1257 34.7541 40.2494 34.6428 40.3498C34.5484 40.4576 34.428 40.5393 34.293 40.5872C34.0848 40.6766 33.8547 40.7018 33.6321 40.6595C33.4095 40.6172 33.2047 40.5094 33.0438 40.3498C32.8871 40.1872 32.7812 39.9824 32.739 39.7606C32.6969 39.5387 32.7203 39.3094 32.8064 39.1006C32.8585 38.9641 32.9395 38.8405 33.0438 38.7383C33.1533 38.6398 33.2751 38.5558 33.4061 38.4885C33.6867 38.3759 33.9999 38.3759 34.2805 38.4885C34.4107 38.5509 34.529 38.6355 34.6303 38.7383C34.7422 38.8394 34.8316 38.9628 34.8926 39.1006C34.9527 39.2428 34.9825 39.396 34.9801 39.5503Z" fill="#F8BC5D"/>
<path d="M33.8558 45.684C33.8535 45.9846 33.7322 46.272 33.5185 46.4835C33.4195 46.5917 33.295 46.6733 33.1562 46.7208C33.0236 46.7846 32.8786 46.8187 32.7315 46.8207C32.5796 46.8249 32.4292 46.7905 32.2943 46.7208C32.1555 46.6733 32.0309 46.5917 31.932 46.4835C31.8279 46.3784 31.7433 46.2558 31.6821 46.1212C31.5703 45.8447 31.5703 45.5357 31.6821 45.2592C31.7462 45.1225 31.8304 44.9962 31.932 44.8845C32.0342 44.7801 32.1578 44.6991 32.2943 44.6471C32.4302 44.5812 32.5807 44.5511 32.7315 44.5597C32.8778 44.5574 33.0227 44.5872 33.1562 44.6471C33.2927 44.6991 33.4163 44.7801 33.5185 44.8845C33.62 44.9962 33.7042 45.1225 33.7683 45.2592C33.8282 45.3927 33.8581 45.5377 33.8558 45.684Z" fill="#F8BC5D"/>
<path d="M39.4022 41.3242C39.4077 41.471 39.3815 41.6172 39.3255 41.753C39.2694 41.8888 39.1848 42.011 39.0774 42.1112C38.9792 42.2232 38.8547 42.309 38.7152 42.361C38.5758 42.4162 38.4277 42.4458 38.2779 42.4485C38.1323 42.4443 37.9886 42.4147 37.8532 42.361C37.7098 42.3095 37.5812 42.2237 37.4784 42.1112C37.3723 42.0055 37.2881 41.88 37.2306 41.7417C37.1731 41.6034 37.1436 41.4552 37.1436 41.3054C37.1436 41.1557 37.1731 41.0074 37.2306 40.8692C37.2881 40.7309 37.3723 40.6053 37.4784 40.4997C37.5816 40.4057 37.6999 40.3297 37.8282 40.2748C37.9636 40.2211 38.1074 40.1915 38.2529 40.1874C38.4028 40.1901 38.5509 40.2197 38.6902 40.2748C38.967 40.3901 39.187 40.6102 39.3023 40.8869C39.3617 41.0255 39.3956 41.1736 39.4022 41.3242Z" fill="#F8BC5D"/>
<path d="M38.278 45.684C38.2753 45.8338 38.2457 45.9819 38.1906 46.1212C38.1338 46.2582 38.0487 46.3817 37.9407 46.4835C37.8418 46.5917 37.7172 46.6733 37.5785 46.7208C37.4458 46.7846 37.3009 46.8187 37.1537 46.8207C37.0019 46.8249 36.8515 46.7905 36.7165 46.7208C36.5777 46.6733 36.4532 46.5917 36.3542 46.4835C36.2502 46.3784 36.1656 46.2558 36.1044 46.1212C35.9926 45.8447 35.9926 45.5357 36.1044 45.2592C36.1685 45.1225 36.2527 44.9962 36.3542 44.8845C36.4564 44.7801 36.58 44.6991 36.7165 44.6471C36.8524 44.5812 37.0029 44.5511 37.1537 44.5597C37.3 44.5574 37.445 44.5872 37.5785 44.6471C37.7149 44.6991 37.8385 44.7801 37.9407 44.8845C38.1545 45.0959 38.2757 45.3833 38.278 45.684Z" fill="#F8BC5D"/>
<path d="M32.6565 51.2055C32.6588 51.3517 32.629 51.4967 32.5691 51.6302C32.447 51.9054 32.2296 52.1272 31.957 52.2548C31.8208 52.3042 31.6771 52.3296 31.5322 52.3298C31.3832 52.3311 31.2351 52.3057 31.095 52.2548C30.9604 52.1936 30.8378 52.109 30.7327 52.005C30.6202 51.9022 30.5345 51.7736 30.4829 51.6302C30.3933 51.4211 30.3692 51.1898 30.4138 50.9668C30.4584 50.7438 30.5696 50.5395 30.7327 50.381C30.8349 50.2766 30.9585 50.1957 31.095 50.1436C31.2328 50.0835 31.3819 50.0537 31.5322 50.0562C31.6785 50.0539 31.8235 50.0837 31.957 50.1436C32.2337 50.2589 32.4538 50.479 32.5691 50.7557C32.6327 50.8969 32.6626 51.0508 32.6565 51.2055Z" fill="#F8BC5D"/>
</g>
<defs>
<clipPath id="clip0_552_631">
<rect width="44.4722" height="60" fill="white" transform="translate(0.763916)"/>
</clipPath>
</defs>
</svg>
