<svg width="60" height="60" viewBox="0 0 60 60" fill="none" xmlns="http://www.w3.org/2000/svg">
<path d="M29.4799 15.1839C25.5533 15.1839 21.7876 16.7437 19.0112 19.5201C16.2348 22.2966 14.6749 26.0623 14.6749 29.9889C14.6749 33.9155 16.2348 37.6812 19.0112 40.4576C21.7876 43.234 25.5533 44.7938 29.4799 44.7938C33.4065 44.7938 37.1722 43.234 39.9486 40.4576C42.725 37.6812 44.2849 33.9155 44.2849 29.9889C44.2816 26.0632 42.7209 22.2993 39.9449 19.5238C37.1695 16.7479 33.4057 15.1872 29.4799 15.1839ZM29.4799 43.7388C25.8315 43.7392 22.3321 42.2903 19.7518 39.71C17.1721 37.1303 15.7227 33.6309 15.7231 29.9825C15.7231 26.3337 17.173 22.8347 19.7532 20.2554C22.3333 17.6756 25.8328 16.2266 29.4817 16.2276C33.1301 16.2285 36.629 17.6789 39.2083 20.2595C41.7871 22.8401 43.2356 26.3401 43.2342 29.9885C43.2314 33.6355 41.7816 37.1326 39.2027 39.7119C36.6239 42.2908 33.1268 43.7411 29.4798 43.7443L29.4799 43.7388Z" fill="#6B9C66"/>
<path d="M29.4799 9.20074C18.0163 9.20074 8.69043 18.5266 8.69043 29.9891C8.69043 41.4515 18.0158 50.7774 29.4799 50.7774C40.944 50.7774 50.2671 41.4515 50.2671 29.9891C50.2671 18.5266 40.9412 9.20074 29.4799 9.20074ZM29.4799 49.729C18.5933 49.729 9.74006 40.872 9.74006 29.9891C9.74006 19.1062 18.5971 10.2492 29.4799 10.2492C40.3628 10.2492 49.2198 19.1075 49.2198 29.9891C49.2198 40.8706 40.3657 49.729 29.4799 49.729Z" fill="#6B9C66"/>
<path d="M32.8045 21.4852C30.4957 21.4815 28.3069 22.5126 26.8385 24.2941C26.8255 24.3098 26.8162 24.3265 26.8047 24.3432C26.6604 24.353 26.5171 24.3697 26.3747 24.3942C25.8552 23.237 24.5659 21.711 22.3812 22.1202C21.3711 22.3071 20.6554 22.7464 20.2552 23.4189H20.2556C19.9662 23.9393 19.8577 24.5404 19.9463 25.129C19.4977 25.1146 19.052 25.2088 18.6475 25.4031C17.9462 25.7565 17.4852 26.4161 17.276 27.3613C17.084 28.2342 17.2213 28.9963 17.6879 29.6238C18.154 30.2509 18.8762 30.6252 19.506 30.8394C18.9865 31.2782 18.7592 31.7109 18.6711 32.0444C18.5375 32.5448 18.6377 33.0787 18.9438 33.4965C19.3413 34.0614 20.3956 34.9041 22.9697 34.2015C24.1487 33.8806 25.9566 35.3416 26.7215 36.086C26.7354 37.3332 26.6589 38.5794 26.4929 39.8159C26.4743 39.9532 26.5119 40.0919 26.5963 40.2018C26.6812 40.3118 26.8059 40.3832 26.9437 40.4004C26.9659 40.4013 26.9887 40.4013 27.0109 40.4004C27.2744 40.4022 27.4975 40.2069 27.5304 39.9458C27.7113 38.6054 27.7901 37.2534 27.7656 35.9014C27.8708 35.8138 27.9372 35.6876 27.9502 35.5508C27.9594 35.4548 27.9696 35.3611 27.9826 35.2702V35.2706C29.9427 36.8346 32.5396 37.3517 34.9501 36.658C37.3601 35.9636 39.2839 34.1446 40.1124 31.7773C40.9403 29.4099 40.5697 26.788 39.1175 24.7431C37.6657 22.6981 35.3123 21.484 32.8045 21.4853L32.8045 21.4852ZM21.0385 25.2667C21.0385 25.2667 20.8126 24.5409 21.1591 23.9536C21.3993 23.5483 21.8747 23.2756 22.5746 23.1457C24.7745 22.7352 25.5263 25.0678 25.5616 25.1651V25.1656C25.6029 25.3006 25.6965 25.4133 25.8213 25.4787C25.9475 25.5418 26.094 25.5529 26.2281 25.5084C26.2958 25.4852 27.8787 24.9657 28.5658 26.1888C29.2684 27.4355 28.2814 28.4318 28.2411 28.4708C28.0903 28.6118 28.0375 28.8293 28.1066 29.0241C28.1762 29.2189 28.3543 29.3539 28.5607 29.3683C28.671 29.3775 29.1553 29.4684 29.3297 29.7217C29.3607 29.7671 29.4595 29.9072 29.3556 30.2541C29.2258 30.6929 28.9192 31.1048 28.5634 31.5816L28.563 31.5812C28.159 32.0932 27.8074 32.6451 27.5138 33.2277C27.1539 31.1744 26.4216 29.4615 25.3191 28.103C24.333 26.8743 23.014 25.9555 21.5191 25.4579C21.3637 25.3953 21.2051 25.342 21.0437 25.2979C21.0427 25.2877 21.0409 25.277 21.0386 25.2668L21.0385 25.2667ZM22.7035 33.198C21.2671 33.5876 20.2101 33.48 19.7996 32.8993C19.6734 32.7337 19.6303 32.519 19.6827 32.3172C19.749 32.0718 20.019 31.5848 21.0969 31.0834C21.3158 30.9865 21.4401 30.7527 21.3979 30.5171C21.3557 30.2815 21.1581 30.1052 20.9188 30.0899C20.9021 30.0899 19.2147 29.9406 18.5241 29.0041C18.2449 28.6247 18.1697 28.1628 18.2954 27.59C18.4355 26.9587 18.7031 26.551 19.1136 26.3418V26.3423C19.3923 26.212 19.6994 26.1554 20.006 26.1772C20.0445 26.1906 20.0848 26.1994 20.1256 26.2032C20.1502 26.2032 22.6358 26.4397 24.5254 28.7796C25.7123 30.2522 26.4228 32.2095 26.6515 34.6237C25.6501 33.8213 24.0694 32.8251 22.6993 33.1979L22.7035 33.198ZM32.8086 35.9252H32.8081C31.239 35.9243 29.7195 35.3728 28.5151 34.3668C28.4339 34.2982 28.3337 34.2564 28.228 34.2471C28.5202 33.3914 28.9798 32.7759 29.3968 32.2111C29.7957 31.6772 30.176 31.1721 30.3541 30.5539C30.554 29.8734 30.3736 29.4073 30.1881 29.1356H30.1876C30.0048 28.8805 29.7563 28.6796 29.4682 28.5553C29.7219 28.1189 29.856 27.6231 29.856 27.1184C29.856 26.6133 29.7219 26.1175 29.4682 25.6811C29.164 25.125 28.6607 24.7047 28.0592 24.5049C29.638 22.9195 31.9042 22.228 34.0989 22.6612C36.2937 23.0949 38.1272 24.5958 38.9852 26.6621C39.8428 28.7283 39.6122 31.0864 38.3697 32.9468C37.1271 34.8076 35.0377 35.9244 32.8007 35.924L32.8086 35.9252Z" fill="#6B9C66"/>
<path d="M33.9575 25.1613C33.1087 25.1613 32.2947 25.4984 31.6945 26.0986C31.0943 26.6988 30.7571 27.5128 30.7571 28.3616C30.7576 29.2104 31.0948 30.0244 31.695 30.6241C32.2951 31.2243 33.1096 31.561 33.958 31.561C34.8067 31.561 35.6207 31.2234 36.221 30.6232C36.8207 30.0226 37.1579 29.2086 37.1574 28.3598C37.1565 27.5115 36.8188 26.6985 36.2186 26.0988C35.6189 25.499 34.8054 25.1619 33.9575 25.1614L33.9575 25.1613ZM33.9575 30.5155C33.3856 30.516 32.8369 30.2892 32.4324 29.8848C32.028 29.4808 31.8003 28.9325 31.8003 28.3607C31.7998 27.7888 32.0271 27.2401 32.4311 26.8356C32.8355 26.4312 33.3837 26.2039 33.9556 26.2039C34.5275 26.2039 35.0757 26.4307 35.4802 26.8351C35.8847 27.2396 36.1119 27.7878 36.1119 28.3597C36.1115 28.9311 35.8846 29.4789 35.4807 29.8833C35.0767 30.2873 34.5289 30.5151 33.9575 30.5155L33.9575 30.5155Z" fill="#6B9C66"/>
<path d="M59.9999 12.9932C59.9999 9.47007 57.7076 6.59998 54.8896 6.59998C52.0715 6.59998 49.7807 9.47007 49.7807 12.9932C49.7807 16.2983 51.7965 19.0256 54.3701 19.3568V19.3827V21.3674C53.8024 21.488 53.2931 21.7997 52.9277 22.2505C52.5622 22.7009 52.3623 23.2635 52.3609 23.8437V50.8562C52.3609 51.7611 52.8437 52.5973 53.6271 53.0496C54.411 53.5018 55.3761 53.5018 56.1595 53.0496C56.9434 52.5974 57.4257 51.7611 57.4257 50.8562V23.8437C57.4248 23.2635 57.2249 22.7009 56.8594 22.2505C56.4935 21.7997 55.9847 21.488 55.417 21.3674V19.379V19.3531C57.9833 19.0256 60 16.2983 60 12.9933L59.9999 12.9932ZM56.3765 23.84V50.8525C56.3765 51.6739 55.7109 52.3394 54.8896 52.3394C54.0681 52.3394 53.4026 51.6738 53.4026 50.8525V23.84C53.4026 23.0186 54.0682 22.3531 54.8896 22.3531C55.711 22.3531 56.3765 23.0186 56.3765 23.84ZM54.8896 18.3414C52.6479 18.3414 50.8248 15.9417 50.8248 12.9937C50.8248 10.0457 52.6428 7.6445 54.8896 7.6445C57.1363 7.64403 58.9609 10.0443 58.9609 12.9932C58.9609 15.9426 57.1312 18.3414 54.8896 18.3414Z" fill="#6B9C66"/>
<path d="M8.77116 14.6413V7.47766C8.77116 7.19056 8.53879 6.95819 8.25169 6.95819C7.96505 6.95819 7.73222 7.19056 7.73222 7.47766V14.6413C7.73222 16.9167 6.42054 18.3865 4.39086 18.3865C2.36071 18.3865 1.03894 16.9162 1.03894 14.6413V7.47766C1.03894 7.19056 0.806575 6.95819 0.519471 6.95819C0.232367 6.95819 0 7.19056 0 7.47766V14.6413C0 17.2673 1.55841 19.1542 3.86356 19.4023V21.0076V21.0072C3.29586 21.1278 2.78658 21.4395 2.42115 21.8903C2.05572 22.3411 1.85576 22.9037 1.85437 23.484V50.4964C1.85437 51.4009 2.3372 52.2371 3.12058 52.6894C3.90442 53.1421 4.86956 53.1421 5.65298 52.6894C6.43683 52.2372 6.91918 51.4008 6.91918 50.4964V23.484C6.91825 22.9037 6.71835 22.3411 6.35287 21.8903C5.98693 21.4395 5.47812 21.1278 4.91046 21.0072V19.4019C7.20777 19.1542 8.77129 17.2619 8.77129 14.6413L8.77116 14.6413ZM5.87281 23.4839V50.4964C5.87281 51.3173 5.20677 51.9833 4.38588 51.9833C3.56446 51.9833 2.89894 51.3173 2.89894 50.4964V23.4839C2.89894 22.6625 3.56452 21.997 4.38588 21.997C5.20683 21.997 5.87281 22.6625 5.87281 23.4839Z" fill="#6B9C66"/>
<path d="M3.19648 15.5104C3.33424 15.5104 3.46642 15.4557 3.56383 15.3583C3.66123 15.2609 3.71595 15.1287 3.71595 14.9909V7.47815C3.71595 7.19105 3.48312 6.95868 3.19648 6.95868C2.90938 6.95868 2.67701 7.19105 2.67701 7.47815V14.9882C2.67609 15.1264 2.73082 15.2595 2.82821 15.3574C2.92561 15.4553 3.05826 15.5105 3.19648 15.5105V15.5104Z" fill="#6B9C66"/>
<path d="M5.57599 15.5104C5.71375 15.5104 5.84593 15.4557 5.94334 15.3583C6.04074 15.2609 6.09546 15.1287 6.09546 14.9909V7.47815C6.09546 7.19105 5.8631 6.95868 5.57599 6.95868C5.28935 6.95868 5.05652 7.19105 5.05652 7.47815V14.9882C5.05606 15.1264 5.11032 15.2595 5.20772 15.3574C5.30558 15.4553 5.43777 15.5105 5.57599 15.5105V15.5104Z" fill="#6B9C66"/>
</svg>
