<svg xmlns="http://www.w3.org/2000/svg" id="圖層_1" data-name="圖層 1" viewBox="0 0 193.63 193.41"><defs><style>.cls-1{opacity:0.25;}.cls-2{fill:#6b9c66;}</style></defs><g class="cls-1"><path class="cls-2" d="M153.42,25.9l-.83-.44c-.66.88-1.32,1.79-2,2.8l-.43.6a6.64,6.64,0,0,1-3.56-1.31c-2.9-2.05-3.6-5.25-1.45-8.29s5.41-3.38,8.36-1.29a6.45,6.45,0,0,1,2.19,2.54L154,22.72l-.76-.54,1-2.72a2.81,2.81,0,0,0-.82-.83c-1.73-1.23-4.06-.76-6.14,2.18-1.93,2.73-1.79,5.28-.14,6.44a4.13,4.13,0,0,0,.86.49l.65-.92c.65-.91,1.25-1.79,1.87-2.72L149.33,23l.29-.42,4.09,2.9Z"/><path class="cls-2" d="M165.27,36.4c-2.77,2.74-5.94,2.39-7.94.38s-2.32-5.19.46-7.94,6-2.35,7.94-.36S168,33.67,165.27,36.4Zm-7.53,0c1.29,1.3,3.48.31,5.67-1.86s3.2-4.34,1.91-5.64-3.49-.31-5.66,1.85S156.44,35.07,157.74,36.38Z"/><path class="cls-2" d="M170.3,51.76l-.42.29-2.94-4.18.42-.3.89,1,1.84-2.41-2-2.82-2.81,1,.65,1.26-.41.3-2-2.81.42-.3.86.92,10.59-3.3.89,1.28-6.6,9Zm.13-6,3.25-4.29-5.06,1.73Z"/><path class="cls-2" d="M175.62,63.37l-3.78-7.81.46-.21.71,1.14c1.37-.61,2.73-1.27,3.81-1.79l1-.47c1.4-.68,2.8-1.35,4.17-2.07l-.48-1.27.45-.22,2.37,4.89-.45.22-.77-1.26c-1.37.63-2.75,1.3-4,1.89l-.88.42c-1.33.65-2.74,1.33-4.13,2l1.36,2.81,2.83-.54.35.73Z"/><path class="cls-2" d="M185,70.13c-.3,2.43-.91,3.49-2.53,4-1.91.59-3.66-.45-4.5-3.14a6.89,6.89,0,0,1-.18-3.61l2.5-.66.26.83-2.26,1.53a4.14,4.14,0,0,0,.22,1.47c.44,1.42,1.36,2,2.48,1.65,1-.3,1.36-.88,1.51-2.18l.08-.78c.27-2.19.91-3.5,2.63-4,1.93-.6,3.52.62,4.25,3a5.56,5.56,0,0,1,.09,3.17l-2.38.59-.26-.83,2.15-1.47a2.26,2.26,0,0,0-.11-1c-.39-1.25-1.27-1.85-2.35-1.52s-1.35,1-1.49,2.16Z"/><path class="cls-2" d="M187.39,96.77l-.18-.92c-1.09,0-2.22.09-3.44.16l-.74,0a6.59,6.59,0,0,1-1.2-3.59c-.21-3.55,1.85-6.09,5.56-6.31s6,2.11,6.23,5.72a6.39,6.39,0,0,1-.62,3.29l-2.74.11-.06-.93,2.72-.94a3,3,0,0,0,.15-1.17c-.13-2.11-1.95-3.64-5.54-3.43-3.34.2-5.23,1.91-5.12,3.91a3.94,3.94,0,0,0,.17,1l1.12-.06c1.11-.07,2.17-.15,3.29-.24l.1-1.62.51,0,.3,5Z"/><path class="cls-2" d="M186.6,112.57c-3.88-.45-5.58-3.14-5.26-6s2.6-5,6.49-4.6,5.56,3.19,5.23,6S190.45,113,186.6,112.57Zm-4.69-5.89c-.21,1.82,1.92,2.91,5,3.27s5.39-.22,5.6-2-1.94-2.92-5-3.27S182.12,104.85,181.91,106.68Z"/><path class="cls-2" d="M177.74,126.12l-.49-.14,1.44-4.92.49.15-.23,1.32,3-.07,1-3.31-2.5-1.59-.59,1.3-.49-.14,1-3.3.49.14-.18,1.25,9.19,6.22-.44,1.49-11.19.48Zm4.79-3.67,5.39-.13-4.51-2.88Z"/><path class="cls-2" d="M172,137.49l3.74-7.82.46.23-.46,1.27c1.33.69,2.7,1.34,3.78,1.86l1,.46c1.4.67,2.8,1.33,4.21,2l.69-1.17.46.22-2.34,4.9-.46-.22.51-1.38c-1.35-.68-2.73-1.34-4-1.92l-.88-.42c-1.34-.64-2.75-1.32-4.17-2l-1.34,2.81,2.18,1.88-.35.73Z"/><path class="cls-2" d="M172.55,149.06c-2.08,1.28-3.29,1.46-4.69.51-1.66-1.12-1.94-3.14-.36-5.47a6.83,6.83,0,0,1,2.71-2.39l2.08,1.53-.49.72-2.61-.8a4.1,4.1,0,0,0-1,1.09c-.83,1.23-.71,2.31.26,3s1.53.52,2.64-.18l.67-.42c1.87-1.16,3.3-1.48,4.79-.47,1.67,1.13,1.71,3.14.34,5.16a5.48,5.48,0,0,1-2.41,2l-1.95-1.48.49-.72,2.49.76a2.2,2.2,0,0,0,.69-.7c.73-1.08.66-2.15-.27-2.78a2.18,2.18,0,0,0-2.62.18Z"/><path class="cls-2" d="M153.21,167.58l.61-.72c-.72-.83-1.46-1.67-2.28-2.59l-.49-.54a6.62,6.62,0,0,1,2-3.19c2.64-2.38,5.91-2.36,8.4.4s2.11,6-.57,8.44a6.51,6.51,0,0,1-3,1.58l-1.8-2.08.69-.63,2.44,1.54a2.73,2.73,0,0,0,1-.62c1.57-1.41,1.63-3.79-.78-6.46-2.24-2.48-4.75-2.9-6.25-1.55a4.17,4.17,0,0,0-.66.74l.75.83c.74.83,1.47,1.61,2.24,2.42l1.33-.93.34.38L153.55,168Z"/><path class="cls-2" d="M140.4,176.82c-2.07-3.31-1-6.33,1.37-7.83s5.57-1.13,7.65,2.19,1,6.34-1.39,7.83S142.46,180.12,140.4,176.82Zm1.67-7.35c-1.55,1-1.07,3.33.57,5.95s3.53,4.07,5.08,3.1,1.07-3.33-.55-5.93S143.64,168.5,142.07,169.47Z"/><path class="cls-2" d="M124.31,178.34l-.2-.47,4.73-2,.2.47-1.18.65,2,2.33,3.19-1.31-.33-2.95-1.37.35-.2-.47,3.18-1.31.19.48-1.08.64.88,11-1.44.59L125.47,178Zm5.85,1.45,3.46,4.12-.56-5.31Z"/><path class="cls-2" d="M111.8,181l8.45-2,.1.5-1.27.43c.3,1.48.64,3,.91,4.12l.24,1c.35,1.52.7,3,1.1,4.52l1.34-.19.11.5-5.29,1.23-.11-.5,1.4-.46c-.31-1.49-.66-3-1-4.29l-.22-.95c-.34-1.45-.69-3-1.07-4.48l-3,.7-.11,2.87-.79.19Z"/><path class="cls-2" d="M103.12,188.6c-2.31-.83-3.2-1.66-3.34-3.35-.15-2,1.25-3.47,4.06-3.69a6.82,6.82,0,0,1,3.56.63l.1,2.58-.87.06-1-2.54a4.17,4.17,0,0,0-1.48-.1c-1.48.11-2.25.88-2.16,2.05.08,1,.56,1.52,1.8,1.95l.74.25c2.07.74,3.21,1.66,3.35,3.46.16,2-1.38,3.3-3.82,3.49a5.52,5.52,0,0,1-3.1-.62l0-2.44.86-.07,1,2.42a2.28,2.28,0,0,0,1,.1c1.3-.1,2.08-.82,2-1.95s-.69-1.54-1.77-1.93Z"/><path class="cls-2" d="M76.61,185.08l.93,0c.21-1.07.4-2.18.6-3.39l.12-.73A6.69,6.69,0,0,1,82,180.6c3.51.57,5.54,3.14,4.94,6.81s-3.37,5.4-6.94,4.82A6.28,6.28,0,0,1,77,190.91l.5-2.7.92.15.32,2.86a2.83,2.83,0,0,0,1.11.4c2.08.34,4-1.1,4.55-4.65.54-3.3-.71-5.53-2.69-5.85a4.24,4.24,0,0,0-1-.06l-.18,1.11c-.17,1.1-.33,2.15-.48,3.27l1.55.45-.08.5-5-.81Z"/><path class="cls-2" d="M61.37,180.83c1.29-3.68,4.3-4.75,7-3.81s4.36,3.65,3.06,7.34-4.34,4.72-7,3.79S60.07,184.49,61.37,180.83Zm6.78-3.27c-1.73-.61-3.27,1.23-4.29,4.14s-1,5.3.74,5.91,3.27-1.24,4.29-4.13S69.89,178.17,68.15,177.56Z"/><path class="cls-2" d="M50.12,169.18l.25-.45,4.47,2.49-.25.44-1.24-.51-.6,3,3,1.68,2.11-2.09-1.14-.86.25-.44,3,1.67-.25.44-1.17-.45-8.1,7.58-1.36-.76,2-11Zm2.52,5.48-1.07,5.28,3.81-3.76Z"/><path class="cls-2" d="M40.28,161l6.8,5.38-.33.39-1.13-.72c-1,1.15-1.9,2.33-2.65,3.28l-.66.83c-1,1.22-1.93,2.44-2.85,3.68l1,.93-.32.4-4.26-3.37.32-.4,1.23.8c1-1.17,1.92-2.36,2.75-3.42l.61-.77c.92-1.16,1.89-2.39,2.83-3.63l-2.44-1.94-2.31,1.72-.64-.51Z"/><path class="cls-2" d="M28.89,159.05c-.8-2.32-.71-3.54.53-4.7,1.45-1.36,3.49-1.19,5.42.86a6.83,6.83,0,0,1,1.73,3.17l-2,1.69-.6-.63,1.36-2.37a4.21,4.21,0,0,0-.84-1.23c-1-1.08-2.1-1.2-2.95-.4s-.84,1.39-.4,2.62l.26.74c.72,2.08.72,3.55-.59,4.78-1.48,1.39-3.44,1-5.12-.8a5.52,5.52,0,0,1-1.46-2.8l1.88-1.58.59.64-1.29,2.26a2.24,2.24,0,0,0,.54.83c.89,1,1.95,1.12,2.77.34a2.18,2.18,0,0,0,.4-2.59Z"/><path class="cls-2" d="M15.08,136.14l.56.75c1-.51,2-1,3-1.65l.64-.36a6.65,6.65,0,0,1,2.66,2.7c1.74,3.1,1,6.29-2.24,8.11s-6.33.74-8.11-2.41a6.46,6.46,0,0,1-.89-3.24l2.43-1.29.45.81-2,2a2.82,2.82,0,0,0,.38,1.11c1,1.84,3.34,2.42,6.48.66,2.92-1.64,3.88-4,2.89-5.76a4.39,4.39,0,0,0-.58-.81l-1,.55c-1,.55-1.89,1.08-2.85,1.66l.62,1.49-.45.25-2.46-4.36Z"/><path class="cls-2" d="M8.89,121.55c3.68-1.29,6.4.39,7.33,3.07s-.14,5.69-3.84,7-6.4-.45-7.32-3.1S5.22,122.82,8.89,121.55Zm6.79,3.26c-.6-1.73-3-1.78-5.93-.77S5,126.58,5.6,128.31s3,1.78,5.91.78S16.28,126.55,15.68,124.81Z"/><path class="cls-2" d="M11,105.53l.5-.08.85,5-.5.09-.37-1.3-2.71,1.39.58,3.4,2.95.34,0-1.42.51-.08.57,3.38-.51.09-.38-1.2-11-1.59-.26-1.54,9.87-5.31Zm-2.72,5.39-4.79,2.46,5.31.63Z"/><path class="cls-2" d="M11.15,92.74l.14,8.67h-.51l-.15-1.33c-1.51,0-3,0-4.22,0l-1.06,0c-1.56,0-3.11,0-4.65.12l-.1,1.35H.09L0,96.16H.51l.16,1.47c1.51,0,3,0,4.39,0l1,0c1.48,0,3,0,4.6-.1l-.05-3.12-2.78-.71,0-.81Z"/><path class="cls-2" d="M5.63,82.59c1.31-2.07,2.31-2.76,4-2.52,2,.28,3.11,2,2.71,4.77A6.76,6.76,0,0,1,11,88.17L8.41,87.7l.12-.86,2.7-.42A4,4,0,0,0,11.66,85c.21-1.47-.37-2.39-1.53-2.55s-1.6.21-2.29,1.32l-.42.67C6.25,86.3,5.1,87.21,3.32,87c-2-.29-2.92-2.07-2.57-4.49A5.57,5.57,0,0,1,2,79.58l2.4.48-.13.86-2.57.4a2.32,2.32,0,0,0-.31.94c-.19,1.29.35,2.22,1.46,2.38s1.65-.34,2.28-1.31Z"/><path class="cls-2" d="M14.92,57.51l-.24.9c1,.44,2,.88,3.18,1.34l.68.28a6.63,6.63,0,0,1-.46,3.76c-1.33,3.3-4.29,4.71-7.73,3.31s-4.53-4.5-3.17-7.85a6.47,6.47,0,0,1,2-2.71l2.52,1.09-.35.86-2.86-.32a2.8,2.8,0,0,0-.63,1c-.8,2,.18,4.13,3.52,5.48,3.1,1.26,5.55.54,6.3-1.32a4.35,4.35,0,0,0,.28-1l-1-.42c-1-.42-2-.81-3.08-1.21L13,62.15,12.56,62l1.89-4.65Z"/><path class="cls-2" d="M22.46,43.6c3.3,2.08,3.68,5.25,2.16,7.65s-4.53,3.43-7.84,1.34-3.63-5.28-2.14-7.65S19.18,41.53,22.46,43.6Zm1.68,7.34c1-1.55-.47-3.46-3.09-5.11s-4.95-2.13-5.92-.58.48,3.46,3.07,5.1S23.16,52.5,24.14,50.94Z"/><path class="cls-2" d="M36.28,35.21l.38.34-3.41,3.81L32.87,39l.78-1.1-2.77-1.24-2.29,2.57,1.57,2.51,1.09-.92.38.34-2.29,2.56L29,43.4l.69-1L24,32.79l1-1.16L35.38,36Zm-5.9,1.24-4.91-2.2,2.82,4.54Z"/><path class="cls-2" d="M46.38,27.4l-6.74,5.46-.31-.41,1-.94c-.91-1.2-1.86-2.37-2.61-3.31L37,27.38c-1-1.22-2-2.42-3-3.59l-1.12.76-.32-.4,4.22-3.42.32.4-1.06,1c.93,1.19,1.89,2.38,2.74,3.43l.62.76c.93,1.15,1.91,2.37,2.92,3.56l2.42-2-1.16-2.63.63-.51Z"/><path class="cls-2" d="M50.84,16.7c2.44-.26,3.61.09,4.47,1.55,1,1.72.4,3.67-2,5.1a6.94,6.94,0,0,1-3.47,1l-1.22-2.28.75-.44,2,1.84a4,4,0,0,0,1.38-.55c1.28-.75,1.63-1.78,1-2.79s-1.17-1.12-2.47-1l-.78.09c-2.19.25-3.61-.08-4.53-1.63-1-1.75-.2-3.57,1.9-4.81A5.49,5.49,0,0,1,51,12l1.13,2.17-.75.45L49.4,12.87a2.34,2.34,0,0,0-.93.34c-1.12.66-1.51,1.66-.94,2.63a2.19,2.19,0,0,0,2.45,1Z"/><path class="cls-2" d="M76.26,8.31l-.85.38c.28,1.06.58,2.15.93,3.33l.21.7a6.76,6.76,0,0,1-3.23,2c-3.41,1-6.35-.42-7.41-4s.69-6.34,4.16-7.36a6.34,6.34,0,0,1,3.35-.15l.73,2.65-.9.26L71.72,3.68a2.82,2.82,0,0,0-1.17.13c-2,.6-3.11,2.72-2.09,6.17,1,3.21,3,4.67,5,4.1a4.44,4.44,0,0,0,.92-.38L74,12.62c-.31-1.06-.63-2.08-1-3.15l-1.59.27-.15-.49,4.81-1.42Z"/><path class="cls-2" d="M91.8,5.52C92.23,9.4,90,11.67,87.18,12s-5.51-1.39-6-5.28S83.08.56,85.87.25,91.37,1.66,91.8,5.52Zm-4.68,5.9c1.82-.21,2.4-2.54,2.06-5.61S87.75.62,85.93.82s-2.4,2.55-2.06,5.59S85.28,11.62,87.12,11.42Z"/><path class="cls-2" d="M107,11.07l0,.51-5.11-.27,0-.51,1.34-.08-.76-2.94L99,7.59l-1,2.8,1.4.27,0,.51L96,11l0-.51,1.26-.11,4-10.37,1.56.08,3,10.79Zm-4.66-3.83L101,2l-1.78,5Z"/><path class="cls-2" d="M119.39,14.08l-8.47-1.86.13-.49,1.33.15c.36-1.45.69-2.93.94-4.1l.23-1c.33-1.53.66-3,1-4.56l-1.29-.4.11-.5,5.3,1.16-.11.5-1.46-.18c-.36,1.47-.68,3-1,4.28l-.21,1c-.32,1.45-.65,3-1,4.51l3,.66,1.33-2.55.79.18Z"/><path class="cls-2" d="M130.54,10.9c1.73,1.73,2.18,2.87,1.57,4.45-.71,1.86-2.61,2.6-5.24,1.59a6.86,6.86,0,0,1-3-2.09l1-2.37.82.31-.19,2.72a4.12,4.12,0,0,0,1.29.74c1.39.53,2.41.16,2.83-.93s.15-1.61-.79-2.53l-.56-.55c-1.55-1.56-2.19-2.88-1.55-4.56.73-1.89,2.67-2.38,5-1.51a5.64,5.64,0,0,1,2.54,1.88l-1,2.24-.81-.31.17-2.6a2.35,2.35,0,0,0-.84-.52c-1.22-.46-2.24-.15-2.65.9a2.21,2.21,0,0,0,.78,2.52Z"/></g></svg>