<svg width="363" height="356" viewBox="0 0 363 356" fill="none" xmlns="http://www.w3.org/2000/svg">
<g filter="url(#filter0_b_868_5850)">
<path d="M141.863 77.4078C153.051 69.9315 166.202 65.9439 179.654 65.9494C197.682 65.9567 214.97 73.1291 227.717 85.8899C229.715 87.8898 231.576 90.0014 233.293 92.2099C233.058 93.7623 232.782 95.2999 232.506 96.837C232.309 97.932 232.113 99.0269 231.931 100.127C231.768 100.5 231.554 100.848 231.296 101.163C231.222 100.893 231.185 100.614 231.185 100.334C231.252 99.126 231.333 97.9131 231.415 96.7012C231.469 95.9026 231.522 95.1044 231.572 94.3084C231.683 93.5301 231.738 92.745 231.738 91.9589C231.75 91.6297 231.669 91.3036 231.503 91.0192C231.279 90.6457 230.916 90.3764 230.494 90.2701C230.073 90.1639 229.626 90.2295 229.252 90.4525C228.94 90.6024 228.644 90.7829 228.368 90.9915C227.894 91.3752 227.417 91.7559 226.941 92.1366C225.615 93.1958 224.291 94.2542 223.011 95.3725C222.557 95.7854 222.198 96.2923 221.96 96.8579C221.721 97.4236 221.609 98.0344 221.63 98.6479C221.621 99.4779 221.595 100.308 221.565 101.138C214.805 92.3924 205.475 85.9388 194.843 82.7191C183.039 79.1444 170.363 79.7771 158.973 84.5092C147.583 89.2414 138.185 97.7802 132.381 108.67C126.576 119.561 124.725 132.129 127.141 144.232C129.558 156.336 136.093 167.226 145.633 175.048C155.174 182.869 167.128 187.137 179.46 187.125C193.587 187.11 207.131 181.484 217.115 171.48C225.83 162.748 231.251 151.261 232.452 138.977C233.287 130.444 232.05 121.894 228.919 114.029C230.342 114.371 231.764 114.705 233.187 115.025C234.218 115.247 235.295 115.053 236.184 114.486C238.538 112.969 240.892 111.429 243.197 109.839C246.099 117.484 247.629 125.663 247.631 134C247.633 147.464 243.647 160.626 236.175 171.821C228.703 183.017 218.081 191.743 205.653 196.896C193.226 202.049 179.551 203.397 166.357 200.77C153.164 198.143 141.046 191.659 131.535 182.138C122.024 172.616 115.548 160.486 112.926 147.281C110.304 134.075 111.654 120.388 116.805 107.951C121.956 95.5132 130.676 84.8841 141.863 77.4078Z" fill="white"/>
<path d="M241.789 106.414C241.525 105.819 241.252 105.227 240.972 104.639C240.837 104.607 240.703 104.574 240.568 104.542C238.7 104.091 236.829 103.639 234.969 103.07C234.522 102.886 234.025 102.864 233.563 103.008C233.102 103.151 232.705 103.452 232.442 103.858L234.527 104.494L241.789 106.414Z" fill="white"/>
<path d="M177.691 108.067C176.601 106.324 174.98 104.979 173.067 104.231C172.86 106.249 173.288 110.271 179.115 113.905C179.28 111.857 178.78 109.809 177.691 108.067Z" fill="white"/>
<path fill-rule="evenodd" clip-rule="evenodd" d="M221.409 106.337C219.53 103.468 217.349 100.783 214.892 98.33C205.487 88.9433 192.742 83.6789 179.46 83.6945C167.87 83.708 156.643 87.7436 147.692 95.1137C138.742 102.484 132.621 112.732 130.374 124.113C128.127 135.493 129.892 147.301 135.368 157.525C140.845 167.749 149.694 175.756 160.408 180.182C171.122 184.607 183.037 185.177 194.124 181.795C205.211 178.413 214.783 171.288 221.209 161.634C227.636 151.98 230.518 140.394 229.366 128.851C228.819 123.366 227.377 118.053 225.134 113.107C224.919 113.054 224.704 113.001 224.489 112.949C224.005 112.83 223.522 112.711 223.038 112.592C222.641 112.454 222.257 112.278 221.892 112.067L200.231 129.351C202.751 133.285 204.121 137.891 204.121 142.638C204.119 147.504 202.674 152.259 199.97 156.304C197.267 160.348 193.426 163.499 188.933 165.358C184.44 167.217 179.497 167.7 174.729 166.747C169.962 165.794 165.584 163.448 162.149 160.004C158.714 156.56 156.377 152.174 155.433 147.401C154.488 142.628 154.98 137.681 156.845 133.187C158.71 128.694 161.864 124.854 165.91 122.155C169.955 119.456 174.709 118.018 179.571 118.024C186.086 118.035 192.33 120.633 196.933 125.248C197.529 125.845 198.09 126.469 198.617 127.118C201.157 125.121 203.687 123.117 206.206 121.106L218.841 110.948L219.076 110.768C220.953 109.911 221.368 108.308 221.409 106.456C221.409 106.416 221.409 106.377 221.409 106.337ZM186.749 102.843C189.05 101.529 191.655 100.84 194.304 100.845C194.5 100.851 194.693 100.895 194.872 100.975C195.05 101.055 195.212 101.169 195.347 101.312C195.481 101.454 195.586 101.622 195.656 101.805C195.726 101.988 195.759 102.183 195.754 102.379C195.756 102.574 195.719 102.767 195.645 102.947C195.572 103.128 195.463 103.291 195.325 103.429C195.188 103.567 195.024 103.676 194.844 103.749C194.664 103.823 194.471 103.86 194.276 103.858C191.289 103.845 188.398 104.92 186.144 106.883C183.891 108.847 182.428 111.564 182.029 114.527C181.975 114.847 181.943 115.171 181.932 115.495V115.661C181.901 115.874 181.821 116.078 181.697 116.255C181.685 116.449 181.628 116.638 181.532 116.808C181.428 117.04 181.262 117.239 181.052 117.383C180.843 117.526 180.598 117.61 180.344 117.623H180.206C179.975 117.624 179.747 117.567 179.543 117.457C175.953 115.661 171.41 112.427 170.306 107.368C169.886 105.5 170.02 103.55 170.692 101.757C170.835 101.436 171.086 101.175 171.402 101.021C171.717 100.867 172.077 100.829 172.418 100.914C174.385 101.315 176.219 102.204 177.752 103.501C179.284 104.798 180.466 106.461 181.186 108.336C182.53 106.051 184.448 104.157 186.749 102.843Z" fill="white"/>
<path fill-rule="evenodd" clip-rule="evenodd" d="M196.096 129.143C193.848 126.365 190.933 124.187 187.61 122.821C183.699 121.213 179.398 120.802 175.253 121.64C171.109 122.479 167.305 124.529 164.325 127.531C161.344 130.534 159.321 134.354 158.51 138.508C157.699 142.661 158.137 146.963 159.769 150.867C161.401 154.772 164.154 158.104 167.679 160.442C171.203 162.781 175.342 164.02 179.571 164.004C185.234 163.978 190.655 161.706 194.647 157.685C198.638 153.664 200.874 148.223 200.863 142.555C200.852 138.603 199.749 134.738 197.683 131.383L193.243 134.926C193.182 135.071 193.092 135.203 192.978 135.313C192.865 135.428 192.729 135.518 192.578 135.575C192.498 135.609 192.415 135.636 192.33 135.654L189.186 138.163C189.31 138.221 189.422 138.305 189.513 138.409C189.632 138.52 189.726 138.655 189.791 138.805C189.855 138.955 189.887 139.116 189.885 139.279V139.307C189.886 139.472 189.854 139.635 189.79 139.788C189.726 139.94 189.631 140.077 189.513 140.191C189.404 140.315 189.266 140.41 189.112 140.468C188.962 140.522 188.803 140.551 188.643 140.551C188.478 140.552 188.314 140.524 188.159 140.468C188.005 140.41 187.867 140.315 187.759 140.191C187.644 140.075 187.55 139.94 187.483 139.791C187.453 139.722 187.429 139.651 187.412 139.578L180.772 144.876L180.8 141.477L185.494 137.718C189.905 134.193 192.437 132.14 196.096 129.143ZM194.028 129.882C194.029 130.052 193.996 130.221 193.931 130.379C193.87 130.524 193.781 130.655 193.669 130.766C193.558 130.893 193.415 130.989 193.255 131.042C193.105 131.104 192.946 131.136 192.785 131.139C192.624 131.135 192.465 131.102 192.316 131.042C192.156 130.989 192.013 130.893 191.901 130.766C191.789 130.655 191.7 130.524 191.639 130.379C191.574 130.221 191.541 130.052 191.542 129.882C191.54 129.72 191.573 129.559 191.639 129.412C191.699 129.258 191.791 129.119 191.907 129.003C192.023 128.886 192.163 128.795 192.316 128.734C192.465 128.675 192.624 128.642 192.785 128.638C192.946 128.641 193.105 128.673 193.255 128.734C193.408 128.795 193.547 128.886 193.663 129.003C193.78 129.119 193.871 129.258 193.931 129.412C193.997 129.559 194.03 129.72 194.028 129.882ZM196.969 135.686C197.035 135.538 197.068 135.378 197.066 135.216C197.067 135.051 197.034 134.888 196.97 134.735C196.906 134.583 196.812 134.446 196.693 134.332C196.583 134.212 196.446 134.122 196.292 134.069C196.145 134.003 195.984 133.97 195.823 133.972C195.657 133.969 195.492 134.002 195.34 134.069C195.189 134.127 195.052 134.216 194.939 134.332C194.824 134.448 194.731 134.583 194.663 134.732C194.539 135.038 194.539 135.38 194.663 135.686C194.72 135.84 194.815 135.978 194.939 136.087C195.051 136.211 195.187 136.309 195.34 136.377C195.494 136.433 195.658 136.461 195.823 136.46C195.983 136.46 196.142 136.432 196.292 136.377C196.445 136.309 196.581 136.211 196.693 136.087C196.816 135.978 196.911 135.84 196.969 135.686ZM194.511 140.33C194.584 140.184 194.617 140.022 194.608 139.86C194.619 139.697 194.585 139.535 194.511 139.39C194.457 139.23 194.362 139.086 194.235 138.975C194.061 138.792 193.835 138.668 193.587 138.621C193.339 138.574 193.083 138.606 192.854 138.713C192.703 138.77 192.567 138.86 192.454 138.975C192.33 139.087 192.24 139.231 192.191 139.39C192.124 139.537 192.091 139.698 192.095 139.86C192.105 140.188 192.233 140.501 192.454 140.744C192.567 140.86 192.703 140.949 192.854 141.007C193.084 141.106 193.338 141.134 193.584 141.087C193.83 141.04 194.057 140.921 194.235 140.744C194.356 140.628 194.45 140.486 194.511 140.33ZM199.454 141.656C199.521 141.504 199.554 141.339 199.551 141.173C199.554 141.006 199.521 140.841 199.454 140.689C199.397 140.538 199.307 140.401 199.192 140.288C199.068 140.176 198.929 140.083 198.778 140.012C198.628 139.955 198.469 139.927 198.308 139.929C198.148 139.929 197.989 139.957 197.839 140.012C197.688 140.083 197.548 140.176 197.425 140.288C197.309 140.401 197.22 140.538 197.162 140.689C197.038 140.999 197.038 141.346 197.162 141.656C197.22 141.807 197.309 141.944 197.425 142.057C197.546 142.169 197.686 142.258 197.839 142.32C197.986 142.386 198.147 142.419 198.308 142.416C198.472 142.418 198.634 142.387 198.786 142.325C198.938 142.263 199.076 142.172 199.192 142.057C199.307 141.944 199.397 141.807 199.454 141.656ZM192.785 144.6C192.79 144.766 192.76 144.931 192.696 145.083C192.631 145.236 192.534 145.373 192.412 145.485C192.308 145.604 192.175 145.694 192.026 145.747C191.795 145.846 191.541 145.874 191.295 145.827C191.049 145.78 190.823 145.661 190.645 145.485C190.472 145.305 190.355 145.078 190.308 144.833C190.261 144.587 190.287 144.333 190.382 144.103C190.44 143.952 190.529 143.815 190.645 143.702C190.766 143.593 190.9 143.5 191.045 143.425C191.355 143.301 191.702 143.301 192.012 143.425C192.157 143.492 192.288 143.586 192.398 143.702C192.522 143.813 192.621 143.95 192.688 144.103C192.751 144.261 192.784 144.43 192.785 144.6ZM191.447 151.866C191.511 151.714 191.543 151.551 191.542 151.386C191.545 151.224 191.512 151.063 191.446 150.916C191.379 150.762 191.286 150.622 191.169 150.501C191.056 150.386 190.92 150.296 190.769 150.239C190.621 150.172 190.461 150.139 190.299 150.142C190.133 150.132 189.966 150.166 189.816 150.239C189.665 150.296 189.529 150.386 189.416 150.501C189.304 150.625 189.21 150.765 189.14 150.916C189.016 151.222 189.016 151.564 189.14 151.869C189.207 152.018 189.301 152.154 189.416 152.27C189.525 152.39 189.663 152.48 189.816 152.533C189.965 152.61 190.132 152.648 190.299 152.643C190.462 152.641 190.622 152.603 190.769 152.533C190.922 152.48 191.06 152.39 191.169 152.27C191.288 152.156 191.383 152.018 191.447 151.866ZM197.673 146.562C197.679 146.725 197.65 146.887 197.588 147.037C197.526 147.187 197.433 147.322 197.314 147.433C197.205 147.557 197.068 147.652 196.914 147.71C196.759 147.768 196.596 147.801 196.43 147.806C196.269 147.802 196.11 147.769 195.961 147.71C195.804 147.649 195.663 147.555 195.547 147.433C195.405 147.286 195.301 147.107 195.244 146.911C195.187 146.715 195.179 146.508 195.219 146.308C195.26 146.108 195.349 145.921 195.478 145.763C195.607 145.605 195.773 145.481 195.961 145.402C196.11 145.342 196.269 145.309 196.43 145.305C196.596 145.31 196.759 145.343 196.914 145.402C197.217 145.533 197.459 145.775 197.59 146.079C197.646 146.234 197.674 146.398 197.673 146.562ZM196.334 151.869C196.395 151.715 196.427 151.551 196.43 151.386C196.426 151.053 196.293 150.736 196.058 150.501C195.945 150.386 195.808 150.296 195.657 150.239C195.51 150.172 195.349 150.139 195.188 150.142C195.021 150.132 194.855 150.166 194.704 150.239C194.554 150.296 194.417 150.386 194.304 150.501C194.192 150.625 194.099 150.765 194.028 150.916C193.904 151.222 193.904 151.564 194.028 151.869C194.095 152.018 194.189 152.154 194.304 152.27C194.413 152.39 194.551 152.48 194.704 152.533C194.854 152.61 195.02 152.648 195.188 152.643C195.35 152.641 195.511 152.603 195.657 152.533C195.811 152.48 195.948 152.39 196.058 152.27C196.177 152.158 196.271 152.021 196.334 151.869ZM190.217 157.494C190.219 157.656 190.186 157.816 190.12 157.964C189.994 158.275 189.751 158.523 189.444 158.655C189.293 158.71 189.134 158.738 188.974 158.738C188.809 158.739 188.646 158.711 188.491 158.655C188.342 158.587 188.206 158.494 188.09 158.379C187.968 158.264 187.873 158.122 187.814 157.964C187.705 157.66 187.705 157.328 187.814 157.024C187.877 156.869 187.971 156.727 188.09 156.61C188.203 156.494 188.34 156.405 188.491 156.347C188.643 156.281 188.808 156.248 188.974 156.25C189.136 156.248 189.296 156.281 189.444 156.347C189.749 156.475 189.993 156.718 190.12 157.024C190.186 157.172 190.219 157.332 190.217 157.494Z" fill="white"/>
<path fill-rule="evenodd" clip-rule="evenodd" d="M136.234 68.9606C149.086 60.3654 164.196 55.7778 179.653 55.7778C200.381 55.7778 220.26 64.019 234.916 78.6885C249.573 93.358 257.807 113.254 257.807 134C257.807 149.471 253.223 164.594 244.636 177.458C236.048 190.321 223.842 200.347 209.561 206.268C195.281 212.188 179.567 213.737 164.406 210.719C149.246 207.701 135.321 200.251 124.391 189.311C113.461 178.372 106.017 164.434 103.002 149.26C99.9862 134.087 101.534 118.359 107.449 104.066C113.364 89.7724 123.381 77.5558 136.234 68.9606ZM139.632 193.945C151.475 201.877 165.403 206.117 179.653 206.127C189.122 206.135 198.499 204.274 207.248 200.653C215.998 197.031 223.949 191.72 230.646 185.021C237.344 178.323 242.657 170.369 246.282 161.615C249.907 152.86 251.773 143.477 251.773 134C251.773 119.737 247.548 105.794 239.632 93.9338C231.716 82.0737 220.464 72.8289 207.299 67.3682C194.134 61.9074 179.648 60.4758 165.67 63.2544C151.692 66.0329 138.852 72.8969 128.771 82.9786C118.691 93.0603 111.823 105.907 109.036 119.895C106.249 133.882 107.668 148.383 113.114 161.564C118.56 174.744 127.788 186.013 139.632 193.945Z" fill="white"/>
<path d="M258.898 91.0054C259.5 91.2124 260.072 91.5006 260.596 91.8622C261.715 92.5809 261.798 93.2995 260.831 94.184C260.065 94.8503 259.263 95.4731 258.428 96.0498C256.026 98.109 253.527 100.058 250.958 101.896C247.777 94.7803 243.546 88.1836 238.407 82.3263L244.731 77.0332C245.256 76.5885 245.778 76.1375 246.301 75.685C247.11 74.9844 247.924 74.2805 248.763 73.592C249.215 73.1944 249.705 72.8426 250.226 72.5416C250.575 72.3536 250.983 72.3106 251.363 72.4218C251.743 72.533 252.064 72.7896 252.256 73.1359C252.377 73.3561 252.438 73.6036 252.436 73.8546C252.454 74.3187 252.412 74.7832 252.311 75.2366C252.197 75.9487 252.084 76.6628 251.97 77.3781C251.561 79.9529 251.15 82.5439 250.696 85.118C250.593 85.771 250.541 86.4302 250.484 87.151C250.457 87.4982 250.428 87.8595 250.392 88.2414C251.221 88.5496 252.019 88.8035 252.8 89.0524C253.385 89.2387 253.961 89.4222 254.534 89.6234C255.241 89.8713 256.033 90.1116 256.825 90.3523C257.535 90.5677 258.246 90.7835 258.898 91.0054Z" fill="white"/>
<path d="M46.2778 235.58H42.0278C41.9066 234.883 41.6831 234.265 41.3573 233.727C41.0316 233.182 40.6263 232.72 40.1414 232.341C39.6566 231.962 39.1035 231.678 38.4823 231.489C37.8687 231.292 37.2058 231.193 36.4937 231.193C35.2285 231.193 34.1073 231.511 33.1301 232.148C32.1528 232.777 31.3876 233.701 30.8346 234.92C30.2816 236.133 30.0051 237.614 30.0051 239.364C30.0051 241.144 30.2816 242.644 30.8346 243.864C31.3952 245.076 32.1604 245.992 33.1301 246.614C34.1073 247.227 35.2248 247.534 36.4823 247.534C37.1793 247.534 37.8308 247.443 38.4369 247.261C39.0505 247.072 39.5998 246.795 40.0846 246.432C40.577 246.068 40.9899 245.621 41.3232 245.091C41.6641 244.561 41.899 243.955 42.0278 243.273L46.2778 243.295C46.1187 244.402 45.774 245.439 45.2437 246.409C44.721 247.379 44.0354 248.235 43.1869 248.977C42.3384 249.712 41.346 250.288 40.2096 250.705C39.0732 251.114 37.8119 251.318 36.4255 251.318C34.3801 251.318 32.5543 250.845 30.9482 249.898C29.3422 248.951 28.077 247.583 27.1528 245.795C26.2285 244.008 25.7664 241.864 25.7664 239.364C25.7664 236.856 26.2323 234.712 27.1641 232.932C28.096 231.144 29.3649 229.777 30.971 228.83C32.577 227.883 34.3952 227.409 36.4255 227.409C37.721 227.409 38.9255 227.591 40.0391 227.955C41.1528 228.318 42.1452 228.852 43.0164 229.557C43.8876 230.254 44.6035 231.11 45.1641 232.125C45.7323 233.133 46.1035 234.284 46.2778 235.58ZM55.9904 240.773V251H51.8768V227.727H55.8995V236.511H56.104C56.5131 235.527 57.1457 234.75 58.0018 234.182C58.8654 233.606 59.9639 233.318 61.2972 233.318C62.5093 233.318 63.5662 233.572 64.4677 234.08C65.3692 234.587 66.0662 235.33 66.5586 236.307C67.0586 237.284 67.3086 238.477 67.3086 239.886V251H63.1949V240.523C63.1949 239.348 62.8919 238.436 62.2859 237.784C61.6874 237.125 60.8465 236.795 59.7631 236.795C59.0359 236.795 58.3843 236.955 57.8086 237.273C57.2404 237.583 56.7934 238.034 56.4677 238.625C56.1495 239.216 55.9904 239.932 55.9904 240.773ZM81.0354 251.341C79.3309 251.341 77.8536 250.966 76.6036 250.216C75.3536 249.466 74.3839 248.417 73.6945 247.068C73.0127 245.72 72.6718 244.144 72.6718 242.341C72.6718 240.538 73.0127 238.958 73.6945 237.602C74.3839 236.246 75.3536 235.193 76.6036 234.443C77.8536 233.693 79.3309 233.318 81.0354 233.318C82.7399 233.318 84.2172 233.693 85.4672 234.443C86.7172 235.193 87.6831 236.246 88.3649 237.602C89.0543 238.958 89.399 240.538 89.399 242.341C89.399 244.144 89.0543 245.72 88.3649 247.068C87.6831 248.417 86.7172 249.466 85.4672 250.216C84.2172 250.966 82.7399 251.341 81.0354 251.341ZM81.0581 248.045C81.9824 248.045 82.7551 247.792 83.3763 247.284C83.9975 246.769 84.4596 246.08 84.7627 245.216C85.0733 244.352 85.2286 243.39 85.2286 242.33C85.2286 241.261 85.0733 240.295 84.7627 239.432C84.4596 238.561 83.9975 237.867 83.3763 237.352C82.7551 236.837 81.9824 236.58 81.0581 236.58C80.1112 236.58 79.3233 236.837 78.6945 237.352C78.0733 237.867 77.6074 238.561 77.2968 239.432C76.9937 240.295 76.8422 241.261 76.8422 242.33C76.8422 243.39 76.9937 244.352 77.2968 245.216C77.6074 246.08 78.0733 246.769 78.6945 247.284C79.3233 247.792 80.1112 248.045 81.0581 248.045ZM102.424 251.341C100.72 251.341 99.2423 250.966 97.9923 250.216C96.7423 249.466 95.7726 248.417 95.0832 247.068C94.4014 245.72 94.0605 244.144 94.0605 242.341C94.0605 240.538 94.4014 238.958 95.0832 237.602C95.7726 236.246 96.7423 235.193 97.9923 234.443C99.2423 233.693 100.72 233.318 102.424 233.318C104.129 233.318 105.606 233.693 106.856 234.443C108.106 235.193 109.072 236.246 109.754 237.602C110.443 238.958 110.788 240.538 110.788 242.341C110.788 244.144 110.443 245.72 109.754 247.068C109.072 248.417 108.106 249.466 106.856 250.216C105.606 250.966 104.129 251.341 102.424 251.341ZM102.447 248.045C103.371 248.045 104.144 247.792 104.765 247.284C105.386 246.769 105.848 246.08 106.151 245.216C106.462 244.352 106.617 243.39 106.617 242.33C106.617 241.261 106.462 240.295 106.151 239.432C105.848 238.561 105.386 237.867 104.765 237.352C104.144 236.837 103.371 236.58 102.447 236.58C101.5 236.58 100.712 236.837 100.083 237.352C99.462 237.867 98.9961 238.561 98.6855 239.432C98.3825 240.295 98.231 241.261 98.231 242.33C98.231 243.39 98.3825 244.352 98.6855 245.216C98.9961 246.08 99.462 246.769 100.083 247.284C100.712 247.792 101.5 248.045 102.447 248.045ZM129.995 238.159L126.245 238.568C126.139 238.189 125.953 237.833 125.688 237.5C125.43 237.167 125.082 236.898 124.642 236.693C124.203 236.489 123.665 236.386 123.029 236.386C122.173 236.386 121.453 236.572 120.87 236.943C120.294 237.314 120.01 237.795 120.017 238.386C120.01 238.894 120.195 239.307 120.574 239.625C120.961 239.943 121.597 240.205 122.483 240.409L125.461 241.045C127.112 241.402 128.339 241.966 129.142 242.739C129.953 243.511 130.362 244.523 130.37 245.773C130.362 246.871 130.04 247.841 129.404 248.682C128.775 249.515 127.9 250.167 126.779 250.636C125.658 251.106 124.37 251.341 122.915 251.341C120.779 251.341 119.059 250.894 117.756 250C116.453 249.098 115.677 247.845 115.427 246.239L119.438 245.852C119.62 246.64 120.006 247.235 120.597 247.636C121.188 248.038 121.957 248.239 122.904 248.239C123.881 248.239 124.665 248.038 125.256 247.636C125.855 247.235 126.154 246.739 126.154 246.148C126.154 245.648 125.961 245.235 125.574 244.909C125.195 244.583 124.605 244.333 123.802 244.159L120.824 243.534C119.15 243.186 117.911 242.598 117.108 241.773C116.305 240.939 115.908 239.886 115.915 238.614C115.908 237.538 116.199 236.606 116.79 235.818C117.389 235.023 118.218 234.409 119.279 233.977C120.347 233.538 121.578 233.318 122.972 233.318C125.017 233.318 126.627 233.754 127.802 234.625C128.983 235.496 129.714 236.674 129.995 238.159ZM143.409 251.341C141.659 251.341 140.148 250.977 138.875 250.25C137.61 249.515 136.636 248.477 135.954 247.136C135.273 245.788 134.932 244.201 134.932 242.375C134.932 240.58 135.273 239.004 135.954 237.648C136.644 236.284 137.606 235.223 138.841 234.466C140.076 233.701 141.526 233.318 143.193 233.318C144.269 233.318 145.284 233.492 146.239 233.841C147.201 234.182 148.049 234.712 148.784 235.432C149.526 236.152 150.11 237.068 150.534 238.182C150.958 239.288 151.17 240.606 151.17 242.136V243.398H136.864V240.625H147.227C147.22 239.837 147.049 239.136 146.716 238.523C146.383 237.902 145.917 237.413 145.318 237.057C144.727 236.701 144.038 236.523 143.25 236.523C142.409 236.523 141.67 236.727 141.034 237.136C140.398 237.538 139.901 238.068 139.545 238.727C139.197 239.379 139.019 240.095 139.011 240.875V243.295C139.011 244.311 139.197 245.182 139.568 245.909C139.939 246.629 140.458 247.182 141.125 247.568C141.792 247.947 142.572 248.136 143.466 248.136C144.064 248.136 144.606 248.053 145.091 247.886C145.576 247.712 145.996 247.458 146.352 247.125C146.708 246.792 146.977 246.379 147.159 245.886L151 246.318C150.758 247.333 150.295 248.22 149.614 248.977C148.939 249.727 148.076 250.311 147.023 250.727C145.97 251.136 144.765 251.341 143.409 251.341ZM168.985 257.545C168.424 257.545 167.905 257.5 167.428 257.409C166.958 257.326 166.583 257.227 166.303 257.114L167.258 253.909C167.856 254.083 168.39 254.167 168.86 254.159C169.33 254.152 169.742 254.004 170.098 253.716C170.462 253.436 170.769 252.966 171.019 252.307L171.371 251.364L165.042 233.545H169.405L173.428 246.727H173.61L177.644 233.545H182.019L175.03 253.114C174.705 254.038 174.273 254.83 173.735 255.489C173.197 256.155 172.538 256.663 171.758 257.011C170.985 257.367 170.061 257.545 168.985 257.545ZM193.805 251.341C192.101 251.341 190.624 250.966 189.374 250.216C188.124 249.466 187.154 248.417 186.464 247.068C185.783 245.72 185.442 244.144 185.442 242.341C185.442 240.538 185.783 238.958 186.464 237.602C187.154 236.246 188.124 235.193 189.374 234.443C190.624 233.693 192.101 233.318 193.805 233.318C195.51 233.318 196.987 233.693 198.237 234.443C199.487 235.193 200.453 236.246 201.135 237.602C201.824 238.958 202.169 240.538 202.169 242.341C202.169 244.144 201.824 245.72 201.135 247.068C200.453 248.417 199.487 249.466 198.237 250.216C196.987 250.966 195.51 251.341 193.805 251.341ZM193.828 248.045C194.752 248.045 195.525 247.792 196.146 247.284C196.768 246.769 197.23 246.08 197.533 245.216C197.843 244.352 197.999 243.39 197.999 242.33C197.999 241.261 197.843 240.295 197.533 239.432C197.23 238.561 196.768 237.867 196.146 237.352C195.525 236.837 194.752 236.58 193.828 236.58C192.881 236.58 192.093 236.837 191.464 237.352C190.843 237.867 190.377 238.561 190.067 239.432C189.764 240.295 189.612 241.261 189.612 242.33C189.612 243.39 189.764 244.352 190.067 245.216C190.377 246.08 190.843 246.769 191.464 247.284C192.093 247.792 192.881 248.045 193.828 248.045ZM218.706 243.659V233.545H222.819V251H218.831V247.898H218.649C218.255 248.875 217.607 249.674 216.706 250.295C215.812 250.917 214.709 251.227 213.399 251.227C212.255 251.227 211.243 250.973 210.365 250.466C209.493 249.951 208.812 249.205 208.319 248.227C207.827 247.242 207.581 246.053 207.581 244.659V233.545H211.694V244.023C211.694 245.129 211.997 246.008 212.603 246.659C213.209 247.311 214.005 247.636 214.99 247.636C215.596 247.636 216.183 247.489 216.751 247.193C217.319 246.898 217.785 246.458 218.149 245.875C218.52 245.284 218.706 244.545 218.706 243.659ZM228.969 251V233.545H232.958V236.455H233.14C233.458 235.447 234.003 234.67 234.776 234.125C235.556 233.572 236.447 233.295 237.447 233.295C237.674 233.295 237.928 233.307 238.208 233.33C238.496 233.345 238.734 233.371 238.924 233.409V237.193C238.75 237.133 238.473 237.08 238.094 237.034C237.723 236.981 237.363 236.955 237.015 236.955C236.265 236.955 235.59 237.117 234.992 237.443C234.401 237.761 233.935 238.205 233.594 238.773C233.253 239.341 233.083 239.996 233.083 240.739V251H228.969ZM262.275 233.545V236.727H251.957V233.545H262.275ZM254.537 251V231.898C254.537 230.723 254.779 229.746 255.264 228.966C255.756 228.186 256.415 227.602 257.241 227.216C258.067 226.83 258.983 226.636 259.991 226.636C260.703 226.636 261.336 226.693 261.889 226.807C262.442 226.92 262.851 227.023 263.116 227.114L262.298 230.295C262.124 230.242 261.904 230.189 261.639 230.136C261.374 230.076 261.078 230.045 260.752 230.045C259.987 230.045 259.446 230.231 259.127 230.602C258.817 230.966 258.662 231.489 258.662 232.17V251H254.537ZM274.374 251.341C272.67 251.341 271.192 250.966 269.942 250.216C268.692 249.466 267.723 248.417 267.033 247.068C266.351 245.72 266.011 244.144 266.011 242.341C266.011 240.538 266.351 238.958 267.033 237.602C267.723 236.246 268.692 235.193 269.942 234.443C271.192 233.693 272.67 233.318 274.374 233.318C276.079 233.318 277.556 233.693 278.806 234.443C280.056 235.193 281.022 236.246 281.704 237.602C282.393 238.958 282.738 240.538 282.738 242.341C282.738 244.144 282.393 245.72 281.704 247.068C281.022 248.417 280.056 249.466 278.806 250.216C277.556 250.966 276.079 251.341 274.374 251.341ZM274.397 248.045C275.321 248.045 276.094 247.792 276.715 247.284C277.336 246.769 277.798 246.08 278.101 245.216C278.412 244.352 278.567 243.39 278.567 242.33C278.567 241.261 278.412 240.295 278.101 239.432C277.798 238.561 277.336 237.867 276.715 237.352C276.094 236.837 275.321 236.58 274.397 236.58C273.45 236.58 272.662 236.837 272.033 237.352C271.412 237.867 270.946 238.561 270.636 239.432C270.332 240.295 270.181 241.261 270.181 242.33C270.181 243.39 270.332 244.352 270.636 245.216C270.946 246.08 271.412 246.769 272.033 247.284C272.662 247.792 273.45 248.045 274.397 248.045ZM295.763 251.341C294.058 251.341 292.581 250.966 291.331 250.216C290.081 249.466 289.111 248.417 288.422 247.068C287.74 245.72 287.399 244.144 287.399 242.341C287.399 240.538 287.74 238.958 288.422 237.602C289.111 236.246 290.081 235.193 291.331 234.443C292.581 233.693 294.058 233.318 295.763 233.318C297.467 233.318 298.945 233.693 300.195 234.443C301.445 235.193 302.411 236.246 303.092 237.602C303.782 238.958 304.127 240.538 304.127 242.341C304.127 244.144 303.782 245.72 303.092 247.068C302.411 248.417 301.445 249.466 300.195 250.216C298.945 250.966 297.467 251.341 295.763 251.341ZM295.786 248.045C296.71 248.045 297.483 247.792 298.104 247.284C298.725 246.769 299.187 246.08 299.49 245.216C299.801 244.352 299.956 243.39 299.956 242.33C299.956 241.261 299.801 240.295 299.49 239.432C299.187 238.561 298.725 237.867 298.104 237.352C297.483 236.837 296.71 236.58 295.786 236.58C294.839 236.58 294.051 236.837 293.422 237.352C292.801 237.867 292.335 238.561 292.024 239.432C291.721 240.295 291.57 241.261 291.57 242.33C291.57 243.39 291.721 244.352 292.024 245.216C292.335 246.08 292.801 246.769 293.422 247.284C294.051 247.792 294.839 248.045 295.786 248.045ZM316.015 251.307C314.644 251.307 313.417 250.955 312.333 250.25C311.25 249.545 310.394 248.523 309.765 247.182C309.136 245.841 308.822 244.212 308.822 242.295C308.822 240.356 309.14 238.72 309.777 237.386C310.421 236.045 311.288 235.034 312.379 234.352C313.47 233.663 314.686 233.318 316.027 233.318C317.049 233.318 317.89 233.492 318.549 233.841C319.208 234.182 319.731 234.595 320.118 235.08C320.504 235.557 320.803 236.008 321.015 236.432H321.186V227.727H325.311V251H321.265V248.25H321.015C320.803 248.674 320.496 249.125 320.095 249.602C319.693 250.072 319.163 250.473 318.504 250.807C317.845 251.14 317.015 251.307 316.015 251.307ZM317.163 247.932C318.034 247.932 318.777 247.697 319.39 247.227C320.004 246.75 320.47 246.087 320.788 245.239C321.106 244.39 321.265 243.402 321.265 242.273C321.265 241.144 321.106 240.163 320.788 239.33C320.477 238.496 320.015 237.848 319.402 237.386C318.796 236.924 318.049 236.693 317.163 236.693C316.246 236.693 315.481 236.932 314.868 237.409C314.254 237.886 313.792 238.545 313.481 239.386C313.171 240.227 313.015 241.189 313.015 242.273C313.015 243.364 313.171 244.337 313.481 245.193C313.799 246.042 314.265 246.712 314.879 247.205C315.5 247.689 316.261 247.932 317.163 247.932ZM336.444 247.818L336.296 249.068C336.19 250.023 336.001 250.992 335.728 251.977C335.463 252.97 335.182 253.883 334.887 254.716C334.592 255.549 334.353 256.205 334.171 256.682H331.398C331.504 256.22 331.648 255.591 331.83 254.795C332.02 254 332.201 253.106 332.376 252.114C332.55 251.121 332.667 250.114 332.728 249.091L332.807 247.818H336.444Z" fill="white"/>
<path d="M44.8074 295V277.545H48.796V280.455H48.9778C49.296 279.447 49.8415 278.67 50.6142 278.125C51.3945 277.572 52.2847 277.295 53.2847 277.295C53.5119 277.295 53.7657 277.307 54.046 277.33C54.3339 277.345 54.5725 277.371 54.7619 277.409V281.193C54.5877 281.133 54.3112 281.08 53.9324 281.034C53.5612 280.981 53.2013 280.955 52.8528 280.955C52.1028 280.955 51.4286 281.117 50.8301 281.443C50.2392 281.761 49.7733 282.205 49.4324 282.773C49.0915 283.341 48.921 283.996 48.921 284.739V295H44.8074ZM66.4234 295.341C64.6734 295.341 63.1621 294.977 61.8893 294.25C60.6242 293.515 59.6507 292.477 58.9689 291.136C58.2871 289.788 57.9461 288.201 57.9461 286.375C57.9461 284.58 58.2871 283.004 58.9689 281.648C59.6583 280.284 60.6204 279.223 61.8552 278.466C63.0901 277.701 64.5408 277.318 66.2075 277.318C67.2833 277.318 68.2984 277.492 69.253 277.841C70.2151 278.182 71.0636 278.712 71.7984 279.432C72.5408 280.152 73.1242 281.068 73.5484 282.182C73.9727 283.288 74.1848 284.606 74.1848 286.136V287.398H59.878V284.625H70.2416C70.234 283.837 70.0636 283.136 69.7302 282.523C69.3969 281.902 68.931 281.413 68.3325 281.057C67.7416 280.701 67.0522 280.523 66.2643 280.523C65.4234 280.523 64.6848 280.727 64.0484 281.136C63.4121 281.538 62.9158 282.068 62.5598 282.727C62.2113 283.379 62.0333 284.095 62.0257 284.875V287.295C62.0257 288.311 62.2113 289.182 62.5825 289.909C62.9537 290.629 63.4727 291.182 64.1393 291.568C64.806 291.947 65.5863 292.136 66.4802 292.136C67.0787 292.136 67.6204 292.053 68.1052 291.886C68.5901 291.712 69.0105 291.458 69.3666 291.125C69.7227 290.792 69.9916 290.379 70.1734 289.886L74.0143 290.318C73.7719 291.333 73.3098 292.22 72.628 292.977C71.9537 293.727 71.0901 294.311 70.0371 294.727C68.984 295.136 67.7795 295.341 66.4234 295.341ZM84.6076 295.352C83.5016 295.352 82.5053 295.155 81.619 294.761C80.7402 294.36 80.0432 293.769 79.5281 292.989C79.0205 292.208 78.7667 291.246 78.7667 290.102C78.7667 289.117 78.9485 288.303 79.3122 287.659C79.6758 287.015 80.172 286.5 80.8008 286.114C81.4296 285.727 82.1379 285.436 82.9258 285.239C83.7213 285.034 84.5432 284.886 85.3917 284.795C86.4144 284.689 87.244 284.595 87.8803 284.511C88.5167 284.42 88.9788 284.284 89.2667 284.102C89.5622 283.913 89.7099 283.621 89.7099 283.227V283.159C89.7099 282.303 89.4561 281.64 88.9485 281.17C88.441 280.701 87.7099 280.466 86.7553 280.466C85.7478 280.466 84.9485 280.686 84.3576 281.125C83.7743 281.564 83.3803 282.083 83.1758 282.682L79.3349 282.136C79.6379 281.076 80.1379 280.189 80.8349 279.477C81.5319 278.758 82.3841 278.22 83.3917 277.864C84.3993 277.5 85.5129 277.318 86.7326 277.318C87.5735 277.318 88.4107 277.417 89.244 277.614C90.0773 277.811 90.8387 278.136 91.5281 278.591C92.2175 279.038 92.7705 279.648 93.1872 280.42C93.6114 281.193 93.8235 282.159 93.8235 283.318V295H89.869V292.602H89.7326C89.4826 293.087 89.1303 293.542 88.6758 293.966C88.2288 294.383 87.6644 294.72 86.9826 294.977C86.3084 295.227 85.5167 295.352 84.6076 295.352ZM85.6758 292.33C86.5016 292.33 87.2175 292.167 87.8235 291.841C88.4296 291.508 88.8955 291.068 89.2213 290.523C89.5546 289.977 89.7213 289.383 89.7213 288.739V286.682C89.5925 286.788 89.3728 286.886 89.0622 286.977C88.7591 287.068 88.4182 287.148 88.0394 287.216C87.6607 287.284 87.2857 287.345 86.9144 287.398C86.5432 287.451 86.2213 287.496 85.9485 287.534C85.3349 287.617 84.7857 287.754 84.3008 287.943C83.816 288.133 83.4334 288.398 83.1531 288.739C82.8728 289.072 82.7326 289.504 82.7326 290.034C82.7326 290.792 83.0091 291.364 83.5622 291.75C84.1152 292.136 84.8197 292.33 85.6758 292.33ZM107.494 295.341C105.751 295.341 104.255 294.958 103.005 294.193C101.762 293.428 100.804 292.371 100.13 291.023C99.4632 289.667 99.1299 288.106 99.1299 286.341C99.1299 284.568 99.4708 283.004 100.153 281.648C100.834 280.284 101.797 279.223 103.039 278.466C104.289 277.701 105.766 277.318 107.471 277.318C108.887 277.318 110.141 277.58 111.232 278.102C112.331 278.617 113.206 279.348 113.857 280.295C114.509 281.235 114.88 282.333 114.971 283.591H111.039C110.88 282.75 110.501 282.049 109.903 281.489C109.312 280.92 108.52 280.636 107.528 280.636C106.687 280.636 105.948 280.864 105.312 281.318C104.675 281.765 104.179 282.409 103.823 283.25C103.475 284.091 103.3 285.098 103.3 286.273C103.3 287.462 103.475 288.485 103.823 289.341C104.172 290.189 104.66 290.845 105.289 291.307C105.925 291.761 106.672 291.989 107.528 291.989C108.134 291.989 108.675 291.875 109.153 291.648C109.637 291.413 110.043 291.076 110.369 290.636C110.694 290.197 110.918 289.663 111.039 289.034H114.971C114.872 290.269 114.509 291.364 113.88 292.318C113.251 293.265 112.395 294.008 111.312 294.545C110.228 295.076 108.956 295.341 107.494 295.341ZM124.382 284.773V295H120.269V271.727H124.291V280.511H124.496C124.905 279.527 125.538 278.75 126.394 278.182C127.257 277.606 128.356 277.318 129.689 277.318C130.901 277.318 131.958 277.572 132.86 278.08C133.761 278.587 134.458 279.33 134.95 280.307C135.45 281.284 135.7 282.477 135.7 283.886V295H131.587V284.523C131.587 283.348 131.284 282.436 130.678 281.784C130.079 281.125 129.238 280.795 128.155 280.795C127.428 280.795 126.776 280.955 126.2 281.273C125.632 281.583 125.185 282.034 124.86 282.625C124.541 283.216 124.382 283.932 124.382 284.773ZM154.228 301.545C153.667 301.545 153.148 301.5 152.671 301.409C152.201 301.326 151.826 301.227 151.546 301.114L152.501 297.909C153.099 298.083 153.633 298.167 154.103 298.159C154.573 298.152 154.986 298.004 155.342 297.716C155.705 297.436 156.012 296.966 156.262 296.307L156.614 295.364L150.285 277.545H154.648L158.671 290.727H158.853L162.887 277.545H167.262L160.273 297.114C159.948 298.038 159.516 298.83 158.978 299.489C158.44 300.155 157.781 300.663 157.001 301.011C156.228 301.367 155.304 301.545 154.228 301.545ZM179.049 295.341C177.344 295.341 175.867 294.966 174.617 294.216C173.367 293.466 172.397 292.417 171.708 291.068C171.026 289.72 170.685 288.144 170.685 286.341C170.685 284.538 171.026 282.958 171.708 281.602C172.397 280.246 173.367 279.193 174.617 278.443C175.867 277.693 177.344 277.318 179.049 277.318C180.753 277.318 182.23 277.693 183.48 278.443C184.73 279.193 185.696 280.246 186.378 281.602C187.067 282.958 187.412 284.538 187.412 286.341C187.412 288.144 187.067 289.72 186.378 291.068C185.696 292.417 184.73 293.466 183.48 294.216C182.23 294.966 180.753 295.341 179.049 295.341ZM179.071 292.045C179.996 292.045 180.768 291.792 181.389 291.284C182.011 290.769 182.473 290.08 182.776 289.216C183.086 288.352 183.242 287.39 183.242 286.33C183.242 285.261 183.086 284.295 182.776 283.432C182.473 282.561 182.011 281.867 181.389 281.352C180.768 280.837 179.996 280.58 179.071 280.58C178.124 280.58 177.336 280.837 176.708 281.352C176.086 281.867 175.621 282.561 175.31 283.432C175.007 284.295 174.855 285.261 174.855 286.33C174.855 287.39 175.007 288.352 175.31 289.216C175.621 290.08 176.086 290.769 176.708 291.284C177.336 291.792 178.124 292.045 179.071 292.045ZM203.949 287.659V277.545H208.062V295H204.074V291.898H203.892C203.498 292.875 202.85 293.674 201.949 294.295C201.055 294.917 199.952 295.227 198.642 295.227C197.498 295.227 196.487 294.973 195.608 294.466C194.737 293.951 194.055 293.205 193.562 292.227C193.07 291.242 192.824 290.053 192.824 288.659V277.545H196.937V288.023C196.937 289.129 197.24 290.008 197.846 290.659C198.452 291.311 199.248 291.636 200.233 291.636C200.839 291.636 201.426 291.489 201.994 291.193C202.562 290.898 203.028 290.458 203.392 289.875C203.763 289.284 203.949 288.545 203.949 287.659ZM214.212 295V277.545H218.201V280.455H218.383C218.701 279.447 219.246 278.67 220.019 278.125C220.8 277.572 221.69 277.295 222.69 277.295C222.917 277.295 223.171 277.307 223.451 277.33C223.739 277.345 223.978 277.371 224.167 277.409V281.193C223.993 281.133 223.716 281.08 223.337 281.034C222.966 280.981 222.606 280.955 222.258 280.955C221.508 280.955 220.834 281.117 220.235 281.443C219.644 281.761 219.178 282.205 218.837 282.773C218.496 283.341 218.326 283.996 218.326 284.739V295H214.212ZM246.268 301.909C244.791 301.909 243.522 301.708 242.461 301.307C241.401 300.913 240.549 300.383 239.905 299.716C239.261 299.049 238.814 298.311 238.564 297.5L242.268 296.602C242.435 296.943 242.677 297.28 242.996 297.614C243.314 297.955 243.742 298.235 244.28 298.455C244.825 298.682 245.511 298.795 246.336 298.795C247.503 298.795 248.469 298.511 249.234 297.943C249.999 297.383 250.382 296.458 250.382 295.17V291.864H250.177C249.965 292.288 249.655 292.723 249.246 293.17C248.844 293.617 248.31 293.992 247.643 294.295C246.984 294.598 246.155 294.75 245.155 294.75C243.814 294.75 242.598 294.436 241.507 293.807C240.424 293.17 239.56 292.223 238.916 290.966C238.28 289.701 237.961 288.117 237.961 286.216C237.961 284.299 238.28 282.682 238.916 281.364C239.56 280.038 240.427 279.034 241.518 278.352C242.609 277.663 243.825 277.318 245.166 277.318C246.189 277.318 247.03 277.492 247.689 277.841C248.355 278.182 248.886 278.595 249.28 279.08C249.674 279.557 249.973 280.008 250.177 280.432H250.405V277.545H254.461V295.284C254.461 296.777 254.105 298.011 253.393 298.989C252.681 299.966 251.708 300.697 250.473 301.182C249.238 301.667 247.836 301.909 246.268 301.909ZM246.302 291.523C247.174 291.523 247.916 291.311 248.53 290.886C249.143 290.462 249.609 289.852 249.927 289.057C250.246 288.261 250.405 287.307 250.405 286.193C250.405 285.095 250.246 284.133 249.927 283.307C249.617 282.481 249.155 281.841 248.541 281.386C247.935 280.924 247.189 280.693 246.302 280.693C245.386 280.693 244.621 280.932 244.007 281.409C243.393 281.886 242.931 282.542 242.621 283.375C242.31 284.201 242.155 285.14 242.155 286.193C242.155 287.261 242.31 288.197 242.621 289C242.939 289.795 243.405 290.417 244.018 290.864C244.64 291.303 245.401 291.523 246.302 291.523ZM268.211 295.341C266.506 295.341 265.029 294.966 263.779 294.216C262.529 293.466 261.56 292.417 260.87 291.068C260.188 289.72 259.847 288.144 259.847 286.341C259.847 284.538 260.188 282.958 260.87 281.602C261.56 280.246 262.529 279.193 263.779 278.443C265.029 277.693 266.506 277.318 268.211 277.318C269.916 277.318 271.393 277.693 272.643 278.443C273.893 279.193 274.859 280.246 275.541 281.602C276.23 282.958 276.575 284.538 276.575 286.341C276.575 288.144 276.23 289.72 275.541 291.068C274.859 292.417 273.893 293.466 272.643 294.216C271.393 294.966 269.916 295.341 268.211 295.341ZM268.234 292.045C269.158 292.045 269.931 291.792 270.552 291.284C271.173 290.769 271.635 290.08 271.938 289.216C272.249 288.352 272.404 287.39 272.404 286.33C272.404 285.261 272.249 284.295 271.938 283.432C271.635 282.561 271.173 281.867 270.552 281.352C269.931 280.837 269.158 280.58 268.234 280.58C267.287 280.58 266.499 280.837 265.87 281.352C265.249 281.867 264.783 282.561 264.472 283.432C264.169 284.295 264.018 285.261 264.018 286.33C264.018 287.39 264.169 288.352 264.472 289.216C264.783 290.08 265.249 290.769 265.87 291.284C266.499 291.792 267.287 292.045 268.234 292.045ZM287.009 295.352C285.903 295.352 284.907 295.155 284.02 294.761C283.141 294.36 282.444 293.769 281.929 292.989C281.422 292.208 281.168 291.246 281.168 290.102C281.168 289.117 281.35 288.303 281.713 287.659C282.077 287.015 282.573 286.5 283.202 286.114C283.831 285.727 284.539 285.436 285.327 285.239C286.123 285.034 286.944 284.886 287.793 284.795C288.816 284.689 289.645 284.595 290.282 284.511C290.918 284.42 291.38 284.284 291.668 284.102C291.963 283.913 292.111 283.621 292.111 283.227V283.159C292.111 282.303 291.857 281.64 291.35 281.17C290.842 280.701 290.111 280.466 289.157 280.466C288.149 280.466 287.35 280.686 286.759 281.125C286.176 281.564 285.782 282.083 285.577 282.682L281.736 282.136C282.039 281.076 282.539 280.189 283.236 279.477C283.933 278.758 284.785 278.22 285.793 277.864C286.801 277.5 287.914 277.318 289.134 277.318C289.975 277.318 290.812 277.417 291.645 277.614C292.479 277.811 293.24 278.136 293.929 278.591C294.619 279.038 295.172 279.648 295.588 280.42C296.013 281.193 296.225 282.159 296.225 283.318V295H292.27V292.602H292.134C291.884 293.087 291.532 293.542 291.077 293.966C290.63 294.383 290.066 294.72 289.384 294.977C288.71 295.227 287.918 295.352 287.009 295.352ZM288.077 292.33C288.903 292.33 289.619 292.167 290.225 291.841C290.831 291.508 291.297 291.068 291.623 290.523C291.956 289.977 292.123 289.383 292.123 288.739V286.682C291.994 286.788 291.774 286.886 291.463 286.977C291.16 287.068 290.819 287.148 290.441 287.216C290.062 287.284 289.687 287.345 289.316 287.398C288.944 287.451 288.623 287.496 288.35 287.534C287.736 287.617 287.187 287.754 286.702 287.943C286.217 288.133 285.835 288.398 285.554 288.739C285.274 289.072 285.134 289.504 285.134 290.034C285.134 290.792 285.41 291.364 285.963 291.75C286.516 292.136 287.221 292.33 288.077 292.33ZM306.395 271.727V295H302.281V271.727H306.395ZM317.579 271.727L317.204 288.159H313.545L313.181 271.727H317.579ZM315.374 295.25C314.685 295.25 314.094 295.008 313.602 294.523C313.117 294.038 312.874 293.447 312.874 292.75C312.874 292.068 313.117 291.485 313.602 291C314.094 290.515 314.685 290.273 315.374 290.273C316.049 290.273 316.632 290.515 317.124 291C317.624 291.485 317.874 292.068 317.874 292.75C317.874 293.212 317.757 293.633 317.522 294.011C317.295 294.39 316.992 294.693 316.613 294.92C316.242 295.14 315.829 295.25 315.374 295.25Z" fill="white"/>
</g>
<defs>
<filter id="filter0_b_868_5850" x="-10" y="-10" width="383" height="376" filterUnits="userSpaceOnUse" color-interpolation-filters="sRGB">
<feFlood flood-opacity="0" result="BackgroundImageFix"/>
<feGaussianBlur in="BackgroundImage" stdDeviation="5"/>
<feComposite in2="SourceAlpha" operator="in" result="effect1_backgroundBlur_868_5850"/>
<feBlend mode="normal" in="SourceGraphic" in2="effect1_backgroundBlur_868_5850" result="shape"/>
</filter>
</defs>
</svg>
