<?xml version="1.0" encoding="utf-8"?>
<!-- Generator: Adobe Illustrator 23.0.3, SVG Export Plug-In . SVG Version: 6.00 Build 0)  -->
<svg version="1.1" id="logo" xmlns="http://www.w3.org/2000/svg" xmlns:xlink="http://www.w3.org/1999/xlink" x="0px" y="0px"
	 viewBox="0 0 105 128" style="enable-background:new 0 0 105 128;" xml:space="preserve">
<style type="text/css">
	.st0{fill:#404040;}
	.st1{fill:#BBBBBB;}
	.st2{fill:#8A8A8A;}
	.st3{fill:#FFFFFF;}
	.st4{fill:#414042;}
</style>
<g>
	<g>
		<path class="st0" d="M93,111.3c-0.5-1-2.6-1.1-3.6-0.5c-0.2,0.1-4.4,3.9-8.3,9.4c-2.7-8-7-15.3-13.8-18.3L81,99.7
			c1.1-0.2,1.9-1.3,1.7-2.4L75.7,57l9.1-14.3c0.4-0.7,0.4-1.6,0-2.3c-0.5-0.7-1.3-1-2.1-0.9L67,42.2c-0.6,0.1-1.1,0.4-1.4,0.9
			l-9,14.1l-23.4,4.1L20,51.1c-0.5-0.4-1.1-0.5-1.7-0.4L2.7,53.4C1.9,53.6,1.2,54.2,1,55c-0.2,0.8,0.1,1.7,0.7,2.2l13.3,10.4
			l7.1,40.4c0.1,0.5,0.4,1,0.9,1.4c0.4,0.2,0.8,0.4,1.2,0.4c0.1,0,0.2,0,0.4,0l13.7-2.4c1.5,6.6-0.2,11.9-4.4,13.7
			c-3.9,1.6-9.8-0.2-14.5-8.1c-0.4-0.7-1.1-1-1.9-1c-0.8,0-1.4,0.4-1.8,1.1c-2.6,4.8-6.3,12.5-6.3,12.6c-0.5,1-0.1,1,1,1.5
			c0.3,0.1,0.6,0.2,0.9,0.2c0.8,0,1.5-0.4,1.9-1.2c0-0.1,2.4-5,4.6-9.3c5.7,7.4,12.8,8.9,17.7,6.8c4.7-2,8.5-6.6,6.2-16.9l20.1-3.4
			c2.6,0.8,13.8,5.1,16.8,21.1c0.2,0.9,0.9,1.6,1.8,1.7c0.1,0,0.2,0,0.3,0c0.8,0,1.6-0.5,1.9-1.2c3.4-7.5,9.2-10.7,9.2-10.7
			C92.9,113.5,93.5,112.3,93,111.3z M41.6,102.4l-6.5-37l36.7-6.4l6.5,37L41.6,102.4z M68.6,46.2l10-1.7l-6.4,10.1l-10,1.8
			L68.6,46.2z M18.1,55l9.5,7.4l-10,1.8l-9.5-7.4L18.1,55z M19.5,68.1l11.5-2l6.5,37c0,0-11.5,2-11.5,2L19.5,68.1z"/>
	</g>
	<g>
		<path class="st1" d="M41.2,103.6l-6.9-39.5l39.1-6.8l6.9,39.5L41.2,103.6z M68.6,44.1l12.8-2.2l-8.2,12.9L60.4,57L68.6,44.1z"/>
	</g>
	<g>
		<path class="st2" d="M17.7,54l11.5,8.5l-12.1,2L5.6,56.1L17.7,54z M18,67l12.9-2.1l7.3,39.5c0,0-12.9,2.1-12.9,2.1L18,67z"/>
	</g>
	<g>
		<polygon class="st3" points="72,73.4 64.3,74.8 56.7,76.1 55.7,70.5 54.7,65 62.4,63.6 70,62.3 71,67.9 		"/>
	</g>
	<rect x="39.4" y="29.6" class="st4" width="3" height="3"/>
	<path class="st4" d="M40.9,14.6c-2.8,0-5.1,2.3-5.1,5.1v0.3h3v-0.3c0-1.1,0.9-2,2-2s2,0.9,2,2c0,0.6-0.2,1.1-0.7,1.5l-2.9,2.7v3.4
		h3v-2l1.9-1.7c1.1-1,1.7-2.3,1.7-3.8C46,16.9,43.7,14.6,40.9,14.6z"/>
	<path class="st4" d="M31.7,10.3l-6.1-6.1c-0.2-0.2-0.5-0.3-0.8-0.3H12.5c-0.6,0-1.1,0.5-1.1,1.1v23c0,0.6,0.5,1.1,1.1,1.1h18.4
		c0.6,0,1.1-0.5,1.1-1.1V11.1C32,10.8,31.9,10.6,31.7,10.3z M25.9,10V7.7l2.4,2.4H25.9z M13.6,6.1h10.1v5c0,0.6,0.5,1.1,1.1,1.1h5
		v14.6H13.6V6.1z"/>
	<rect x="15.2" y="18.5" class="st4" width="12.6" height="2.2"/>
	<rect x="15.2" y="14.7" class="st4" width="12.6" height="2.2"/>
	<rect x="17.9" y="22.3" class="st4" width="9.9" height="2.2"/>
	<rect x="15.2" y="22.3" class="st4" width="2" height="2.2"/>
	<g>
		<path class="st0" d="M98.3,69.6c-0.9,0-1.9-0.1-3-0.5l-0.1,0c-5.4-1.7-6.1-1.9-8.3-2.1l-3.1-0.2L89,62c0.3-0.3,4.7-4.4,10.5-2.7
			c2.3,0.7,3.8,1.8,4.6,3.2c0.8,1.6,0.4,3.1,0.3,3.3l0,0.1C103.7,67.3,101.8,69.6,98.3,69.6z M90,64.7c1.3,0.3,2.9,0.8,6,1.8l0.1,0
			c4.1,1.3,5.5-1.2,5.7-1.7c0.1-0.3,0.3-2-3.1-3c-4.3-1.3-7.7,1.9-7.9,2.1l0,0L90,64.7z"/>
	</g>
	<g>
		<path class="st0" d="M86.1,59.4l-0.1-5.7c0-0.4-0.1-5,3.8-7.5c1.6-1,3-1.3,4.3-1c1.5,0.4,2.1,1.5,2.2,1.6l0,0.1
			c0.7,1.4,1,4.8-2.8,7.1l-0.8,0.5c-2.4,1.5-2.4,1.5-3.8,2.6L86.1,59.4z M93.1,47.8c-0.5,0-1.1,0.2-1.9,0.7
			c-2.7,1.7-2.6,5.1-2.6,5.1l0,0.3c0.6-0.4,1.2-0.8,2.7-1.7l0.8-0.5c2.4-1.5,1.9-3.1,1.8-3.6C93.8,48,93.5,47.8,93.1,47.8z"/>
	</g>
	<g>
		<path class="st0" d="M55.6,7.5C48.4,0.4,37.5-0.9,29,3.7l1.9,2.1c7.2-3.5,17-2.7,22.9,3.2c7.4,7.4,7.5,20.8,0.1,28.1
			c-2.6,2.6-6.6,4.8-10.1,5.5L43.1,43l-3.3,5.6L36.4,43l-0.7-0.2c-3.5-0.8-7.4-2.9-9.9-5.4c-1.5-1.5-2.8-3.5-3.7-5.5h-3
			c0.8,1.9,1.8,3.7,3.2,5.4c1,1.3,2.4,2.6,2.4,2.6c2.7,2.5,6,4.3,9.5,5.2l5.6,7.6l5.6-7.6c3.9-1,7.4-3,10.2-5.8
			C64.3,30.4,64.3,16.3,55.6,7.5z"/>
	</g>
</g>
</svg>
