<svg width="120" height="120" viewBox="0 0 120 120" fill="none" xmlns="http://www.w3.org/2000/svg">
<path d="M30.2725 17.5559C38.663 11.9487 48.5264 8.95795 58.6152 8.96205C72.1368 8.96755 85.1028 14.3468 94.663 23.9174C96.1614 25.4174 97.5568 27.001 98.8449 28.6575C98.6684 29.8217 98.4614 30.9749 98.2544 32.1277C98.1069 32.949 97.9595 33.7702 97.8231 34.595C97.7006 34.8747 97.5403 35.1363 97.3467 35.3724C97.2913 35.1698 97.2634 34.9606 97.2639 34.7505C97.3138 33.8446 97.3751 32.9349 97.4362 32.0259C97.4765 31.427 97.5168 30.8283 97.5539 30.2313C97.637 29.6476 97.6785 29.0588 97.6781 28.4692C97.6878 28.2223 97.6267 27.9777 97.5021 27.7644C97.3343 27.4843 97.0623 27.2823 96.7458 27.2026C96.4294 27.1229 96.0943 27.1721 95.8141 27.3394C95.5803 27.4518 95.3582 27.5872 95.1513 27.7437C94.7953 28.0314 94.4379 28.317 94.0806 28.6025C93.0865 29.3968 92.093 30.1907 91.1331 31.0294C90.7927 31.3391 90.5237 31.7192 90.3449 32.1435C90.1661 32.5677 90.0816 33.0258 90.0975 33.4859C90.0909 34.1084 90.0716 34.7309 90.0484 35.3537C84.9789 28.7943 77.981 23.9541 70.0072 21.5393C61.1545 18.8583 51.6469 19.3328 43.1046 22.8819C34.5623 26.431 27.5139 32.8351 23.1606 41.0028C18.8074 49.1706 17.4186 58.5964 19.231 67.6742C21.0434 76.7519 25.9448 84.9197 33.1 90.7857C40.2551 96.6517 49.2212 99.8528 58.4703 99.8435C69.0655 99.8329 79.2231 95.6126 86.7112 88.1102C93.2478 81.5609 97.3131 72.9456 98.2143 63.7324C98.8403 57.333 97.9127 50.9201 95.5641 45.0217C96.6312 45.2781 97.6984 45.5288 98.7655 45.7686C99.5386 45.9352 100.346 45.79 101.013 45.3644C102.778 44.2265 104.544 43.072 106.272 41.8789C108.449 47.6133 109.597 53.7474 109.598 60C109.6 70.0977 106.61 79.9692 101.006 88.3659C95.4019 96.7625 87.4357 103.307 78.1151 107.172C68.7944 111.037 58.5379 112.048 48.643 110.077C38.748 108.107 29.6592 103.244 22.526 96.1033C15.3928 88.9624 10.5358 79.8645 8.56937 69.9605C6.60289 60.0564 7.61528 49.7911 11.4785 40.463C15.3417 31.1349 21.8821 23.1631 30.2725 17.5559Z" fill="#6B9C66"/>
<path d="M105.217 39.3103C105.019 38.8639 104.814 38.4203 104.604 37.9796C104.503 37.9552 104.402 37.9308 104.301 37.9065C102.9 37.568 101.497 37.2289 100.101 36.8028C99.7663 36.6645 99.3934 36.6478 99.0473 36.7557C98.7012 36.8636 98.4037 37.0893 98.2063 37.3936L99.77 37.8704L105.217 39.3103Z" fill="#6B9C66"/>
<path d="M57.1431 40.5499C56.3261 39.243 55.1101 38.2344 53.6754 37.6735C53.5201 39.1868 53.8411 42.203 58.2114 44.9291C58.3347 43.3924 57.9602 41.8568 57.1431 40.5499Z" fill="#6B9C66"/>
<path fill-rule="evenodd" clip-rule="evenodd" d="M89.9319 39.2526C88.5222 37.1011 86.887 35.0871 85.0438 33.2475C77.9901 26.2075 68.4317 22.2592 58.4703 22.2709C49.7775 22.281 41.3572 25.3077 34.6442 30.8353C27.9312 36.3628 23.3409 44.0492 21.6555 52.5845C19.97 61.1198 21.2938 69.976 25.4012 77.644C29.5086 85.3119 36.1455 91.3171 44.1808 94.6362C52.2162 97.9554 61.1529 98.3831 69.468 95.8465C77.7832 93.31 84.9623 87.966 89.782 80.7254C94.6017 73.4847 96.7637 64.7953 95.8998 56.138C95.4893 52.0246 94.4077 48.0394 92.7252 44.3302C92.5641 44.2906 92.4029 44.251 92.2417 44.2114C91.8791 44.1223 91.5165 44.0332 91.1538 43.9444C90.8555 43.8407 90.5677 43.7088 90.2943 43.5505L74.048 56.5131C75.9386 59.4641 76.966 62.9182 76.966 66.4782C76.9639 70.1277 75.8805 73.6946 73.8529 76.7278C71.8252 79.7609 68.9443 82.1241 65.5746 83.5183C62.2049 84.9125 58.4977 85.2752 54.922 84.5605C51.3464 83.8457 48.0628 82.0857 45.4867 79.5029C42.9105 76.9201 41.1575 73.6307 40.4495 70.0507C39.7414 66.4707 40.11 62.7609 41.5087 59.3906C42.9074 56.0203 45.2733 53.1408 48.3072 51.1165C51.3411 49.0921 54.9067 48.0138 58.553 48.0179C63.4393 48.0261 68.1226 49.9747 71.5748 53.4358C72.0214 53.8835 72.4427 54.3518 72.8377 54.8384C74.7428 53.3406 76.6402 51.8375 78.5299 50.3293L88.0056 42.7109L88.1817 42.5762C89.5901 41.9335 89.9008 40.7312 89.9318 39.3422C89.9318 39.3124 89.9319 39.2825 89.9319 39.2526ZM63.9368 36.6324C65.6627 35.6469 67.616 35.1304 69.603 35.134C69.7499 35.1381 69.8945 35.171 70.0287 35.231C70.1629 35.291 70.2839 35.3769 70.3849 35.4838C70.4859 35.5906 70.5648 35.7163 70.6172 35.8537C70.6697 35.9911 70.6945 36.1375 70.6904 36.2846C70.6918 36.4306 70.664 36.5754 70.6088 36.7106C70.5536 36.8458 70.4721 36.9686 70.3689 37.0719C70.2657 37.1751 70.143 37.2568 70.008 37.312C69.8729 37.3673 69.7282 37.395 69.5823 37.3936C67.3414 37.3836 65.1735 38.1901 63.4832 39.6625C61.7929 41.135 60.6957 43.1728 60.3965 45.3955C60.3564 45.6355 60.3322 45.8779 60.324 46.1211V46.2455C60.3009 46.4057 60.2406 46.5584 60.1479 46.6912C60.1385 46.837 60.096 46.9788 60.0237 47.1058C59.9458 47.2798 59.8215 47.429 59.6643 47.5369C59.5072 47.6448 59.3233 47.7072 59.133 47.7173H59.0295C58.856 47.7182 58.6851 47.6754 58.5324 47.5929C55.8398 46.2455 52.4327 43.82 51.6042 40.0264C51.2891 38.6253 51.3899 37.1626 51.8942 35.8181C52.001 35.577 52.1894 35.3813 52.4262 35.2657C52.663 35.15 52.9331 35.1217 53.1887 35.1859C54.6638 35.4859 56.0395 36.1532 57.1889 37.126C58.3382 38.0989 59.2241 39.3459 59.7648 40.7519C60.7727 39.0381 62.211 37.6179 63.9368 36.6324Z" fill="#6B9C66"/>
<path fill-rule="evenodd" clip-rule="evenodd" d="M70.9473 56.3574C69.261 54.274 67.0746 52.6405 64.5826 51.6159C61.6489 50.4097 58.4238 50.1015 55.3151 50.7303C52.2064 51.3592 49.3539 52.8968 47.1186 55.1486C44.8832 57.4004 43.3655 60.2653 42.7573 63.3807C42.1491 66.4961 42.4779 69.7221 43.7019 72.6504C44.926 75.5788 46.9905 78.078 49.634 79.8317C52.2776 81.5854 55.3815 82.515 58.553 82.5027C62.8002 82.4835 66.8666 80.7792 69.8601 77.7635C72.8537 74.7479 74.5302 70.667 74.5219 66.416C74.5143 63.4525 73.6868 60.5533 72.1373 58.0376L68.8074 60.6945C68.7611 60.8034 68.6936 60.9021 68.6088 60.9847C68.5241 61.0712 68.4216 61.1384 68.3085 61.1816C68.2483 61.2069 68.1861 61.2267 68.1226 61.2408L65.7644 63.1224C65.8578 63.166 65.9412 63.2286 66.0094 63.3065C66.0988 63.3899 66.1698 63.4911 66.2179 63.6035C66.266 63.7159 66.2903 63.8371 66.289 63.9595V63.9802C66.2898 64.104 66.2655 64.2266 66.2174 64.3406C66.1693 64.4547 66.0986 64.5578 66.0094 64.6436C65.928 64.7365 65.8248 64.8077 65.7091 64.8509C65.5962 64.8919 65.4771 64.9129 65.357 64.9131C65.2334 64.9141 65.1107 64.8931 64.9945 64.8509C64.8788 64.8077 64.7756 64.7365 64.6942 64.6436C64.6079 64.5564 64.5378 64.4546 64.4871 64.343C64.4645 64.2914 64.4468 64.2381 64.4341 64.1838L59.4541 68.1573L59.4748 65.6075L62.9958 62.7882C66.3041 60.1448 68.2027 58.6052 70.9473 56.3574ZM69.3959 56.9112C69.397 57.0392 69.3723 57.166 69.3234 57.2843C69.2774 57.393 69.2106 57.4916 69.1266 57.5745C69.0433 57.67 68.936 57.7415 68.816 57.7818C68.7041 57.8277 68.5847 57.8523 68.4638 57.8544C68.3431 57.8509 68.224 57.8264 68.1117 57.7818C67.9916 57.7415 67.8844 57.67 67.8011 57.5745C67.7171 57.4916 67.6503 57.393 67.6043 57.2843C67.5553 57.166 67.5307 57.0392 67.5318 56.9112C67.5299 56.7898 67.5546 56.6695 67.6043 56.5587C67.6496 56.4438 67.718 56.3394 67.8053 56.252C67.8926 56.1647 67.9969 56.0962 68.1117 56.0508C68.224 56.0063 68.3431 55.9818 68.4638 55.9783C68.5847 55.9804 68.7041 56.005 68.816 56.0508C68.9308 56.0962 69.0351 56.1647 69.1224 56.252C69.2097 56.3394 69.2781 56.4438 69.3234 56.5587C69.373 56.6695 69.3978 56.7898 69.3959 56.9112ZM71.6016 61.2645C71.6513 61.1537 71.676 61.0334 71.6741 60.9121C71.6749 60.7883 71.6506 60.6657 71.6025 60.5516C71.5544 60.4376 71.4837 60.3345 71.3945 60.2487C71.3125 60.1589 71.2092 60.0912 71.0942 60.0518C70.9835 60.0021 70.8634 59.9773 70.7421 59.9792C70.6175 59.9771 70.4939 60.0019 70.3796 60.0518C70.2665 60.095 70.164 60.1621 70.0793 60.2487C69.993 60.3359 69.9229 60.4376 69.8722 60.5493C69.7795 60.7787 69.7795 61.0351 69.8722 61.2645C69.9153 61.3803 69.9865 61.4836 70.0793 61.5651C70.163 61.6579 70.2654 61.7321 70.3796 61.7827C70.4958 61.825 70.6185 61.846 70.7421 61.8449C70.8622 61.8448 70.9813 61.8238 71.0942 61.7827C71.2084 61.7321 71.3108 61.6579 71.3945 61.5651C71.4874 61.4836 71.5585 61.3803 71.6016 61.2645ZM69.7582 64.7472C69.8129 64.6381 69.8379 64.5166 69.8307 64.3948C69.8389 64.2729 69.8138 64.1511 69.7582 64.0424C69.7179 63.9222 69.6464 63.8149 69.5511 63.7314C69.421 63.5939 69.2509 63.5009 69.065 63.4655C68.8792 63.4302 68.6869 63.4543 68.5155 63.5345C68.4023 63.5777 68.2999 63.6448 68.2151 63.7314C68.1228 63.8155 68.0548 63.9229 68.0184 64.0424C67.9677 64.1528 67.9429 64.2733 67.9459 64.3948C67.9541 64.6409 68.0495 64.8761 68.2151 65.0581C68.2999 65.1447 68.4023 65.2119 68.5155 65.2551C68.688 65.3293 68.8788 65.3502 69.0633 65.3151C69.2479 65.28 69.4177 65.1905 69.5511 65.0581C69.642 64.9709 69.7127 64.8648 69.7582 64.7472ZM73.4657 65.7423C73.5156 65.6279 73.5403 65.5042 73.5382 65.3795C73.5403 65.2548 73.5156 65.131 73.4657 65.0167C73.4226 64.9035 73.3555 64.8009 73.269 64.7161C73.1763 64.6319 73.0716 64.562 72.9583 64.5088C72.8458 64.4663 72.7264 64.4452 72.6062 64.4466C72.4861 64.4468 72.367 64.4678 72.2541 64.5088C72.1408 64.562 72.0361 64.6319 71.9434 64.7161C71.8569 64.8009 71.7898 64.9035 71.7467 65.0167C71.6533 65.2495 71.6533 65.5094 71.7467 65.7423C71.7898 65.8555 71.8569 65.958 71.9434 66.0428C72.0344 66.1265 72.1396 66.1932 72.2541 66.2398C72.3648 66.2895 72.4849 66.3142 72.6062 66.3123C72.729 66.3133 72.8507 66.29 72.9645 66.2438C73.0782 66.1975 73.1817 66.1292 73.269 66.0428C73.3555 65.958 73.4226 65.8555 73.4657 65.7423ZM68.4638 67.95C68.4678 68.0743 68.4449 68.1979 68.3966 68.3124C68.3484 68.4269 68.2759 68.5296 68.1842 68.6134C68.1059 68.7028 68.0061 68.7706 67.8942 68.8103C67.7216 68.8845 67.5308 68.9054 67.3463 68.8703C67.1618 68.8353 66.9919 68.7458 66.8586 68.6134C66.7287 68.4785 66.6409 68.3086 66.6059 68.1245C66.571 67.9404 66.5904 67.7501 66.6618 67.5769C66.705 67.4637 66.7721 67.3611 66.8586 67.2763C66.9494 67.1946 67.0503 67.1249 67.1589 67.069C67.3915 66.9756 67.6512 66.9756 67.8838 67.069C67.9929 67.1188 68.0914 67.1892 68.1738 67.2763C68.2666 67.3601 68.3407 67.4625 68.3913 67.5769C68.4382 67.6957 68.4628 67.8222 68.4638 67.95ZM67.46 73.3998C67.5081 73.2857 67.5325 73.1631 67.5317 73.0393C67.5336 72.9179 67.5088 72.7976 67.4592 72.6869C67.4095 72.5715 67.3393 72.4662 67.252 72.3759C67.1673 72.2893 67.0649 72.2222 66.9517 72.179C66.8411 72.1293 66.7209 72.1045 66.5996 72.1064C66.4746 72.0993 66.3498 72.1243 66.2371 72.179C66.124 72.2222 66.0216 72.2893 65.9368 72.3759C65.8526 72.4686 65.7828 72.5735 65.7297 72.6869C65.637 72.9162 65.637 73.1727 65.7297 73.4021C65.7804 73.5137 65.8505 73.6155 65.9368 73.7027C66.0188 73.7925 66.1221 73.8602 66.2371 73.8996C66.349 73.9574 66.4737 73.986 66.5996 73.9825C66.7216 73.9808 66.8418 73.9525 66.9517 73.8996C67.0667 73.8602 67.17 73.7925 67.252 73.7027C67.3412 73.6169 67.4119 73.5138 67.46 73.3998ZM72.1298 69.4219C72.1343 69.5437 72.1126 69.665 72.0661 69.7777C72.0197 69.8904 71.9495 69.9917 71.8605 70.0749C71.7791 70.1678 71.6759 70.239 71.5602 70.2822C71.4442 70.3261 71.3217 70.3506 71.1977 70.3547C71.077 70.3513 70.9579 70.3267 70.8456 70.2822C70.7281 70.2367 70.6221 70.1659 70.5349 70.0749C70.4287 69.9647 70.3509 69.8304 70.3081 69.6834C70.2654 69.5364 70.259 69.3812 70.2896 69.2312C70.3202 69.0812 70.3868 68.9409 70.4837 68.8224C70.5805 68.704 70.7048 68.6109 70.8456 68.5512C70.9579 68.5067 71.077 68.4821 71.1977 68.4786C71.3217 68.4827 71.4442 68.5072 71.5602 68.5512C71.7878 68.6496 71.9693 68.8313 72.0676 69.0591C72.1098 69.1753 72.1308 69.2982 72.1298 69.4219ZM71.1253 73.4021C71.171 73.2865 71.1956 73.1636 71.1978 73.0393C71.1948 72.7901 71.0944 72.552 70.9182 72.3759C70.8335 72.2893 70.731 72.2222 70.6179 72.179C70.5072 72.1293 70.387 72.1045 70.2658 72.1064C70.1407 72.0993 70.016 72.1243 69.9033 72.179C69.7902 72.2222 69.6877 72.2893 69.603 72.3759C69.5188 72.4686 69.449 72.5735 69.3958 72.6869C69.3031 72.9162 69.3031 73.1727 69.3958 73.4021C69.4466 73.5137 69.5167 73.6155 69.603 73.7027C69.685 73.7925 69.7883 73.8602 69.9033 73.8996C70.0152 73.9574 70.1399 73.986 70.2658 73.9825C70.3877 73.9808 70.5079 73.9525 70.6179 73.8996C70.7329 73.8602 70.8362 73.7925 70.9182 73.7027C71.0077 73.6182 71.0783 73.5158 71.1253 73.4021ZM66.5376 77.6207C66.5395 77.742 66.5147 77.8623 66.4651 77.9731C66.3708 78.206 66.1884 78.3923 65.9576 78.4913C65.8448 78.5324 65.7256 78.5534 65.6055 78.5535C65.482 78.5546 65.3592 78.5336 65.2431 78.4913C65.1315 78.4406 65.0298 78.3704 64.9428 78.284C64.8507 78.1978 64.7798 78.0913 64.7356 77.9731C64.6534 77.7454 64.6534 77.496 64.7356 77.2683C64.7825 77.1514 64.853 77.0455 64.9428 76.9573C65.0275 76.8707 65.1299 76.8036 65.2431 76.7604C65.3573 76.7105 65.4809 76.6857 65.6055 76.6878C65.7268 76.6859 65.847 76.7107 65.9576 76.7604C66.1871 76.8561 66.3695 77.0386 66.4651 77.2683C66.5147 77.379 66.5395 77.4993 66.5376 77.6207Z" fill="#6B9C66"/>
<path fill-rule="evenodd" clip-rule="evenodd" d="M26.0503 11.2205C35.6895 4.77409 47.0221 1.33334 58.6151 1.33334C74.1608 1.33334 89.0697 7.51428 100.062 18.5164C111.055 29.5185 117.23 44.4406 117.23 60C117.23 71.6032 113.792 82.9458 107.352 92.5934C100.911 102.241 91.7566 109.761 81.0461 114.201C70.3356 118.641 58.5501 119.803 47.1799 117.539C35.8097 115.276 25.3654 109.688 17.168 101.484C8.97052 93.2789 3.38797 82.8255 1.1263 71.4453C-1.13538 60.0651 0.0253991 48.2692 4.46183 37.5492C8.89827 26.8293 16.4111 17.6668 26.0503 11.2205ZM28.5989 104.959C37.4816 110.908 47.9272 114.087 58.6151 114.096C65.7163 114.101 72.7489 112.706 79.3111 109.99C85.8733 107.274 91.8364 103.29 96.8596 98.2661C101.883 93.2423 105.868 87.277 108.586 80.7111C111.305 74.1452 112.705 67.1074 112.705 60C112.705 49.3027 109.536 38.8455 103.599 29.9504C97.6617 21.0553 89.223 14.1217 79.3494 10.0261C69.4758 5.93055 58.6107 4.85685 48.1275 6.94079C37.6443 9.02472 28.0138 14.1727 20.4534 21.734C12.893 29.2952 7.74216 38.9303 5.65203 49.4211C3.5619 59.9119 4.62632 70.7874 8.71074 80.6728C12.7952 90.5582 19.7162 99.0096 28.5989 104.959Z" fill="#6B9C66"/>
<path d="M118.048 27.7541C118.5 27.9093 118.929 28.1255 119.322 28.3967C120.161 28.9357 120.223 29.4747 119.498 30.138C118.924 30.6377 118.322 31.1049 117.696 31.5373C115.894 33.0817 114.02 34.5432 112.094 35.9218C109.708 30.5852 106.535 25.6377 102.68 21.2448L107.423 17.2749C107.817 16.9414 108.208 16.6031 108.6 16.2638C109.208 15.7383 109.818 15.2104 110.447 14.694C110.786 14.3958 111.154 14.132 111.545 13.9062C111.806 13.7652 112.112 13.733 112.397 13.8164C112.682 13.8998 112.923 14.0922 113.067 14.3519C113.157 14.5171 113.204 14.7027 113.202 14.8909C113.215 15.239 113.184 15.5874 113.109 15.9274C113.023 16.4615 112.938 16.9971 112.853 17.5336C112.546 19.4647 112.237 21.408 111.897 23.3385C111.82 23.8282 111.781 24.3227 111.738 24.8633C111.717 25.1236 111.696 25.3947 111.669 25.681C112.291 25.9122 112.889 26.1027 113.475 26.2893C113.914 26.429 114.346 26.5666 114.776 26.7175C115.306 26.9035 115.899 27.0837 116.494 27.2642C117.026 27.4258 117.559 27.5876 118.048 27.7541Z" fill="#6B9C66"/>
</svg>
